<?xml version="1.0" standalone="no"?>
<!DOCTYPE svg PUBLIC "-//W3C//DTD SVG 1.1//EN" "http://www.w3.org/Graphics/SVG/1.1/DTD/svg11.dtd" >
<svg xmlns="http://www.w3.org/2000/svg">
<metadata></metadata>
<defs>
<font id="source_sans_proextralight" horiz-adv-x="0" >
<font-face units-per-em="2048" ascent="1536" descent="-512" />
<missing-glyph horiz-adv-x="461" />
<glyph unicode="ff" horiz-adv-x="1185" d="M1249 1676l-23 -61q-68 33 -136 33q-181 0 -181 -266v-266h265v-65h-265v-1051h-71v1051h-535v-1051h-69v1051h-152v56l152 9v229q0 171 75.5 258.5t209.5 87.5q92 0 181 -43l-23 -60q-74 36 -163 36q-104 0 -157.5 -75t-53.5 -214v-219h535v276q0 161 67.5 241t190.5 80 q69 0 153 -37z" />
<glyph unicode="ft" horiz-adv-x="1208" d="M1163 75l23 -61q-121 -42 -173 -42q-75 0 -127 22.5t-81 67t-41.5 100.5t-12.5 132v757h-448v-1051h-69v1051h-154v56l154 9v276q0 161 67 241t189 80q69 0 154 -37l-23 -61q-67 33 -135 33q-183 0 -183 -266v-266h448l11 327h60v-327h332v-65h-332v-766q0 -38 3 -68.5 t11 -59.5t22.5 -50t36 -37t52.5 -24t71 -8q58 0 145 37z" />
<glyph unicode=" "  horiz-adv-x="461" />
<glyph unicode="&#x09;" horiz-adv-x="461" />
<glyph unicode="&#xa0;" horiz-adv-x="461" />
<glyph unicode="!" horiz-adv-x="577" d="M261 401l-9 1018v145h75v-145l-9 -1018h-57zM205 60q0 43 25.5 68.5t59 25.5t59 -25.5t25.5 -68.5q0 -40 -25.5 -64t-59 -24t-59 24t-25.5 64z" />
<glyph unicode="&#x22;" horiz-adv-x="784" d="M210 1154l-14 326v140h89v-140l-14 -326h-61zM508 1154l-13 326v140h89v-140l-14 -326h-62z" />
<glyph unicode="#" horiz-adv-x="1101" d="M220 0l60 508h-196v67h206l51 415h-210v66h214l61 461h66l-62 -461h365l61 461h66l-62 -461h192v-66h-196l-52 -415h201v-67h-210l-60 -508h-66l61 508h-365l-60 -508h-65zM355 575h364l52 415h-365z" />
<glyph unicode="$" horiz-adv-x="1101" d="M920 1359l-47 -47q-38 38 -65.5 61t-64.5 44t-80 30.5t-98 9.5q-82 0 -147.5 -38t-101.5 -103t-36 -144q0 -69 23.5 -124.5t63 -92.5t90.5 -68.5t107.5 -58.5t113 -55.5t108 -67t91 -85.5t62.5 -117t23 -158q0 -65 -18 -122.5t-51 -101t-77.5 -76t-99 -51t-114.5 -22.5 v-228h-70v230q-114 8 -213 58.5t-174 121.5l42 51q177 -167 383 -167q150 0 233.5 83t83.5 220q0 78 -23.5 141t-63 106t-90.5 78t-107.5 63.5t-113 56.5t-107.5 62.5t-90.5 76.5t-63 104t-23.5 138q0 144 93 242.5t234 110.5v231h70v-229q55 -3 101.5 -16.5t85.5 -37.5 t68 -49t63 -60z" />
<glyph unicode="%" horiz-adv-x="1862" d="M420.5 602q-151.5 0 -237 126.5t-85.5 359.5q0 229 85.5 355t237 126t236.5 -126t85 -355q0 -233 -85 -359.5t-236.5 -126.5zM420.5 663q116.5 0 184.5 113.5t68 311.5q0 197 -68 308.5t-184.5 111.5t-184.5 -111.5t-68 -308.5q0 -198 68 -311.5t184.5 -113.5zM532 -28 h-75l864 1597h75zM1443 -28q-152 0 -237 126.5t-85 358.5q0 153 38.5 261.5t111 164t172.5 55.5q152 0 237 -125.5t85 -355.5q0 -155 -38.5 -264.5t-110.5 -165t-173 -55.5zM1443 33q116 0 184 113t68 311t-67.5 309.5t-184.5 111.5q-57 0 -104 -28.5t-80 -82t-51 -132.5 t-18 -178q0 -198 68.5 -311t184.5 -113z" />
<glyph unicode="&#x26;" horiz-adv-x="1311" d="M528 38q188 0 359 179q-132 123 -251 272t-199 302q-63 -48 -106.5 -88t-84.5 -90.5t-62 -105.5t-21 -115q0 -104 50.5 -186t133 -125t181.5 -43zM374 1237q0 -153 91 -350q44 33 69 52.5t63 51t60 55t48.5 55.5t40.5 60.5t24 63t10 69.5q0 40 -10 76t-30 67t-55.5 49 t-82.5 18q-105 0 -166.5 -77t-61.5 -190zM1284 38l-28 -66q-148 55 -320 201q-91 -96 -191.5 -148.5t-221.5 -52.5q-70 0 -134.5 18t-119 54t-95 86t-63 116t-22.5 142q0 57 18.5 112t46 98t73 90t85 80t96.5 77q-105 215 -105 387q0 148 85 242.5t218 94.5 q116 0 179.5 -75.5t63.5 -195.5q0 -31 -6.5 -61.5t-16 -57t-29 -55.5t-35 -50.5t-44 -49.5t-48 -46t-54.5 -46.5t-55 -44t-58 -44.5q-3 -2 -4.5 -3.5t-4 -3t-4.5 -3.5q79 -151 196.5 -299t244.5 -265q167 208 255 529h70q-98 -348 -276 -571q161 -134 304 -189z" />
<glyph unicode="'" horiz-adv-x="484" d="M210 1154l-14 326v140h89v-140l-14 -326h-61z" />
<glyph unicode="(" horiz-adv-x="629" d="M519 -406q-151 242 -230 500.5t-79 554.5t79 554.5t230 500.5l42 -28q-70 -110 -123.5 -232t-89.5 -252t-54 -266.5t-18 -276.5q0 -282 72.5 -545t212.5 -482z" />
<glyph unicode=")" horiz-adv-x="629" d="M70 -378q139 219 212 482t73 544.5t-73 544.5t-212 483l42 28q150 -242 229.5 -500.5t79.5 -554.5t-79.5 -554.5t-229.5 -500.5z" />
<glyph unicode="*" horiz-adv-x="900" d="M303 1116l-51 38l126 200l-205 79l19 57l214 -62l15 234h60l14 -229l215 57l18 -57l-205 -79l126 -200l-52 -38l-144 192z" />
<glyph unicode="+" horiz-adv-x="1101" d="M514 261v477h-434v66h434v475h74v-475h435v-66h-435v-477h-74z" />
<glyph unicode="," horiz-adv-x="484" d="M140 -350l-28 56q76 44 121.5 116t46.5 167q-9 -3 -28 -3q-37 0 -60.5 21.5t-23.5 62.5q0 39 25 61.5t59 22.5q46 0 74.5 -39.5t28.5 -105.5q0 -113 -59 -206t-156 -153z" />
<glyph unicode="-" horiz-adv-x="686" d="M93 546v71h504v-71h-504z" />
<glyph unicode="." horiz-adv-x="484" d="M158 60q0 43 25.5 68.5t59.5 25.5t59 -25.5t25 -68.5q0 -26 -12.5 -47t-31.5 -31t-40 -10q-34 0 -59.5 24t-25.5 64z" />
<glyph unicode="/" horiz-adv-x="840" d="M18 -374l748 2032h70l-747 -2032h-71z" />
<glyph unicode="0" horiz-adv-x="1101" d="M550.5 -28q-209.5 0 -322 203.5t-112.5 575.5t112.5 571.5t322.5 199.5t322 -199.5t112 -571.5t-112.5 -575.5t-322 -203.5zM551 38q167 0 263.5 185.5t96.5 527.5t-96 524t-264 182t-263.5 -182t-95.5 -524q0 -228 44 -389.5t124 -242.5t191 -81z" />
<glyph unicode="1" horiz-adv-x="1101" d="M201 0v65h354v1289h-265v52q167 26 275 89h61v-1430h332v-65h-757z" />
<glyph unicode="2" horiz-adv-x="1101" d="M98 0v47q138 142 231.5 241.5t185 204.5t147 182.5t100.5 156t64 146t19 134.5q0 73 -20.5 134.5t-60.5 109t-106.5 74.5t-153.5 27q-101 0 -193 -54t-166 -147l-52 47q91 102 191.5 160.5t223.5 58.5q194 0 303 -111.5t109 -298.5q0 -64 -18.5 -130.5t-42.5 -124 t-80 -138t-98 -136t-132.5 -157t-147 -162t-174.5 -186.5l-22 -22q169 9 252 9h537v-65h-896z" />
<glyph unicode="3" horiz-adv-x="1101" d="M70 182l46 52q38 -42 75.5 -73t89 -61t118 -46t143.5 -16q158 0 261 97t103 253q0 82 -31 147.5t-94.5 114t-168 75t-243.5 26.5v71q75 0 138.5 9t112 25.5t87.5 40.5t65.5 53t44 63.5t25 71.5t7.5 78q0 133 -86.5 213.5t-230.5 80.5q-99 0 -190.5 -47t-159.5 -122 l-46 53q181 181 396 181q111 0 199.5 -41t141 -122.5t52.5 -191.5q0 -143 -79.5 -236.5t-210.5 -137.5v-9q71 -14 133 -47t109.5 -82t75 -117t27.5 -146q0 -94 -33.5 -173.5t-93 -133.5t-141 -83.5t-175.5 -29.5q-85 0 -158.5 18t-131 51.5t-97 65.5t-80.5 75z" />
<glyph unicode="4" horiz-adv-x="1101" d="M136 523h592v589q0 117 10 247h-10q-19 -32 -60.5 -90t-61.5 -88zM1027 523v-66h-229v-457h-70v457h-690v38l713 1000h47v-972h229z" />
<glyph unicode="5" horiz-adv-x="1101" d="M60 173l47 52q38 -41 74.5 -70t87.5 -58t116.5 -44t142.5 -15q76 0 146.5 31t124 86t85 135.5t31.5 172.5q0 124 -46.5 216t-133 141t-203.5 49q-80 0 -144.5 -25.5t-140.5 -77.5l-60 38l56 691h668v-67h-603l-52 -573q66 40 132.5 61.5t148.5 21.5q96 0 177 -28 t143.5 -84t97.5 -147.5t35 -211.5q0 -92 -26 -173t-71 -139t-104.5 -100t-127 -62.5t-138.5 -20.5q-85 0 -157.5 17t-129.5 49.5t-95.5 62.5t-80.5 72z" />
<glyph unicode="6" horiz-adv-x="1101" d="M606 38q68 0 127 31t101 84.5t66.5 126.5t24.5 154q0 87 -19.5 157.5t-59.5 125t-107 84.5t-155 30q-58 0 -119 -22.5t-130.5 -77t-131.5 -136.5q6 -124 33 -224.5t75.5 -175.5t123.5 -116t171 -41zM967 1382l-47 -52q-50 63 -116 95t-141 32q-76 0 -142 -25 t-125.5 -82.5t-102 -145t-67.5 -220t-25 -300.5q80 99 180.5 155.5t206.5 56.5q197 0 304.5 -119.5t107.5 -342.5q0 -97 -32.5 -183.5t-86.5 -147.5t-127 -96t-152 -35q-149 0 -256 82.5t-163 240t-56 378.5q0 185 29 331.5t79 242t120 158.5t147 90t166 27q174 0 299 -140z " />
<glyph unicode="7" horiz-adv-x="1101" d="M448 0q11 309 62.5 552.5t146.5 451t249 424.5h-803v67h901v-43q-107 -143 -185 -280.5t-131 -269t-86.5 -278.5t-50 -293.5t-23.5 -330.5h-80z" />
<glyph unicode="8" horiz-adv-x="1101" d="M168 383q0 -95 50 -174t140.5 -125t202.5 -46q82 0 151.5 25t117 68.5t73.5 102.5t26 125q0 49 -14 92.5t-33.5 75.5t-59 64.5t-69.5 52.5t-87 46.5t-90 40t-98 39.5q-5 2 -7 2.5t-5.5 2t-6.5 3t-6 2.5q-285 -164 -285 -397zM673 771q209 165 209 363q0 88 -36.5 160.5 t-111 117.5t-173.5 45q-88 0 -157.5 -38.5t-108.5 -105.5t-39 -150q0 -47 14 -89t33 -73t55 -62t65.5 -51t80 -44.5t82 -37.5t87.5 -35zM93 383q0 43 10 84.5t26 77.5t39.5 70t50 62t57 53.5t60.5 45.5t61 37v9q-43 28 -79 61t-68 75.5t-50 95t-18 109.5q0 102 51 185 t137.5 128.5t190.5 45.5q92 0 167.5 -29.5t125.5 -82t77 -123t27 -153.5q0 -59 -21.5 -120t-55.5 -111.5t-68.5 -88.5t-70.5 -67v-9q46 -29 77 -51.5t69.5 -58.5t61 -72.5t38.5 -87.5t16 -109q0 -53 -14.5 -103t-41 -92.5t-66 -78.5t-88 -61t-108.5 -38.5t-125 -13.5 q-134 0 -241 53.5t-167 147.5t-60 210z" />
<glyph unicode="9" horiz-adv-x="1101" d="M519 663q57 0 118 22.5t130.5 76.5t130.5 136q-6 125 -33 225.5t-75.5 176t-123.5 116.5t-171 41q-67 0 -126.5 -31.5t-101 -84.5t-65.5 -126t-24 -155q0 -86 19.5 -157t59.5 -125t106.5 -84.5t155.5 -30.5zM136 112l46 51q100 -125 257 -125q76 0 142 24.5t125.5 82 t102 145t67.5 220.5t26 301q-81 -100 -181.5 -157t-206.5 -57q-196 0 -303.5 120t-107.5 343q0 98 32 184t85.5 147t126.5 96t152 35q225 0 351 -184t126 -516q0 -185 -29.5 -331.5t-79 -242.5t-119.5 -159.5t-147.5 -90t-166.5 -26.5q-179 0 -298 140z" />
<glyph unicode=":" horiz-adv-x="484" d="M158 971q0 43 25.5 68.5t59.5 25.5t59 -25.5t25 -68.5q0 -40 -25.5 -64.5t-59 -24.5t-59 24.5t-25.5 64.5zM158 60q0 43 25.5 68.5t59.5 25.5t59 -25.5t25 -68.5q0 -26 -12.5 -47t-31.5 -31t-40 -10q-34 0 -59.5 24t-25.5 64z" />
<glyph unicode=";" horiz-adv-x="484" d="M242.5 882q-33.5 0 -59 24.5t-25.5 64.5q0 43 25.5 68.5t59.5 25.5t59 -25.5t25 -68.5q0 -40 -25.5 -64.5t-59 -24.5zM140 -350l-28 56q76 44 121.5 116t46.5 167q-9 -3 -28 -3q-37 0 -60.5 21.5t-23.5 62.5q0 39 25 61.5t59 22.5q46 0 74.5 -39.5t28.5 -105.5 q0 -113 -59 -206t-156 -153z" />
<glyph unicode="&#x3c;" horiz-adv-x="1101" d="M80 733v84l943 379v-75l-560 -219l-309 -122v-9l309 -122l560 -219v-75z" />
<glyph unicode="=" horiz-adv-x="1101" d="M80 971v65h943v-65h-943zM80 504v66h943v-66h-943z" />
<glyph unicode="&#x3e;" horiz-adv-x="1101" d="M1023 817v-84l-943 -378v75l560 219l307 122v9l-307 122l-560 219v75z" />
<glyph unicode="?" horiz-adv-x="918" d="M383 401q-10 81 3 155t42.5 132t67.5 112.5t78 105.5t73.5 101t55 109.5t21.5 120.5q0 58 -16.5 108.5t-49.5 92t-88.5 65t-126.5 23.5q-87 0 -169.5 -40t-142.5 -113l-47 42q162 178 364 178q82 0 149 -28t110.5 -76t67 -111t23.5 -135q0 -65 -22 -128.5t-56 -116 t-74.5 -106t-79.5 -108t-69 -111.5t-44 -127t-5 -145h-65zM341 60q0 43 25 68.5t59 25.5t58.5 -25t24.5 -69q0 -26 -12 -47t-30.5 -31t-40.5 -10q-33 0 -58.5 24t-25.5 64z" />
<glyph unicode="@" horiz-adv-x="1871" d="M121 472q0 147 34 282t95 243.5t146 197t185.5 148t215.5 91.5t235 32q219 0 382 -90.5t250 -255t87 -382.5q0 -114 -25.5 -213t-67.5 -169t-96 -121t-112 -75t-115 -24q-94 0 -153 44.5t-66 131.5h-4q-47 -49 -88.5 -82.5t-94 -57t-103.5 -23.5q-53 0 -99.5 20t-83 58 t-57.5 98.5t-21 137.5q0 67 18 138t54.5 139t86 121.5t120 86t150.5 32.5q127 0 196 -111h6l18 93h61l-79 -430q-83 -331 145 -331q37 0 76.5 16t77.5 46t72 76.5t59.5 104t40.5 132t15 157.5q0 203 -81 354.5t-229 232.5t-345 81q-107 0 -211 -30t-196.5 -85t-171.5 -137.5 t-135.5 -183t-88.5 -226t-32 -262.5q0 -168 50.5 -307t142 -234.5t222.5 -148.5t289 -53q211 0 398 117l32 -56q-197 -127 -435 -127q-167 0 -309 55.5t-244 157t-159.5 253.5t-57.5 338zM635 467q0 -45 7 -83t20 -65.5t30.5 -47.5t40 -32.5t47 -18.5t51.5 -6q123 0 267 164 l74 415q-30 47 -58 73.5t-57 37.5t-67 11q-64 0 -121.5 -26.5t-99 -71.5t-72.5 -103t-46.5 -121.5t-15.5 -125.5z" />
<glyph unicode="A" horiz-adv-x="1212" d="M315 617h581l-107 308q-125 359 -177 536h-10q-52 -177 -177 -536zM1112 0l-192 551h-628l-194 -551h-75l552 1541h65l550 -1541h-78z" />
<glyph unicode="B" horiz-adv-x="1339" d="M234 0v1541h401q236 0 367.5 -94.5t131.5 -279.5q0 -124 -70 -213t-204 -123v-9q175 -25 273.5 -120.5t98.5 -253.5q0 -217 -151 -332.5t-418 -115.5h-429zM308 855h280q248 0 360 79t112 242q0 155 -115 227t-343 72h-294v-620zM308 65h327q249 0 386 94t137 284 q0 173 -135 259.5t-388 86.5h-327v-724z" />
<glyph unicode="C" horiz-adv-x="1311" d="M131 775q0 180 46.5 328.5t130.5 251t205 158.5t267 56q64 0 124 -15t109 -41t88 -57.5t71 -68.5l-47 -52q-141 164 -345 164q-176 0 -305 -88t-197 -251.5t-68 -384t67.5 -386.5t195 -256.5t298.5 -90.5q120 0 216 48t185 148l47 -46q-93 -109 -201 -164.5t-252 -55.5 q-140 0 -258.5 57.5t-201 161.5t-129 254t-46.5 330z" />
<glyph unicode="D" horiz-adv-x="1399" d="M234 0v1541h345q141 0 255 -36t194.5 -102t135 -161t80.5 -211.5t26 -255.5t-26 -256.5t-80.5 -213.5t-135 -163.5t-194.5 -104.5t-255 -37h-345zM308 65h262q129 0 233 35t175.5 98t119.5 152t70 195t22 230t-22 229t-70 193t-120 149t-175.5 95t-232.5 34h-262v-1410z " />
<glyph unicode="E" horiz-adv-x="1190" d="M234 0v1541h826v-66h-752v-620h630v-66h-630v-724h775v-65h-849z" />
<glyph unicode="F" horiz-adv-x="1096" d="M234 0v1541h822v-66h-748v-649h630v-64h-630v-762h-74z" />
<glyph unicode="G" horiz-adv-x="1399" d="M131 775q0 180 48.5 328.5t135.5 251t212.5 158.5t276.5 56q239 0 410 -182l-47 -52q-147 164 -363 164q-183 0 -317.5 -88t-205.5 -251.5t-71 -384.5t68 -386t198.5 -256t307.5 -91q113 0 211.5 33t158.5 93v509h-383v65h457v-597q-73 -80 -188 -126.5t-260 -46.5 q-194 0 -341.5 99t-227.5 281.5t-80 422.5z" />
<glyph unicode="H" horiz-adv-x="1479" d="M234 0v1541h74v-686h864v686h75v-1541h-75v789h-864v-789h-74z" />
<glyph unicode="I" horiz-adv-x="541" d="M234 0v1541h74v-1541h-74z" />
<glyph unicode="J" horiz-adv-x="1063" d="M103 192l60 37q59 -100 132.5 -143.5t176.5 -43.5q148 0 219 91t71 283v1125h74v-1135q0 -75 -12 -138.5t-40 -119t-70 -94t-104.5 -60.5t-142.5 -22q-121 0 -214 56.5t-150 163.5z" />
<glyph unicode="K" horiz-adv-x="1283" d="M234 0v1541h74v-888h4l786 888h92l-495 -565l561 -976h-89l-527 920l-332 -374v-546h-74z" />
<glyph unicode="L" horiz-adv-x="1073" d="M234 0v1541h74v-1476h724v-65h-798z" />
<glyph unicode="M" horiz-adv-x="1629" d="M234 0v1541h121l331 -935l127 -350h9l121 350l332 935h121v-1541h-75v1074q0 148 9 401h-9l-118 -336l-343 -966h-89l-346 966l-122 336h-9q9 -253 9 -401v-1074h-69z" />
<glyph unicode="N" horiz-adv-x="1475" d="M234 0v1541h78l682 -1131l178 -303h9q-9 299 -9 435v999h71v-1541h-80l-682 1130l-178 303h-9q9 -290 9 -420v-1013h-69z" />
<glyph unicode="O" horiz-adv-x="1512" d="M757 -28q-135 0 -251 57.5t-198.5 161t-129.5 254.5t-47 330t47 328.5t129.5 251t198 158t251 56.5t251 -56.5t198 -158t129.5 -251t47 -328.5t-47 -330t-129.5 -254.5t-198 -161t-250.5 -57.5zM757 42q162 0 286 90.5t192 257t68 385.5t-68 383.5t-191.5 252.5 t-286.5 88t-286.5 -88t-192 -252.5t-68.5 -383.5t68 -385.5t192.5 -257t286.5 -90.5z" />
<glyph unicode="P" horiz-adv-x="1288" d="M234 0v1541h401q133 0 231 -22.5t168.5 -72t106 -130.5t35.5 -195q0 -218 -139.5 -328.5t-401.5 -110.5h-327v-682h-74zM308 747h298q253 0 372.5 88.5t119.5 285.5q0 81 -19.5 141t-57.5 101t-98.5 65.5t-137 35.5t-179.5 11h-298v-728z" />
<glyph unicode="Q" horiz-adv-x="1512" d="M210 775q0 -219 68 -387t192.5 -259t286.5 -91t286 91t192 259t68 387t-68 383.5t-191.5 252.5t-286.5 88t-286.5 -88t-192 -252.5t-68.5 -383.5zM1359 -261l18 -71q-94 -23 -177 -23q-180 0 -306.5 90t-183.5 239q-127 10 -234 71.5t-183.5 164t-119 248t-42.5 317.5 q0 179 47 328.5t129.5 251t198 158t251 56.5t251 -56.5t198 -158t129.5 -251t47 -328.5q0 -116 -20 -221t-56 -191t-88.5 -156.5t-117 -120t-142 -78.5t-162.5 -34q33 -81 91 -137.5t139 -86.5t179 -30q74 0 154 19z" />
<glyph unicode="R" horiz-adv-x="1288" d="M308 793h322q217 0 330.5 87.5t113.5 264t-111 253.5t-333 77h-322v-682zM1176 0h-88l-435 728h-345v-728h-74v1541h425q495 0 495 -396q0 -182 -110.5 -288.5t-305.5 -123.5z" />
<glyph unicode="S" horiz-adv-x="1203" d="M112 205l51 51q86 -100 205.5 -157t257.5 -57q184 0 295 92t111 240q0 43 -8.5 80t-21 65t-35 53.5t-43 43t-54.5 37t-58.5 32t-64.5 30.5l-239 107q-34 15 -58.5 27t-59.5 33t-60 41.5t-52 50t-43.5 62t-27.5 75t-11 89.5q0 108 57 192.5t155.5 130.5t221.5 46 q132 0 239.5 -51t181.5 -131l-47 -52q-69 77 -164 120.5t-210 43.5q-161 0 -260 -80.5t-99 -213.5q0 -40 10 -75.5t24 -61.5t39 -51.5t44.5 -41t52 -34t51 -27t50.5 -23.5l238 -107q42 -19 72.5 -34.5t66.5 -38t61.5 -44.5t51 -53t41 -64.5t25 -77.5t9.5 -94 q0 -86 -35 -161.5t-97 -129.5t-152 -84.5t-197 -30.5q-164 0 -292.5 62.5t-221.5 170.5z" />
<glyph unicode="T" horiz-adv-x="1212" d="M570 0v1475h-500v66h1075v-66h-501v-1475h-74z" />
<glyph unicode="U" horiz-adv-x="1470" d="M229 575v966h74v-948q0 -124 23.5 -220.5t63 -157.5t95.5 -101t116.5 -56t131.5 -16q72 0 134 16t119.5 56t97.5 101t64 157.5t24 220.5v948h71v-966q0 -88 -12 -163t-33.5 -132.5t-50.5 -105t-66.5 -80.5t-77.5 -57t-86 -38t-91 -20.5t-93 -6.5q-55 0 -106 8t-102 28 t-94 50.5t-81 78.5t-64.5 109.5t-41.5 145t-15 183.5z" />
<glyph unicode="V" horiz-adv-x="1125" d="M528 0l-514 1541h79l299 -924q115 -365 169 -521h9q40 115 168 521l298 924h76l-510 -1541h-74z" />
<glyph unicode="W" horiz-adv-x="1782" d="M430 0l-360 1541h79l206 -935q18 -83 56 -251.5t56 -251.5h10q49 220 120 503l252 935h85l252 -935q21 -83 63 -251.5t63 -251.5h9q19 83 54 251.5t53 251.5l207 935h74l-355 -1541h-75l-299 1107q-14 60 -42 172.5t-42 172.5h-9q-12 -50 -28.5 -111t-32.5 -122.5 t-28 -111.5l-294 -1107h-74z" />
<glyph unicode="X" horiz-adv-x="1096" d="M42 0l466 798l-433 743h79l271 -476q22 -36 61 -100t65 -105h10q86 155 116 205l270 476h76l-435 -748l468 -793h-80l-285 495q-15 26 -33.5 57t-33.5 56.5t-38 63.5t-40 66h-9q-22 -40 -136 -243l-285 -495h-74z" />
<glyph unicode="Y" horiz-adv-x="1016" d="M472 0v635l-463 906h80l247 -500q138 -275 168 -331h10q10 19 35 64.5t38 70t33 62t36 70t30 64.5l248 500h75l-463 -906v-635h-74z" />
<glyph unicode="Z" horiz-adv-x="1255" d="M121 0v42l915 1433h-835v66h929v-42l-916 -1434h925v-65h-1018z" />
<glyph unicode="[" horiz-adv-x="629" d="M234 -355v2008h354v-51h-298v-1905h298v-52h-354z" />
<glyph unicode="\" horiz-adv-x="840" d="M751 -374l-746 2032h70l747 -2032h-71z" />
<glyph unicode="]" horiz-adv-x="629" d="M42 -303h299v1905h-299v51h355v-2008h-355v52z" />
<glyph unicode="^" horiz-adv-x="1101" d="M158 682l350 882h85l350 -882h-74l-192 499l-122 309h-9l-121 -309l-191 -499h-76z" />
<glyph unicode="_" horiz-adv-x="1167" d="M28 -192h1111v-74h-1111v74z" />
<glyph unicode="`" horiz-adv-x="1241" d="M677 1335l-243 313h94l214 -313h-65z" />
<glyph unicode="a" horiz-adv-x="1152" d="M158 274q0 184 174.5 281.5t558.5 139.5q2 60 -3.5 111t-23.5 102.5t-48 88t-81 59t-118 22.5q-107 0 -203 -41t-162 -94l-38 57q32 23 69.5 44.5t90.5 46t118 39.5t129 15q76 0 135.5 -22.5t97.5 -61t63 -93t35 -114.5t10 -130v-724h-60l-11 149h-4q-221 -177 -406 -177 q-67 0 -124 17.5t-102 53t-71 95t-26 136.5zM234 276q0 -63 20 -110t55.5 -74.5t79.5 -40.5t97 -13q98 0 193.5 46.5t211.5 144.5v406q-242 -28 -388 -76.5t-207.5 -116.5t-61.5 -166z" />
<glyph unicode="b" horiz-adv-x="1259" d="M225 0v1686h69v-500l-4 -224q216 183 396 183q149 0 250.5 -71.5t149.5 -197.5t48 -301q0 -139 -40 -254t-108 -190.5t-157.5 -117t-188.5 -41.5q-80 0 -170 35t-171 96h-5l-9 -103h-60zM294 192q92 -79 184.5 -116.5t165.5 -37.5q90 0 167.5 40t132 110.5t85.5 170.5 t31 216q0 87 -12.5 161.5t-41 138.5t-72 108.5t-107.5 69.5t-145 25q-171 0 -388 -196v-690z" />
<glyph unicode="c" horiz-adv-x="1040" d="M127 555q0 69 10.5 132.5t30 117.5t47 101t62 84t74.5 66.5t84.5 48.5t92.5 29.5t98 10.5q104 0 181 -38.5t146 -102.5l-47 -51q-135 125 -280 125q-71 0 -136 -24.5t-117 -71t-91 -110t-60 -145t-21 -172.5q0 -152 52.5 -269.5t149 -182.5t223.5 -65q168 0 312 135 l42 -52q-165 -149 -354 -149q-107 0 -198.5 39.5t-158.5 113t-104.5 184.5t-37.5 246z" />
<glyph unicode="d" horiz-adv-x="1259" d="M127 555q0 132 39.5 243.5t107.5 186.5t159 117.5t193 42.5q96 0 173 -34t172 -107l-4 210v472h69v-1686h-60l-9 149h-5q-178 -177 -374 -177q-214 0 -337.5 152t-123.5 431zM201 555q0 -154 45 -270t134 -181.5t213 -65.5q95 0 185 48.5t189 147.5v691 q-94 82 -175.5 117.5t-170.5 35.5q-117 0 -213.5 -70t-151.5 -190t-55 -263z" />
<glyph unicode="e" horiz-adv-x="1114" d="M127 555q0 132 40 245t107 187t153 116t179 42q196 0 308.5 -134.5t112.5 -380.5q0 -46 -4 -75h-822q0 -111 31.5 -206.5t88 -164t139 -107.5t180.5 -39q164 0 307 102l33 -60q-42 -26 -68 -40t-71 -32.5t-95.5 -27t-110.5 -8.5q-105 0 -197.5 40.5t-161.5 114 t-109 184.5t-40 244zM201 617h757q0 225 -95 343t-257 118q-75 0 -144.5 -32.5t-124.5 -91t-91.5 -146t-44.5 -191.5z" />
<glyph unicode="f" horiz-adv-x="588" d="M644 1676l-23 -61q-67 33 -135 33q-183 0 -183 -266v-266h267v-65h-267v-1051h-69v1051h-154v56l154 9v276q0 161 67 241t189 80q69 0 154 -37z" />
<glyph unicode="g" horiz-adv-x="1120" d="M201 -229q0 -114 102.5 -183t284.5 -69q96 0 179.5 26.5t138 69.5t86 97t31.5 110q0 65 -31.5 105.5t-90.5 59t-150 18.5h-256q-55 0 -136 18q-80 -54 -119 -119.5t-39 -132.5zM127 -234q0 73 44.5 146t122.5 130v9q-44 27 -71 72.5t-27 105.5q0 36 12 70t32 59.5 t38.5 43.5t39.5 32v9q-59 51 -99.5 132.5t-40.5 175.5q0 111 50.5 201t138.5 141.5t194 51.5q75 0 144 -29h373v-65h-270q41 -33 71 -78t47 -102.5t17 -119.5q0 -83 -30 -156.5t-80.5 -126t-121.5 -83t-150 -30.5q-50 0 -102 13.5t-90 37.5q-46 -38 -72 -78t-26 -94 q0 -34 10.5 -60.5t34 -48.5t67.5 -33.5t107 -11.5h248q185 0 272.5 -61.5t87.5 -191.5q0 -71 -37 -137.5t-102.5 -119t-163.5 -84.5t-211 -32q-212 0 -334.5 85.5t-122.5 226.5zM561 421q61 0 117 24t98 67t67.5 105.5t25.5 133.5q0 73 -24.5 135t-66.5 103.5t-98.5 65 t-119 23.5t-118.5 -23t-98.5 -64.5t-67 -103.5t-24.5 -136q0 -71 25.5 -133.5t68 -105.5t98.5 -67t117 -24z" />
<glyph unicode="h" horiz-adv-x="1218" d="M225 0v1686h69v-500v-252q50 49 92 84t91 65.5t101 46t108 15.5q172 0 254.5 -104t82.5 -322v-719h-70v710q0 126 -28 206.5t-88 121t-155 40.5q-101 0 -186.5 -52t-201.5 -171v-855h-69z" />
<glyph unicode="i" horiz-adv-x="517" d="M261 1401q-32 0 -55.5 22t-23.5 57q0 37 23 58.5t56 21.5q16 0 30.5 -5.5t25.5 -15.5t17.5 -25.5t6.5 -33.5q0 -23 -11 -41t-29.5 -28t-39.5 -10zM225 0v1116h69v-1116h-69z" />
<glyph unicode="j" horiz-adv-x="517" d="M225 -229v1345h69v-1354q0 -160 -56.5 -234t-172.5 -74q-68 0 -135 27l19 62q75 -24 121 -24q38 0 66 12.5t45 34t27 54.5t13.5 68.5t3.5 82.5zM261 1401q-32 0 -55.5 22t-23.5 57q0 37 23 58.5t56 21.5q16 0 30.5 -5.5t25.5 -15.5t17.5 -25.5t6.5 -33.5q0 -23 -11 -41 t-29.5 -28t-39.5 -10z" />
<glyph unicode="k" horiz-adv-x="1054" d="M225 0v1686h69v-1280h5l579 710h84l-360 -439l425 -677h-80l-386 621l-267 -313v-308h-69z" />
<glyph unicode="l" horiz-adv-x="536" d="M225 121v1565h69v-1579q0 -23 6 -38.5t16 -23t25 -7.5q19 0 42 4l14 -60q-41 -10 -61 -10q-111 0 -111 149z" />
<glyph unicode="m" horiz-adv-x="1880" d="M225 0v1116h60l9 -178h5q81 93 174.5 150t179.5 57q246 0 309 -234q103 114 197.5 174t185.5 60q166 0 248.5 -105t82.5 -321v-719h-70v710q0 187 -64.5 277.5t-200.5 90.5q-83 0 -170 -55t-186 -168v-855h-70v710q0 187 -65 277.5t-201 90.5q-159 0 -355 -223v-855h-69z " />
<glyph unicode="n" horiz-adv-x="1227" d="M225 0v1116h60l9 -178h5q48 48 89 82t89.5 64t101 45.5t107.5 15.5q172 0 254.5 -104t82.5 -322v-719h-70v710q0 126 -28 206.5t-88 121t-155 40.5q-101 0 -186.5 -52t-201.5 -171v-855h-69z" />
<glyph unicode="o" horiz-adv-x="1241" d="M127 555q0 110 25.5 205t71.5 164.5t108 119.5t136 75.5t153 25.5q100 0 189.5 -40.5t157.5 -114t108 -186t40 -249.5q0 -108 -26 -202t-72 -163t-108 -119t-135.5 -74.5t-153.5 -24.5q-100 0 -189.5 39.5t-157.5 112.5t-107.5 184.5t-39.5 246.5zM201 555.5 q0 -113.5 32 -210.5t88.5 -164.5t134 -105t166 -37.5t166 37.5t133 105t88 164.5t32.5 210q0 91 -20.5 172.5t-58.5 145t-89.5 110t-116 71t-135.5 24.5q-88 0 -165.5 -38.5t-134 -107t-88.5 -166t-32 -211z" />
<glyph unicode="p" horiz-adv-x="1259" d="M294 112v-210v-421h-69v1635h60l9 -145h5q217 174 387 174q149 0 250.5 -71.5t149.5 -197.5t48 -301q0 -139 -40 -254t-108 -190.5t-157.5 -117t-188.5 -41.5q-155 0 -346 140zM294 192q96 -79 187 -116.5t163 -37.5q90 0 167.5 40t132 110.5t85.5 170.5t31 216 q0 87 -12.5 161.5t-41 138.5t-72 108.5t-107.5 69.5t-145 25q-164 0 -388 -196v-690z" />
<glyph unicode="q" horiz-adv-x="1241" d="M127 555q0 132 39.5 243.5t107.5 186.5t159 117.5t193 42.5q95 0 171 -32.5t165 -99.5h5l9 103h60v-1635h-69v444l4 224q-195 -177 -383 -177q-214 0 -337.5 152t-123.5 431zM201 555q0 -154 45 -270t134 -181.5t213 -65.5q95 0 185 48.5t189 147.5v691 q-94 82 -175.5 117.5t-170.5 35.5q-117 0 -213.5 -70t-151.5 -190t-55 -263z" />
<glyph unicode="r" horiz-adv-x="713" d="M225 0v1116h60l9 -210h5q60 110 140.5 174.5t177.5 64.5q58 0 107 -24l-19 -65q-30 10 -49 14t-50 4q-84 0 -166.5 -72t-145.5 -227v-775h-69z" />
<glyph unicode="s" horiz-adv-x="933" d="M80 127l47 55q81 -69 164.5 -106.5t198.5 -37.5q134 0 209.5 68.5t75.5 169.5q0 36 -11 67.5t-33 56.5t-46.5 44.5t-59.5 37.5t-63.5 29.5t-66.5 25.5h-1q-50 18 -75.5 27.5t-71 28.5t-70 34.5t-57 40.5t-49 51t-28.5 61t-12 75q0 58 23 110t66 92.5t110.5 64t150.5 23.5 q54 0 111 -15t106.5 -40t90.5 -58l-42 -56q-67 49 -129 75.5t-141 26.5q-68 0 -121.5 -18.5t-85.5 -50t-48.5 -69.5t-16.5 -80q0 -29 9 -54t20.5 -43.5t35.5 -37.5t42 -31t52 -27t54 -23t59 -23q13 -5 41 -15q47 -18 71.5 -27t66 -28.5t63.5 -35t51 -41t43.5 -52t25 -63 t10.5 -79.5q0 -61 -24 -116.5t-69 -98.5t-115 -68t-155 -25q-118 0 -222 42.5t-184 112.5z" />
<glyph unicode="t" horiz-adv-x="704" d="M247 294v757h-177v56l177 9l9 327h62v-327h331v-65h-331v-766q0 -59 8 -100.5t28.5 -76.5t60.5 -52.5t99 -17.5q58 0 145 37l23 -61q-120 -42 -174 -42q-75 0 -127 22.5t-80.5 67t-41 100.5t-12.5 132z" />
<glyph unicode="u" horiz-adv-x="1223" d="M205 397v719h71v-710q0 -188 64 -278t206 -90q102 0 188 56t195 186v836h71v-1116h-62l-9 192h-4q-92 -107 -183.5 -163.5t-199.5 -56.5q-172 0 -254.5 104t-82.5 321z" />
<glyph unicode="v" horiz-adv-x="984" d="M453 0l-425 1116h79l267 -724q57 -163 116 -317h9q73 189 118 317l265 724h76l-421 -1116h-84z" />
<glyph unicode="w" horiz-adv-x="1568" d="M392 0l-336 1116h80l214 -752q7 -24 26.5 -92.5t31 -113t22.5 -88.5h9q60 205 84 294l215 752h98l215 -752q49 -177 83 -294h11q34 117 83 294l211 752h74l-327 -1116h-98l-210 728q-17 54 -45 159.5t-44 159.5h-9q-62 -233 -94 -323l-205 -724h-89z" />
<glyph unicode="x" horiz-adv-x="914" d="M33 0l383 584l-351 532h80l191 -299q54 -86 121 -182h10q21 30 60.5 91t60.5 91l187 299h74l-350 -537l383 -579h-78l-211 323q-64 106 -136 205h-9q-20 -29 -43 -64t-49 -75t-44 -66l-205 -323h-74z" />
<glyph unicode="y" horiz-adv-x="989" d="M65 -430q46 -18 93 -18q101 0 176 85.5t123 231.5l33 103l-462 1144h79l285 -733q11 -28 37.5 -95t48.5 -121t41 -97h9q21 56 58.5 169t48.5 144l252 733h75l-448 -1274q-18 -56 -40.5 -105t-55.5 -97t-70.5 -82t-88 -55.5t-105.5 -21.5q-57 0 -107 24z" />
<glyph unicode="z" horiz-adv-x="924" d="M60 0v38l687 1013h-611v65h704v-38l-686 -1013h710v-65h-804z" />
<glyph unicode="{" horiz-adv-x="629" d="M514 -303h74v-52h-69q-66 0 -111 13.5t-78 46t-48.5 90.5t-15.5 145q0 88 9.5 249t9.5 241q0 191 -201 191v56q201 0 201 187q0 83 -9.5 245.5t-9.5 249.5t15.5 144.5t48.5 90t78 46t111 13.5h69v-51h-74q-37 0 -65.5 -7t-49 -21.5t-34.5 -34.5t-22.5 -49.5t-12 -63 t-3.5 -76.5q0 -75 7 -222t7 -237q0 -104 -24 -160.5t-88 -77.5v-9q63 -20 87.5 -78t24.5 -160q0 -89 -7 -236t-7 -221q0 -133 40 -192.5t147 -59.5z" />
<glyph unicode="|" horiz-adv-x="513" d="M225 -584v2335h65v-2335h-65z" />
<glyph unicode="}" horiz-adv-x="629" d="M42 -303h74q108 0 147.5 59.5t39.5 192.5q0 74 -6.5 221t-6.5 236q0 102 24 160t87 78v9q-63 21 -87 77.5t-24 160.5q0 90 6.5 237t6.5 222q0 132 -39.5 192t-147.5 60h-74v51h70q66 0 110.5 -13t77.5 -46t48.5 -90.5t15.5 -144.5t-9.5 -249.5t-9.5 -245.5 q0 -187 201 -187v-56q-201 0 -201 -191q0 -80 9.5 -241t9.5 -249q0 -87 -15.5 -144.5t-48.5 -90.5t-77.5 -46.5t-110.5 -13.5h-70v52z" />
<glyph unicode="~" horiz-adv-x="1101" d="M149 695l-51 29q44 92 108.5 139.5t134.5 47.5q49 0 98.5 -22.5t90 -54t79 -63t79.5 -54t78 -22.5q55 0 101 34.5t86 115.5l51 -32q-44 -88 -109 -135.5t-133 -47.5q-42 0 -84 16t-75.5 40t-69.5 51.5t-66 51.5t-64.5 40t-66.5 16q-55 0 -101 -34.5t-86 -115.5z" />
<glyph unicode="&#xa1;" horiz-adv-x="577" d="M318 715l9 -1018v-145h-75v145l9 1018h57zM374 1056q0 -18 -5 -33t-13 -26t-18.5 -19t-23 -12t-24.5 -4q-34 0 -59.5 25.5t-25.5 68.5q0 26 12.5 47t31.5 31.5t41 10.5q33 0 58.5 -24.5t25.5 -64.5z" />
<glyph unicode="&#xa2;" horiz-adv-x="1101" d="M588 263v927q-160 -20 -264 -146.5t-104 -315.5q0 -193 100 -319t268 -146zM958 392l42 -47q-163 -146 -347 -149v-256h-65v258q-77 7 -144.5 33.5t-122.5 72t-94 107.5t-60.5 143t-21.5 174q0 118 35 215t96 162t140.5 104.5t171.5 49.5v263h65v-261q101 -2 176.5 -40 t141.5 -100l-42 -47q-127 119 -276 122v-935q162 3 305 131z" />
<glyph unicode="&#xa3;" horiz-adv-x="1101" d="M276 65h700v-65h-840v42q85 50 142 126.5t81 160.5t24 179q0 81 -24 183h-232v60l153 6h61q-5 16 -26 89t-28.5 102.5t-16.5 84.5t-9 101q0 180 102.5 284t280.5 104q202 0 327 -163l-51 -47q-55 68 -122 106.5t-158 38.5q-74 0 -132.5 -25t-95.5 -69t-56.5 -101 t-19.5 -123q0 -47 9 -100.5t18.5 -89t28 -99t26.5 -93.5h390v-66h-376q21 -84 21 -183q0 -146 -44 -246.5t-133 -186.5v-10z" />
<glyph unicode="&#xa4;" horiz-adv-x="1101" d="M121 276l-46 51l154 159q-89 119 -89 280q0 168 89 287l-154 161l46 51l155 -160q54 52 125 80.5t150 28.5q76 0 147.5 -28.5t127.5 -80.5l154 160l47 -51l-156 -161q91 -122 91 -287q0 -155 -89 -280l154 -159l-47 -51l-154 158q-53 -53 -125.5 -82t-149.5 -29 q-160 0 -277 111zM214 766q0 -82 27 -153.5t73 -120.5t107.5 -76.5t129.5 -27.5t129.5 27.5t107 76.5t72.5 120.5t27 153.5t-27 154t-72.5 122t-107.5 78.5t-129 28.5q-55 0 -105.5 -18t-92 -52t-73 -80.5t-49 -106.5t-17.5 -126z" />
<glyph unicode="&#xa5;" horiz-adv-x="1101" d="M75 1495h79l234 -472q88 -178 158 -323h9q24 46 55 108l58 116t51 99l234 472h74l-415 -800h368v-65h-396v-173h396v-65h-396v-392h-70v392h-393v65h393v173h-393v65h365z" />
<glyph unicode="&#xa6;" horiz-adv-x="513" d="M225 640v1111h65v-1111h-65zM225 519h65v-1103h-65v1103z" />
<glyph unicode="&#xa7;" horiz-adv-x="1101" d="M722 410q48 23 80 44t58 50t38.5 67t12.5 88q0 49 -15 90.5t-40 72t-61 58t-75 47t-84.5 41t-87 38.5t-86 40t-77.5 46q-47 -26 -79 -49t-59.5 -53.5t-41 -69t-13.5 -84.5q0 -54 18.5 -98.5t52.5 -77t75 -59t93 -49.5t99.5 -43t100.5 -46t91 -53zM869 1466l-43 -51 q-65 53 -126.5 80t-144.5 27q-60 0 -106.5 -16.5t-73 -44.5t-39.5 -61t-13 -70q0 -46 18 -85.5t50 -66.5t74 -52.5t89.5 -45t97.5 -42.5t97 -45.5t89 -55t74 -69t50 -89.5t18 -116q0 -57 -14.5 -103.5t-43.5 -81.5t-63 -60.5t-82 -50.5q83 -82 83 -199q0 -79 -46 -144 t-118.5 -100.5t-153.5 -35.5q-208 0 -364 140l51 52q67 -63 137.5 -95t175.5 -32q109 0 178 62t69 148q0 49 -19 89t-51 68.5t-74.5 54.5t-90.5 46t-99 43t-99 45t-91 53.5t-75 68t-50.5 88t-18.5 112.5q0 56 16 103t46.5 84t66 64.5t82.5 54.5q-80 76 -80 189q0 47 18.5 92 t54 84t95.5 62.5t135 23.5q166 0 314 -122z" />
<glyph unicode="&#xa8;" horiz-adv-x="1241" d="M443 1406q-31 0 -52.5 21t-21.5 52.5t21.5 53.5t53 22t53.5 -22t22 -53q0 -21 -10 -38t-27.5 -26.5t-38.5 -9.5zM798 1406q-32 0 -53 21t-21 52.5t21 53.5t53 22t53.5 -22t21.5 -53q0 -21 -10 -38t-27 -26.5t-38 -9.5z" />
<glyph unicode="&#xa9;" horiz-adv-x="1727" d="M121 751q0 137 38.5 259t107.5 214.5t162 160t204 102.5t231 35q100 0 194.5 -25t176.5 -71t150.5 -114.5t117.5 -152.5t76 -188.5t27 -219.5q0 -138 -38.5 -261.5t-107.5 -217t-161 -162t-203.5 -103.5t-231.5 -35t-231 35t-204 103.5t-162 162t-107.5 217t-38.5 261.5z M192 751q0 -126 35 -239t98 -199.5t147 -150t184.5 -96.5t207.5 -33q77 0 150.5 17t140 50.5t125 80t105.5 108t81 132.5t52.5 155.5t18.5 174.5q0 125 -35.5 237t-98.5 197.5t-147 148t-184.5 95t-207.5 32.5q-76 0 -150 -16.5t-140.5 -49.5t-125 -79t-105.5 -107t-81 -131 t-52 -153.5t-18 -173.5zM472 751q0 99 34 182t91 137.5t132 85t158 30.5q85 0 149.5 -32t126.5 -94l-42 -51q-61 55 -115 81t-124 26q-145 0 -238 -100.5t-93 -264.5q0 -180 89.5 -286t237.5 -106q144 0 280 122l38 -51q-37 -34 -66 -55.5t-68.5 -43t-86 -31.5t-102.5 -10 q-81 0 -153 31t-127.5 88.5t-88 146t-32.5 195.5z" />
<glyph unicode="&#xaa;" horiz-adv-x="779" d="M327 612q-101 0 -162.5 55.5t-61.5 154.5q0 121 115.5 186t369.5 90q0 40 -4 72.5t-15.5 62t-30 49.5t-48.5 32t-69 12q-67 0 -140 -28t-118 -61l-27 51q57 39 133 69t156 30q65 0 110.5 -20t70.5 -59.5t36 -89t11 -116.5v-472h-51l-14 94h-9q-130 -112 -252 -112z M341 673q120 0 247 120v254q-151 -17 -244 -48t-132 -73t-39 -100q0 -78 44 -115.5t124 -37.5z" />
<glyph unicode="&#xab;" horiz-adv-x="905" d="M421 173l-323 382v66l323 383l46 -42l-289 -374l289 -378zM733 173l-323 382v66l323 383l47 -42l-290 -374l290 -378z" />
<glyph unicode="&#xac;" horiz-adv-x="1101" d="M80 738v66h943v-543h-76v477h-867z" />
<glyph unicode="&#xad;" horiz-adv-x="686" d="M93 546v71h504v-71h-504z" />
<glyph unicode="&#xae;" horiz-adv-x="914" d="M457.5 762q-85.5 0 -162.5 32t-134 89.5t-90 142t-33 184t33 185t90 143.5t134 91t162.5 33t162 -33t134 -91t91 -143.5t33.5 -185t-33.5 -184t-91 -142t-134 -89.5t-162 -32zM457 822q73 0 138.5 29t113.5 80t76 123.5t28 155.5q0 110 -48 200t-129.5 141t-178.5 51 t-178 -51t-128.5 -141t-47.5 -200t47.5 -199.5t128.5 -139t178 -49.5zM303 976v485h154q36 0 66 -7t56 -23t41 -46.5t15 -72.5q0 -45 -27.5 -83t-65.5 -48l117 -205h-80l-93 182h-117v-182h-66zM369 1219h70q126 0 126 89q0 44 -27 68.5t-90 24.5h-79v-182z" />
<glyph unicode="&#xaf;" horiz-adv-x="1241" d="M364 1419v66h514v-66h-514z" />
<glyph unicode="&#xb0;" horiz-adv-x="709" d="M355 1060q-67 0 -125 31t-95 92.5t-37 142.5q0 83 37 146t95 94t125 31t124.5 -31t95 -94t37.5 -146q0 -61 -21.5 -112t-58 -84t-82.5 -51.5t-95 -18.5zM354.5 1121q83.5 0 137.5 58.5t54 146.5q0 91 -54 151t-137 60q-55 0 -99 -27.5t-68.5 -75.5t-24.5 -108 q0 -88 54 -146.5t137.5 -58.5z" />
<glyph unicode="&#xb1;" horiz-adv-x="1101" d="M514 238v490h-434v65h434v486h74v-486h435v-65h-435v-490h-74zM80 0v65h943v-65h-943z" />
<glyph unicode="&#xb2;" horiz-adv-x="840" d="M136 1027v47q90 85 146.5 140t114 115t89.5 101.5t59 85.5t37.5 82t10.5 78q0 105 -57.5 167t-152.5 62q-43 0 -85 -21t-75 -53.5t-60 -74.5l-47 42q41 70 116 118.5t156 48.5q126 0 200.5 -72t74.5 -211q0 -31 -6 -62t-14.5 -58t-27.5 -59.5t-34 -56.5t-46 -60.5 t-51 -59.5t-61.5 -65t-65.5 -65.5t-73 -72.5q-24 -23 -37 -35h472v-61h-583z" />
<glyph unicode="&#xb3;" horiz-adv-x="840" d="M98 1172l56 42q43 -69 113.5 -111.5t148.5 -42.5q95 0 159.5 55.5t64.5 149.5q0 63 -41.5 107.5t-117 66.5t-178.5 22v56q138 0 218.5 60.5t80.5 145.5q0 81 -55.5 131.5t-149.5 50.5q-55 0 -111.5 -34t-103.5 -91l-46 41q48 64 117 104t148 40q116 0 194 -64t78 -173 q0 -83 -50.5 -143.5t-132.5 -89.5q91 -15 155.5 -76t64.5 -154q0 -122 -85 -193.5t-215 -71.5q-98 0 -180 49t-132 123z" />
<glyph unicode="&#xb4;" horiz-adv-x="1241" d="M808 1648l-243 -313h-66l216 313h93z" />
<glyph unicode="&#xb5;" horiz-adv-x="1241" d="M225 -467v1583h69v-710q0 -125 28 -206t88 -121.5t155 -40.5q102 0 187.5 56t194.5 186v836h71v-1116h-60l-11 192h-4q-92 -108 -182.5 -164t-199.5 -56q-97 0 -161 30t-110 110l4 -210v-369h-69z" />
<glyph unicode="&#xb6;" horiz-adv-x="1161" d="M864 -187v1728h74v-1728h-74zM677 584q-106 0 -193 16t-159.5 52t-122 91t-77 135t-27.5 182q0 85 17.5 155.5t51 123t80.5 91.5t107.5 63.5t130 36t150.5 11.5h103v-957h-61z" />
<glyph unicode="&#xb7;" horiz-adv-x="484" d="M158 751q0 43 25.5 68.5t59.5 25.5t59 -25.5t25 -68.5q0 -27 -12.5 -47t-31.5 -30.5t-40 -10.5q-34 0 -59.5 24t-25.5 64z" />
<glyph unicode="&#xb8;" horiz-adv-x="1241" d="M542 -173l93 178h65l-70 -136q141 -43 141 -159q0 -41 -23 -75.5t-63 -57t-87.5 -37t-102.5 -21.5l-14 60q219 31 219 122q0 28 -11.5 48.5t-35 34.5t-49 23.5t-62.5 19.5z" />
<glyph unicode="&#xb9;" horiz-adv-x="840" d="M416 1027v771h-191v51q119 26 196 89h60v-911h-65z" />
<glyph unicode="&#xba;" horiz-adv-x="835" d="M416 612q-56 0 -106.5 17t-92.5 50t-72.5 79t-47.5 108t-17 134q0 90 26 164t72 122.5t107 74.5t131 26q56 0 106.5 -16t92.5 -49t72.5 -79t47 -108t16.5 -135q0 -89 -26 -163t-71.5 -122.5t-106.5 -75.5t-131 -27zM416 673q78 0 138.5 41.5t94 116t33.5 169.5 q0 147 -73.5 236.5t-192.5 89.5t-193 -90t-74 -236q0 -144 74.5 -235.5t192.5 -91.5z" />
<glyph unicode="&#xbb;" horiz-adv-x="905" d="M127 210l289 378l-289 374l46 42l322 -383v-66l-322 -382zM439 210l289 378l-289 374l47 42l322 -383v-66l-322 -382z" />
<glyph unicode="&#xbc;" horiz-adv-x="1769" d="M434 630h-65v771h-191v51q119 26 196 89h60v-911zM1275 1569h75l-864 -1597h-76zM1134 336h318v219l9 238h-9l-135 -196zM1653 336v-60h-136v-276h-65v276h-411v36l425 599h51v-575h136z" />
<glyph unicode="&#xbd;" horiz-adv-x="1816" d="M369 630v771h-191v51q119 26 196 89h60v-911h-65zM430 -28h-75l864 1597h75zM1112 0v47q90 84 146.5 139.5t114 115t89.5 101t59 86t37.5 82.5t10.5 78q0 41 -10 77t-28 64t-43.5 47.5t-58 30t-70.5 10.5q-43 0 -85 -21.5t-75 -54t-60 -74.5l-47 43q41 70 116 118.5 t155 48.5q83 0 144.5 -30.5t96.5 -95.5t35 -159q0 -30 -6 -61t-14.5 -57.5t-27.5 -59t-33.5 -56t-45.5 -60t-51 -59t-60.5 -64t-64.5 -65.5t-73 -72q-26 -25 -40 -39h472v-60h-583z" />
<glyph unicode="&#xbe;" horiz-adv-x="1816" d="M182 1382l-46 42q48 64 117 104.5t148 40.5q116 0 194 -65t78 -174q0 -83 -50.5 -142.5t-132.5 -89.5q91 -15 155.5 -76t64.5 -153q0 -82 -40 -143.5t-107.5 -92.5t-152.5 -31q-66 0 -129 25.5t-107 63t-76 84.5l56 42q43 -68 113.5 -111t148.5 -43q95 0 159.5 55.5 t64.5 150.5q0 62 -41.5 106.5t-117 67t-178.5 22.5v56q138 0 218.5 60t80.5 145q0 53 -24.5 94.5t-71.5 64.5t-109 23q-55 0 -111.5 -34t-103.5 -92zM1392 1569h74l-864 -1597h-74zM1181 336h318v219l9 238h-9l-136 -196zM1700 336v-60h-136v-276h-65v276h-411v36l425 599 h51v-575h136z" />
<glyph unicode="&#xbf;" horiz-adv-x="918" d="M537 715q10 -81 -3 -155t-42.5 -132t-67.5 -112.5t-78 -105.5t-73.5 -101t-55 -109.5t-21.5 -120.5q0 -58 16.5 -108.5t49.5 -91.5t88.5 -65t126.5 -24q58 0 114.5 17.5t107 52.5t90.5 84l47 -43q-162 -178 -364 -178q-109 0 -190 48t-121 126.5t-40 175.5q0 65 22 128.5 t56 116t75 106t79.5 108t69 111.5t44.5 127t5 145h65zM579 1056q0 -22 -7 -40t-19 -29.5t-27 -18t-31 -6.5q-34 0 -59.5 25.5t-25.5 68.5q0 40 25.5 64.5t59 24.5t59 -24.5t25.5 -64.5z" />
<glyph unicode="&#xc0;" horiz-adv-x="1212" d="M682 1658h-70l-253 242h104zM315 617h581l-107 308q-125 359 -177 536h-10q-52 -177 -177 -536zM1112 0l-192 551h-628l-194 -551h-75l552 1541h65l550 -1541h-78z" />
<glyph unicode="&#xc1;" horiz-adv-x="1212" d="M855 1900l-253 -242h-70l219 242h104zM315 617h581l-107 308q-125 359 -177 536h-10q-52 -177 -177 -536zM1112 0l-192 551h-628l-194 -551h-75l552 1541h65l550 -1541h-78z" />
<glyph unicode="&#xc2;" horiz-adv-x="1212" d="M602 1831l-181 -173h-71l225 242h65l224 -242h-71l-181 173h-10zM315 617h581l-107 308q-125 359 -177 536h-10q-52 -177 -177 -536zM1112 0l-192 551h-628l-194 -551h-75l552 1541h65l550 -1541h-78z" />
<glyph unicode="&#xc3;" horiz-adv-x="1212" d="M845 1878h51q-2 -36 -12 -70t-28 -64.5t-47.5 -49t-66.5 -18.5q-33 0 -64.5 14t-56.5 34t-48.5 40t-51 33.5t-54.5 13.5q-38 0 -64.5 -37.5t-33.5 -97.5h-51q2 35 12 69t28 64.5t47.5 49.5t66.5 19q28 0 55.5 -10.5t48 -25.5t42.5 -32.5t40.5 -32.5t42 -25t46.5 -10 q25 0 46 17t34 48t18 71zM315 617h581l-107 308q-125 359 -177 536h-10q-52 -177 -177 -536zM1112 0l-192 551h-628l-194 -551h-75l552 1541h65l550 -1541h-78z" />
<glyph unicode="&#xc4;" horiz-adv-x="1212" d="M784.5 1700q-32.5 0 -53.5 20t-21 54t21 54.5t53.5 20.5t54 -20.5t21.5 -54.5t-21.5 -54t-54 -20zM430 1700q-16 0 -29.5 5t-24 14.5t-16 23.5t-5.5 31q0 34 21 54.5t53.5 20.5t53.5 -20.5t21 -54.5t-21 -54t-53 -20zM315 617h581l-107 308q-125 359 -177 536h-10 q-52 -177 -177 -536zM1112 0l-192 551h-628l-194 -551h-75l552 1541h65l550 -1541h-78z" />
<glyph unicode="&#xc5;" horiz-adv-x="1212" d="M606 1956q-53 0 -89 -37t-36 -98q0 -33 10 -59t27 -42.5t39.5 -25t48.5 -8.5q52 0 87 35.5t35 99.5q0 61 -35.5 98t-86.5 37zM606 1635q-78 0 -129.5 51.5t-51.5 134t52 135t129 52.5q76 0 129.5 -53t53.5 -134.5t-53.5 -133.5t-129.5 -52zM315 617h581l-107 308 q-125 359 -177 536h-10q-52 -177 -177 -536zM1112 0l-192 551h-628l-194 -551h-75l552 1541h65l550 -1541h-78z" />
<glyph unicode="&#xc6;" horiz-adv-x="1876" d="M474 593h493v878h-9q-247 -448 -305 -556zM1041 65h728v-65h-802v528h-530l-297 -528h-80l869 1541h817v-66h-705v-620h583v-66h-583v-724z" />
<glyph unicode="&#xc7;" horiz-adv-x="1311" d="M1172 238l47 -46q-82 -96 -176 -151.5t-214 -66.5l-54 -105q140 -43 140 -159q0 -41 -22.5 -75.5t-62.5 -57t-87.5 -37t-102.5 -21.5l-14 60q219 31 219 122q0 22 -8.5 40t-21.5 30.5t-35 23t-43 17.5t-51 15l78 145q-141 0 -258.5 58.5t-200 162.5t-128.5 253.5 t-46 328.5q0 180 46.5 328.5t130.5 251t205 158.5t267 56q64 0 124 -15t109 -41t88 -57.5t71 -68.5l-47 -52q-141 164 -345 164q-176 0 -305 -88t-197 -251.5t-68 -384t67.5 -386.5t195 -256.5t298.5 -90.5q120 0 216 48t185 148z" />
<glyph unicode="&#xc8;" horiz-adv-x="1190" d="M234 0v1541h826v-66h-752v-620h630v-66h-630v-724h775v-65h-849zM661 1658l-253 242h104l219 -242h-70z" />
<glyph unicode="&#xc9;" horiz-adv-x="1190" d="M234 0v1541h826v-66h-752v-620h630v-66h-630v-724h775v-65h-849zM904 1900l-253 -242h-70l219 242h104z" />
<glyph unicode="&#xca;" horiz-adv-x="1190" d="M234 0v1541h826v-66h-752v-620h630v-66h-630v-724h775v-65h-849zM470 1658h-71l225 242h65l224 -242h-71l-181 173h-10z" />
<glyph unicode="&#xcb;" horiz-adv-x="1190" d="M234 0v1541h826v-66h-752v-620h630v-66h-630v-724h775v-65h-849zM478.5 1700q-32.5 0 -53.5 20t-21 54t21 54.5t53.5 20.5t53.5 -20.5t21 -54.5t-21 -54t-53.5 -20zM833 1700q-32 0 -53 20t-21 54t21 54.5t53.5 20.5t54 -20.5t21.5 -54.5q0 -23 -10.5 -40t-27 -25.5 t-38.5 -8.5z" />
<glyph unicode="&#xcc;" horiz-adv-x="541" d="M234 0v1541h74v-1541h-74zM276 1658l-253 242h104l218 -242h-69z" />
<glyph unicode="&#xcd;" horiz-adv-x="541" d="M234 0v1541h74v-1541h-74zM519 1900l-253 -242h-70l220 242h103z" />
<glyph unicode="&#xce;" horiz-adv-x="541" d="M234 0v1541h74v-1541h-74zM84 1658h-70l224 242h65l225 -242h-71l-181 173h-10z" />
<glyph unicode="&#xcf;" horiz-adv-x="541" d="M234 0v1541h74v-1541h-74zM93.5 1700q-32.5 0 -54 20t-21.5 54t21.5 54.5t54 20.5t53.5 -20.5t21 -54.5t-21 -54t-53.5 -20zM448 1700q-21 0 -38 8.5t-26.5 25.5t-9.5 40q0 34 21 54.5t53 20.5q21 0 38 -9t27 -26t10 -40q0 -34 -21 -54t-54 -20z" />
<glyph unicode="&#xd0;" horiz-adv-x="1446" d="M355 65h262q129 0 232.5 35t175.5 98t120 152t70 195t22 230q0 103 -15.5 193t-47.5 169t-83 140.5t-118.5 106t-157.5 68t-198 23.5h-262v-626h392v-65h-392v-719zM280 1541h346q141 0 254.5 -36t194.5 -102t135.5 -161t80.5 -211.5t26 -255.5t-26 -256.5t-80.5 -213.5 t-135.5 -163.5t-195 -104.5t-254 -37h-346v784h-191v61l191 4v692z" />
<glyph unicode="&#xd1;" horiz-adv-x="1475" d="M234 0v1541h78l682 -1131l178 -303h9q-9 299 -9 435v999h71v-1541h-80l-682 1130l-178 303h-9q9 -290 9 -420v-1013h-69zM885 1676q-34 0 -65.5 14t-56 34t-48.5 40t-51 33.5t-54 13.5q-38 0 -64.5 -37.5t-33.5 -97.5h-53q3 48 19 92t52 77t84 33q34 0 65.5 -14t56.5 -34 t48.5 -40t50.5 -34t54 -14q38 0 64.5 37.5t33.5 98.5h52q-2 -28 -8.5 -55.5t-19 -54t-29.5 -47t-42.5 -33t-54.5 -12.5z" />
<glyph unicode="&#xd2;" horiz-adv-x="1512" d="M757 -28q-135 0 -251 57.5t-198.5 161t-129.5 254.5t-47 330t47 328.5t129.5 251t198 158t251 56.5t251 -56.5t198 -158t129.5 -251t47 -328.5t-47 -330t-129.5 -254.5t-198 -161t-250.5 -57.5zM757 42q162 0 286 90.5t192 257t68 385.5t-68 383.5t-191.5 252.5 t-286.5 88t-286.5 -88t-192 -252.5t-68.5 -383.5t68 -385.5t192.5 -257t286.5 -90.5zM762 1658l-254 242h104l219 -242h-69z" />
<glyph unicode="&#xd3;" horiz-adv-x="1512" d="M757 -28q-135 0 -251 57.5t-198.5 161t-129.5 254.5t-47 330t47 328.5t129.5 251t198 158t251 56.5t251 -56.5t198 -158t129.5 -251t47 -328.5t-47 -330t-129.5 -254.5t-198 -161t-250.5 -57.5zM757 42q162 0 286 90.5t192 257t68 385.5t-68 383.5t-191.5 252.5 t-286.5 88t-286.5 -88t-192 -252.5t-68.5 -383.5t68 -385.5t192.5 -257t286.5 -90.5zM1004 1900l-253 -242h-69l220 242h102z" />
<glyph unicode="&#xd4;" horiz-adv-x="1512" d="M757 -28q-135 0 -251 57.5t-198.5 161t-129.5 254.5t-47 330t47 328.5t129.5 251t198 158t251 56.5t251 -56.5t198 -158t129.5 -251t47 -328.5t-47 -330t-129.5 -254.5t-198 -161t-250.5 -57.5zM757 42q162 0 286 90.5t192 257t68 385.5t-68 383.5t-191.5 252.5 t-286.5 88t-286.5 -88t-192 -252.5t-68.5 -383.5t68 -385.5t192.5 -257t286.5 -90.5zM570 1658h-71l225 242h65l224 -242h-70l-181 173h-11z" />
<glyph unicode="&#xd5;" horiz-adv-x="1512" d="M757 -28q-135 0 -251 57.5t-198.5 161t-129.5 254.5t-47 330t47 328.5t129.5 251t198 158t251 56.5t251 -56.5t198 -158t129.5 -251t47 -328.5t-47 -330t-129.5 -254.5t-198 -161t-250.5 -57.5zM757 42q162 0 286 90.5t192 257t68 385.5t-68 383.5t-191.5 252.5 t-286.5 88t-286.5 -88t-192 -252.5t-68.5 -383.5t68 -385.5t192.5 -257t286.5 -90.5zM891 1676q-33 0 -64.5 14t-56.5 34t-48.5 40t-50.5 33.5t-54 13.5q-38 0 -64.5 -37.5t-33.5 -97.5h-52q2 35 12 69t28 64.5t48 49.5t66 19q34 0 65.5 -14t56 -34t48.5 -40t51 -34t54 -14 q38 0 64.5 37.5t33.5 98.5h53q-3 -48 -19.5 -92.5t-52 -77t-84.5 -32.5z" />
<glyph unicode="&#xd6;" horiz-adv-x="1512" d="M757 -28q-135 0 -251 57.5t-198.5 161t-129.5 254.5t-47 330t47 328.5t129.5 251t198 158t251 56.5t251 -56.5t198 -158t129.5 -251t47 -328.5t-47 -330t-129.5 -254.5t-198 -161t-250.5 -57.5zM757 42q162 0 286 90.5t192 257t68 385.5t-68 383.5t-191.5 252.5 t-286.5 88t-286.5 -88t-192 -252.5t-68.5 -383.5t68 -385.5t192.5 -257t286.5 -90.5zM579.5 1700q-32.5 0 -54 20t-21.5 54t21.5 54.5t53.5 20.5q21 0 38 -9t26.5 -26t9.5 -40q0 -34 -20.5 -54t-53 -20zM934 1700q-33 0 -53.5 20t-20.5 54q0 14 3.5 26t10 21t15.5 15 t20.5 9.5t24.5 3.5q32 0 53.5 -20.5t21.5 -54.5q0 -23 -10 -40t-27 -25.5t-38 -8.5z" />
<glyph unicode="&#xd7;" horiz-adv-x="1101" d="M168 323l-47 51l383 397l-383 396l47 52l383 -402l383 402l46 -52l-383 -396l383 -397l-46 -51l-383 401z" />
<glyph unicode="&#xd8;" horiz-adv-x="1512" d="M1174 1286l-789 -1064q49 -57 107.5 -97t128 -61.5t145.5 -21.5q162 0 286 90.5t192 257t68 385.5q0 313 -138 511zM345 276l787 1062q-143 161 -366 161q-163 0 -286.5 -88t-191.5 -252.5t-68 -383.5q0 -300 125 -499zM1368 1550l-149 -200q83 -106 128 -251.5 t45 -323.5q0 -179 -47 -330t-129.5 -254.5t-198.5 -161t-251 -57.5q-125 0 -233.5 48.5t-191.5 140.5l-154 -208l-51 38l163 221q-159 222 -159 563q0 179 47 328.5t129.5 251t198.5 158t251 56.5q120 0 225 -44t185 -126l141 189z" />
<glyph unicode="&#xd9;" horiz-adv-x="1470" d="M229 575v966h74v-948q0 -124 23.5 -220.5t63 -157.5t95.5 -101t116.5 -56t131.5 -16q72 0 134 16t119.5 56t97.5 101t64 157.5t24 220.5v948h71v-966q0 -88 -12 -163t-33.5 -132.5t-50.5 -105t-66.5 -80.5t-77.5 -57t-86 -38t-91 -20.5t-93 -6.5q-55 0 -106 8t-102 28 t-94 50.5t-81 78.5t-64.5 109.5t-41.5 145t-15 183.5zM740 1658l-252 242h103l220 -242h-71z" />
<glyph unicode="&#xda;" horiz-adv-x="1470" d="M229 575v966h74v-948q0 -124 23.5 -220.5t63 -157.5t95.5 -101t116.5 -56t131.5 -16q72 0 134 16t119.5 56t97.5 101t64 157.5t24 220.5v948h71v-966q0 -88 -12 -163t-33.5 -132.5t-50.5 -105t-66.5 -80.5t-77.5 -57t-86 -38t-91 -20.5t-93 -6.5q-55 0 -106 8t-102 28 t-94 50.5t-81 78.5t-64.5 109.5t-41.5 145t-15 183.5zM983 1900l-252 -242h-70l219 242h103z" />
<glyph unicode="&#xdb;" horiz-adv-x="1470" d="M229 575v966h74v-948q0 -124 23.5 -220.5t63 -157.5t95.5 -101t116.5 -56t131.5 -16q72 0 134 16t119.5 56t97.5 101t64 157.5t24 220.5v948h71v-966q0 -88 -12 -163t-33.5 -132.5t-50.5 -105t-66.5 -80.5t-77.5 -57t-86 -38t-91 -20.5t-93 -6.5q-55 0 -106 8t-102 28 t-94 50.5t-81 78.5t-64.5 109.5t-41.5 145t-15 183.5zM548 1658h-69l223 242h66l224 -242h-70l-182 173h-9z" />
<glyph unicode="&#xdc;" horiz-adv-x="1470" d="M229 575v966h74v-948q0 -124 23.5 -220.5t63 -157.5t95.5 -101t116.5 -56t131.5 -16q72 0 134 16t119.5 56t97.5 101t64 157.5t24 220.5v948h71v-966q0 -88 -12 -163t-33.5 -132.5t-50.5 -105t-66.5 -80.5t-77.5 -57t-86 -38t-91 -20.5t-93 -6.5q-55 0 -106 8t-102 28 t-94 50.5t-81 78.5t-64.5 109.5t-41.5 145t-15 183.5zM557.5 1700q-21.5 0 -38 8.5t-26.5 25.5t-10 40q0 34 21 54.5t53.5 20.5t54 -20.5t21.5 -54.5q0 -23 -10 -40t-27 -25.5t-38.5 -8.5zM913 1700q-21 0 -38 8.5t-27 25.5t-10 40q0 17 6 31.5t16 24t23.5 14.5t29.5 5 q32 0 53 -20.5t21 -54.5t-20.5 -54t-53.5 -20z" />
<glyph unicode="&#xdd;" horiz-adv-x="1016" d="M472 0v635l-463 906h80l247 -500q138 -275 168 -331h10q10 19 35 64.5t38 70t33 62t36 70t30 64.5l248 500h75l-463 -906v-635h-74zM757 1900l-253 -242h-70l219 242h104z" />
<glyph unicode="&#xde;" horiz-adv-x="1297" d="M234 0v1541h74v-280h327q133 0 231 -23t168.5 -72t106 -130.5t35.5 -195.5q0 -145 -63.5 -244t-183.5 -147t-294 -48h-327v-401h-74zM308 467h298q253 0 372.5 88.5t119.5 284.5q0 81 -19.5 141t-57.5 101.5t-98.5 66.5t-137 36t-179.5 11h-298v-729z" />
<glyph unicode="&#xdf;" horiz-adv-x="1236" d="M225 0v1256q0 211 103 332t274 121q138 0 221 -85.5t83 -217.5q0 -50 -13 -95.5t-34 -81t-46.5 -69.5t-51 -66t-46.5 -64t-34 -70t-13 -78q0 -45 17 -81.5t46 -62.5t66.5 -48t79 -42t82.5 -41.5t78.5 -50.5t66.5 -64.5t46 -87t17 -114.5q0 -137 -93 -227.5t-234 -90.5 q-175 0 -312 121l42 56q46 -38 87.5 -62t86.5 -36.5t96 -12.5q61 0 110 20.5t79.5 55.5t46.5 79t16 92q0 50 -14 91.5t-38 70t-56 54.5t-68 44t-73.5 38t-73.5 38t-68 43.5t-56 54t-38 69.5t-14 90q0 47 13 90.5t34 78t46.5 67.5t51 65t46.5 65t34 73.5t13 83.5 q0 109 -61 176t-173 67q-141 0 -222 -105t-81 -316v-1223h-69z" />
<glyph unicode="&#xe0;" horiz-adv-x="1152" d="M158 274q0 184 174.5 281.5t558.5 139.5q2 60 -3.5 111t-23.5 102.5t-48 88t-81 59t-118 22.5q-107 0 -203 -41t-162 -94l-38 57q32 23 69.5 44.5t90.5 46t118 39.5t129 15q76 0 135.5 -22.5t97.5 -61t63 -93t35 -114.5t10 -130v-724h-60l-11 149h-4q-221 -177 -406 -177 q-67 0 -124 17.5t-102 53t-71 95t-26 136.5zM234 276q0 -63 20 -110t55.5 -74.5t79.5 -40.5t97 -13q98 0 193.5 46.5t211.5 144.5v406q-242 -28 -388 -76.5t-207.5 -116.5t-61.5 -166zM663 1335l-242 313h93l214 -313h-65z" />
<glyph unicode="&#xe1;" horiz-adv-x="1152" d="M158 274q0 184 174.5 281.5t558.5 139.5q2 60 -3.5 111t-23.5 102.5t-48 88t-81 59t-118 22.5q-107 0 -203 -41t-162 -94l-38 57q32 23 69.5 44.5t90.5 46t118 39.5t129 15q76 0 135.5 -22.5t97.5 -61t63 -93t35 -114.5t10 -130v-724h-60l-11 149h-4q-221 -177 -406 -177 q-67 0 -124 17.5t-102 53t-71 95t-26 136.5zM234 276q0 -63 20 -110t55.5 -74.5t79.5 -40.5t97 -13q98 0 193.5 46.5t211.5 144.5v406q-242 -28 -388 -76.5t-207.5 -116.5t-61.5 -166zM793 1648l-242 -313h-65l214 313h93z" />
<glyph unicode="&#xe2;" horiz-adv-x="1152" d="M158 274q0 184 174.5 281.5t558.5 139.5q2 60 -3.5 111t-23.5 102.5t-48 88t-81 59t-118 22.5q-107 0 -203 -41t-162 -94l-38 57q32 23 69.5 44.5t90.5 46t118 39.5t129 15q76 0 135.5 -22.5t97.5 -61t63 -93t35 -114.5t10 -130v-724h-60l-11 149h-4q-221 -177 -406 -177 q-67 0 -124 17.5t-102 53t-71 95t-26 136.5zM234 276q0 -63 20 -110t55.5 -74.5t79.5 -40.5t97 -13q98 0 193.5 46.5t211.5 144.5v406q-242 -28 -388 -76.5t-207.5 -116.5t-61.5 -166zM355 1335l220 313h65l220 -313h-67l-181 238h-10l-181 -238h-66z" />
<glyph unicode="&#xe3;" horiz-adv-x="1152" d="M158 274q0 184 174.5 281.5t558.5 139.5q2 60 -3.5 111t-23.5 102.5t-48 88t-81 59t-118 22.5q-107 0 -203 -41t-162 -94l-38 57q32 23 69.5 44.5t90.5 46t118 39.5t129 15q76 0 135.5 -22.5t97.5 -61t63 -93t35 -114.5t10 -130v-724h-60l-11 149h-4q-221 -177 -406 -177 q-67 0 -124 17.5t-102 53t-71 95t-26 136.5zM234 276q0 -63 20 -110t55.5 -74.5t79.5 -40.5t97 -13q98 0 193.5 46.5t211.5 144.5v406q-242 -28 -388 -76.5t-207.5 -116.5t-61.5 -166zM332 1359q2 34 10 65.5t24.5 61t46 47t68.5 17.5q31 0 61 -13.5t54.5 -32.5t47 -38.5 t47 -33t47.5 -13.5q74 0 88 131h56q-2 -33 -10 -64.5t-24.5 -61t-46 -47.5t-68.5 -18q-31 0 -60.5 13.5t-53.5 32.5t-46.5 38.5t-47.5 33t-48 13.5q-75 0 -89 -131h-56z" />
<glyph unicode="&#xe4;" horiz-adv-x="1152" d="M158 274q0 184 174.5 281.5t558.5 139.5q2 60 -3.5 111t-23.5 102.5t-48 88t-81 59t-118 22.5q-107 0 -203 -41t-162 -94l-38 57q32 23 69.5 44.5t90.5 46t118 39.5t129 15q76 0 135.5 -22.5t97.5 -61t63 -93t35 -114.5t10 -130v-724h-60l-11 149h-4q-221 -177 -406 -177 q-67 0 -124 17.5t-102 53t-71 95t-26 136.5zM234 276q0 -63 20 -110t55.5 -74.5t79.5 -40.5t97 -13q98 0 193.5 46.5t211.5 144.5v406q-242 -28 -388 -76.5t-207.5 -116.5t-61.5 -166zM430 1406q-21 0 -38.5 9.5t-27 26.5t-9.5 38q0 31 21.5 53t53 22t53 -22t21.5 -53.5 t-21.5 -52.5t-52.5 -21zM784.5 1406q-31.5 0 -53 21t-21.5 52.5t21.5 53.5t52.5 22q21 0 38.5 -10t27.5 -27.5t10 -37.5q0 -32 -22 -53t-53.5 -21z" />
<glyph unicode="&#xe5;" horiz-adv-x="1152" d="M158 274q0 184 174.5 281.5t558.5 139.5q2 60 -3.5 111t-23.5 102.5t-48 88t-81 59t-118 22.5q-107 0 -203 -41t-162 -94l-38 57q32 23 69.5 44.5t90.5 46t118 39.5t129 15q76 0 135.5 -22.5t97.5 -61t63 -93t35 -114.5t10 -130v-724h-60l-11 149h-4q-221 -177 -406 -177 q-67 0 -124 17.5t-102 53t-71 95t-26 136.5zM234 276q0 -63 20 -110t55.5 -74.5t79.5 -40.5t97 -13q98 0 193.5 46.5t211.5 144.5v406q-242 -28 -388 -76.5t-207.5 -116.5t-61.5 -166zM606 1256q-77 0 -129 55t-52 141q0 57 24 102t65.5 69.5t91.5 24.5q78 0 130.5 -54.5 t52.5 -141.5q0 -57 -24 -102t-66 -69.5t-93 -24.5zM606 1308q35 0 64 17t46 50.5t17 76.5q0 65 -36.5 105t-90 40t-89.5 -39.5t-36 -105t36 -105t89 -39.5z" />
<glyph unicode="&#xe6;" horiz-adv-x="1829" d="M234 276q0 -63 20 -110t55.5 -74.5t79.5 -40.5t97 -13q98 0 221.5 62.5t221.5 170.5q-24 51 -37.5 132t-13.5 167v65q-233 -28 -375.5 -76t-205.5 -117t-63 -166zM252 943l-38 57q31 23 68.5 45t89.5 46t113.5 39t120.5 15q137 0 219.5 -79t108.5 -217q60 135 166 215.5 t230 80.5q194 0 303 -134t109 -381q0 -46 -5 -75h-790q-2 -147 52.5 -265.5t150.5 -185t213 -66.5q89 0 159 26t140 76l33 -60q-4 -3 -13 -8q-40 -25 -64 -37.5t-65.5 -30t-89 -25t-104.5 -7.5q-74 0 -137 19.5t-112 56.5t-83.5 74.5t-68.5 87.5q-108 -108 -239.5 -173 t-237.5 -65q-67 0 -124 17.5t-102 53t-71 94t-26 134.5q0 94 43.5 164.5t135 121.5t223.5 84t318 54q1 60 -4.5 111t-23.5 102.5t-48 88t-81.5 59t-118.5 22.5q-98 0 -191 -41t-159 -94zM947 617h724q0 226 -90 343.5t-251 117.5q-72 0 -138.5 -34t-117.5 -94.5 t-84.5 -146.5t-42.5 -186z" />
<glyph unicode="&#xe7;" horiz-adv-x="1040" d="M653 -28l-53 -103q140 -43 140 -159q0 -33 -15.5 -62t-41 -50t-61 -37t-74.5 -26t-83 -16l-15 60q220 31 220 122q0 28 -11.5 48.5t-35 34.5t-48.5 23.5t-63 19.5l76 147q-99 6 -183.5 48.5t-146.5 115.5t-96.5 180.5t-34.5 236.5q0 69 10.5 132.5t30 117.5t47 101t62 84 t74.5 66.5t84.5 48.5t92.5 29.5t98 10.5q104 0 181 -38.5t146 -102.5l-47 -51q-135 125 -280 125q-71 0 -136 -24.5t-117 -71t-91 -110t-60 -145t-21 -172.5q0 -152 52.5 -269.5t149 -182.5t223.5 -65q168 0 312 135l42 -52q-69 -64 -151 -103.5t-176 -45.5z" />
<glyph unicode="&#xe8;" horiz-adv-x="1114" d="M127 555q0 132 40 245t107 187t153 116t179 42q196 0 308.5 -134.5t112.5 -380.5q0 -46 -4 -75h-822q0 -111 31.5 -206.5t88 -164t139 -107.5t180.5 -39q164 0 307 102l33 -60q-42 -26 -68 -40t-71 -32.5t-95.5 -27t-110.5 -8.5q-105 0 -197.5 40.5t-161.5 114 t-109 184.5t-40 244zM201 617h757q0 225 -95 343t-257 118q-75 0 -144.5 -32.5t-124.5 -91t-91.5 -146t-44.5 -191.5zM663 1335l-242 313h93l214 -313h-65z" />
<glyph unicode="&#xe9;" horiz-adv-x="1114" d="M127 555q0 132 40 245t107 187t153 116t179 42q196 0 308.5 -134.5t112.5 -380.5q0 -46 -4 -75h-822q0 -111 31.5 -206.5t88 -164t139 -107.5t180.5 -39q164 0 307 102l33 -60q-42 -26 -68 -40t-71 -32.5t-95.5 -27t-110.5 -8.5q-105 0 -197.5 40.5t-161.5 114 t-109 184.5t-40 244zM201 617h757q0 225 -95 343t-257 118q-75 0 -144.5 -32.5t-124.5 -91t-91.5 -146t-44.5 -191.5zM793 1648l-242 -313h-65l214 313h93z" />
<glyph unicode="&#xea;" horiz-adv-x="1114" d="M127 555q0 132 40 245t107 187t153 116t179 42q196 0 308.5 -134.5t112.5 -380.5q0 -46 -4 -75h-822q0 -111 31.5 -206.5t88 -164t139 -107.5t180.5 -39q164 0 307 102l33 -60q-42 -26 -68 -40t-71 -32.5t-95.5 -27t-110.5 -8.5q-105 0 -197.5 40.5t-161.5 114 t-109 184.5t-40 244zM201 617h757q0 225 -95 343t-257 118q-75 0 -144.5 -32.5t-124.5 -91t-91.5 -146t-44.5 -191.5zM355 1335l220 313h65l220 -313h-67l-181 238h-10l-181 -238h-66z" />
<glyph unicode="&#xeb;" horiz-adv-x="1114" d="M127 555q0 132 40 245t107 187t153 116t179 42q196 0 308.5 -134.5t112.5 -380.5q0 -46 -4 -75h-822q0 -111 31.5 -206.5t88 -164t139 -107.5t180.5 -39q164 0 307 102l33 -60q-42 -26 -68 -40t-71 -32.5t-95.5 -27t-110.5 -8.5q-105 0 -197.5 40.5t-161.5 114 t-109 184.5t-40 244zM201 617h757q0 225 -95 343t-257 118q-75 0 -144.5 -32.5t-124.5 -91t-91.5 -146t-44.5 -191.5zM430 1406q-21 0 -38.5 9.5t-27 26.5t-9.5 38q0 31 21.5 53t53 22t53 -22t21.5 -53.5t-21.5 -52.5t-52.5 -21zM784.5 1406q-31.5 0 -53 21t-21.5 52.5 t21.5 53.5t52.5 22q21 0 38.5 -10t27.5 -27.5t10 -37.5q0 -32 -22 -53t-53.5 -21z" />
<glyph unicode="&#xec;" horiz-adv-x="517" d="M225 0v1116h69v-1116h-69zM315 1335l-243 313h93l216 -313h-66z" />
<glyph unicode="&#xed;" horiz-adv-x="517" d="M225 0v1116h69v-1116h-69zM446 1648l-243 -313h-65l214 313h94z" />
<glyph unicode="&#xee;" horiz-adv-x="517" d="M225 0v1116h69v-1116h-69zM7 1335l220 313h65l220 -313h-66l-183 238h-9l-182 -238h-65z" />
<glyph unicode="&#xef;" horiz-adv-x="517" d="M225 0v1116h69v-1116h-69zM82 1406q-21 0 -38 9.5t-27 26.5t-10 38q0 15 6 29t16 24t24 16t29 6q32 0 53 -22t21 -53.5t-21 -52.5t-53 -21zM437 1406q-32 0 -54 21t-22 53q0 15 6 29t16 24t24 16t30 6q31 0 53 -22t22 -53q0 -21 -10 -38t-27.5 -26.5t-37.5 -9.5z" />
<glyph unicode="&#xf0;" horiz-adv-x="1241" d="M621 38q80 0 144.5 28t109.5 77.5t75.5 119t44.5 149.5t14 172q0 81 -7 151q-46 68 -94.5 114.5t-97 70t-92 33t-92.5 9.5q-98 0 -176.5 -37t-128 -100.5t-75.5 -144.5t-26 -172q0 -101 32 -189t86 -149.5t128 -96.5t155 -35zM1083 1583l-315 -166q150 -152 232.5 -355 t82.5 -478q0 -138 -34 -253t-95 -194t-146.5 -122t-186.5 -43q-91 0 -176.5 37t-152.5 104t-107 170t-40 225q0 151 59.5 269t170.5 184t255 66q211 0 357 -185q-30 175 -100.5 307t-178.5 238l-330 -173l-28 51l311 163q-109 98 -297 207l37 51q191 -105 323 -225l332 174z " />
<glyph unicode="&#xf1;" horiz-adv-x="1227" d="M225 0v1116h60l9 -178h5q48 48 89 82t89.5 64t101 45.5t107.5 15.5q172 0 254.5 -104t82.5 -322v-719h-70v710q0 126 -28 206.5t-88 121t-155 40.5q-101 0 -186.5 -52t-201.5 -171v-855h-69zM376 1359q2 34 10.5 65.5t25 61t46 47t68.5 17.5q30 0 60.5 -13.5t54.5 -32.5 t47 -38.5t47.5 -33t46.5 -13.5q74 0 89 131h56q-2 -33 -10.5 -64.5t-25 -61t-46 -47.5t-68.5 -18q-19 0 -39 5.5t-36 15t-32 21t-30 24t-29 24t-29 21t-30 15t-31 5.5q-74 0 -89 -131h-56z" />
<glyph unicode="&#xf2;" horiz-adv-x="1241" d="M127 555q0 110 25.5 205t71.5 164.5t108 119.5t136 75.5t153 25.5q100 0 189.5 -40.5t157.5 -114t108 -186t40 -249.5q0 -108 -26 -202t-72 -163t-108 -119t-135.5 -74.5t-153.5 -24.5q-100 0 -189.5 39.5t-157.5 112.5t-107.5 184.5t-39.5 246.5zM201 555.5 q0 -113.5 32 -210.5t88.5 -164.5t134 -105t166 -37.5t166 37.5t133 105t88 164.5t32.5 210q0 91 -20.5 172.5t-58.5 145t-89.5 110t-116 71t-135.5 24.5q-88 0 -165.5 -38.5t-134 -107t-88.5 -166t-32 -211zM677 1335l-243 313h94l214 -313h-65z" />
<glyph unicode="&#xf3;" horiz-adv-x="1241" d="M127 555q0 110 25.5 205t71.5 164.5t108 119.5t136 75.5t153 25.5q100 0 189.5 -40.5t157.5 -114t108 -186t40 -249.5q0 -108 -26 -202t-72 -163t-108 -119t-135.5 -74.5t-153.5 -24.5q-100 0 -189.5 39.5t-157.5 112.5t-107.5 184.5t-39.5 246.5zM201 555.5 q0 -113.5 32 -210.5t88.5 -164.5t134 -105t166 -37.5t166 37.5t133 105t88 164.5t32.5 210q0 91 -20.5 172.5t-58.5 145t-89.5 110t-116 71t-135.5 24.5q-88 0 -165.5 -38.5t-134 -107t-88.5 -166t-32 -211zM808 1648l-243 -313h-66l216 313h93z" />
<glyph unicode="&#xf4;" horiz-adv-x="1241" d="M127 555q0 110 25.5 205t71.5 164.5t108 119.5t136 75.5t153 25.5q100 0 189.5 -40.5t157.5 -114t108 -186t40 -249.5q0 -108 -26 -202t-72 -163t-108 -119t-135.5 -74.5t-153.5 -24.5q-100 0 -189.5 39.5t-157.5 112.5t-107.5 184.5t-39.5 246.5zM201 555.5 q0 -113.5 32 -210.5t88.5 -164.5t134 -105t166 -37.5t166 37.5t133 105t88 164.5t32.5 210q0 91 -20.5 172.5t-58.5 145t-89.5 110t-116 71t-135.5 24.5q-88 0 -165.5 -38.5t-134 -107t-88.5 -166t-32 -211zM369 1335l219 313h65l220 -313h-65l-182 238h-9l-183 -238h-65z " />
<glyph unicode="&#xf5;" horiz-adv-x="1241" d="M127 555q0 110 25.5 205t71.5 164.5t108 119.5t136 75.5t153 25.5q100 0 189.5 -40.5t157.5 -114t108 -186t40 -249.5q0 -108 -26 -202t-72 -163t-108 -119t-135.5 -74.5t-153.5 -24.5q-100 0 -189.5 39.5t-157.5 112.5t-107.5 184.5t-39.5 246.5zM201 555.5 q0 -113.5 32 -210.5t88.5 -164.5t134 -105t166 -37.5t166 37.5t133 105t88 164.5t32.5 210q0 91 -20.5 172.5t-58.5 145t-89.5 110t-116 71t-135.5 24.5q-88 0 -165.5 -38.5t-134 -107t-88.5 -166t-32 -211zM345 1359q2 34 10.5 65.5t25 61t46 47t68.5 17.5q31 0 61 -13.5 t54 -32.5t47 -38.5t47.5 -33t46.5 -13.5q74 0 89 131h56q-2 -33 -10.5 -64.5t-24.5 -61t-45.5 -47.5t-68.5 -18q-31 0 -61 13.5t-53.5 32.5t-46 38.5t-47.5 33t-49 13.5q-74 0 -89 -131h-56z" />
<glyph unicode="&#xf6;" horiz-adv-x="1241" d="M127 555q0 110 25.5 205t71.5 164.5t108 119.5t136 75.5t153 25.5q100 0 189.5 -40.5t157.5 -114t108 -186t40 -249.5q0 -108 -26 -202t-72 -163t-108 -119t-135.5 -74.5t-153.5 -24.5q-100 0 -189.5 39.5t-157.5 112.5t-107.5 184.5t-39.5 246.5zM201 555.5 q0 -113.5 32 -210.5t88.5 -164.5t134 -105t166 -37.5t166 37.5t133 105t88 164.5t32.5 210q0 91 -20.5 172.5t-58.5 145t-89.5 110t-116 71t-135.5 24.5q-88 0 -165.5 -38.5t-134 -107t-88.5 -166t-32 -211zM443 1406q-31 0 -52.5 21t-21.5 52.5t21.5 53.5t53 22t53.5 -22 t22 -53q0 -21 -10 -38t-27.5 -26.5t-38.5 -9.5zM798 1406q-32 0 -53 21t-21 52.5t21 53.5t53 22t53.5 -22t21.5 -53q0 -21 -10 -38t-27 -26.5t-38 -9.5z" />
<glyph unicode="&#xf7;" horiz-adv-x="1101" d="M551 1107q-33 0 -53.5 22.5t-20.5 60.5q0 35 21 57.5t53 22.5q15 0 29 -6t24 -16.5t16 -25.5t6 -32q0 -19 -6 -34.5t-16 -26t-24 -16.5t-29 -6zM477 350q0 35 21 57.5t53 22.5t53.5 -22.5t21.5 -57.5q0 -38 -21.5 -61t-53.5 -23q-21 0 -38 10t-26.5 29.5t-9.5 44.5z M80 738v66h943v-66h-943z" />
<glyph unicode="&#xf8;" horiz-adv-x="1241" d="M947 896l-611 -733q119 -125 285 -125q89 0 166.5 37.5t133 105t88 164.5t32.5 210q0 198 -94 341zM294 217l612 734q-117 127 -285 127q-88 0 -165.5 -38.5t-134 -107t-88.5 -166t-32 -211.5q0 -199 93 -338zM1134 1121l-138 -166q120 -156 120 -400q0 -108 -26 -202 t-72 -163t-108 -119t-135.5 -74.5t-153.5 -24.5q-93 0 -178 34.5t-151 100.5l-134 -158l-51 42l140 167q-120 158 -120 397q0 110 25.5 205t71.5 164.5t108 119.5t136 75.5t153 25.5q95 0 180 -35.5t152 -102.5l130 156z" />
<glyph unicode="&#xf9;" horiz-adv-x="1223" d="M205 397v719h71v-710q0 -188 64 -278t206 -90q102 0 188 56t195 186v836h71v-1116h-62l-9 192h-4q-92 -107 -183.5 -163.5t-199.5 -56.5q-172 0 -254.5 104t-82.5 321zM668 1335l-243 313h94l214 -313h-65z" />
<glyph unicode="&#xfa;" horiz-adv-x="1223" d="M205 397v719h71v-710q0 -188 64 -278t206 -90q102 0 188 56t195 186v836h71v-1116h-62l-9 192h-4q-92 -107 -183.5 -163.5t-199.5 -56.5q-172 0 -254.5 104t-82.5 321zM798 1648l-243 -313h-65l215 313h93z" />
<glyph unicode="&#xfb;" horiz-adv-x="1223" d="M205 397v719h71v-710q0 -188 64 -278t206 -90q102 0 188 56t195 186v836h71v-1116h-62l-9 192h-4q-92 -107 -183.5 -163.5t-199.5 -56.5q-172 0 -254.5 104t-82.5 321zM359 1335l220 313h65l220 -313h-66l-181 238h-11l-181 -238h-66z" />
<glyph unicode="&#xfc;" horiz-adv-x="1223" d="M205 397v719h71v-710q0 -188 64 -278t206 -90q102 0 188 56t195 186v836h71v-1116h-62l-9 192h-4q-92 -107 -183.5 -163.5t-199.5 -56.5q-172 0 -254.5 104t-82.5 321zM434.5 1406q-31.5 0 -53.5 21t-22 53q0 15 6 29t16 24t24 16t29 6q21 0 38 -10t26.5 -27t9.5 -38 q0 -32 -21 -53t-52.5 -21zM789 1406q-32 0 -53 21t-21 52.5t21 53.5t53 22t53.5 -22t21.5 -53q0 -21 -10 -38t-27 -26.5t-38 -9.5z" />
<glyph unicode="&#xfd;" horiz-adv-x="989" d="M65 -430q46 -18 93 -18q101 0 176 85.5t123 231.5l33 103l-462 1144h79l285 -733q11 -28 37.5 -95t48.5 -121t41 -97h9q21 56 58.5 169t48.5 144l252 733h75l-448 -1274q-18 -56 -40.5 -105t-55.5 -97t-70.5 -82t-88 -55.5t-105.5 -21.5q-57 0 -107 24zM710 1648 l-243 -313h-66l216 313h93z" />
<glyph unicode="&#xfe;" horiz-adv-x="1259" d="M294 -98v-421h-69v2205h69v-496v-219q66 51 123 86t130 61.5t139 26.5q149 0 250.5 -71.5t149.5 -197.5t48 -301q0 -139 -40 -254t-108 -190.5t-157.5 -117t-188.5 -41.5q-155 0 -346 140v-210zM294 192q96 -79 187 -116.5t163 -37.5q90 0 167.5 40t132 110.5t85.5 170.5 t31 216q0 87 -12.5 161.5t-41 138.5t-72 108.5t-107.5 69.5t-145 25q-164 0 -388 -196v-690z" />
<glyph unicode="&#xff;" horiz-adv-x="989" d="M65 -430q46 -18 93 -18q101 0 176 85.5t123 231.5l33 103l-462 1144h79l285 -733q11 -28 37.5 -95t48.5 -121t41 -97h9q21 56 58.5 169t48.5 144l252 733h75l-448 -1274q-18 -56 -40.5 -105t-55.5 -97t-70.5 -82t-88 -55.5t-105.5 -21.5q-57 0 -107 24zM345 1406 q-31 0 -52.5 21t-21.5 52.5t21.5 53.5t53 22t53.5 -22t22 -53q0 -21 -10 -38t-27.5 -26.5t-38.5 -9.5zM700 1406q-32 0 -53 21t-21 52.5t21 53.5t53 22t53.5 -22t21.5 -53q0 -21 -10 -38t-27 -26.5t-38 -9.5z" />
<glyph unicode="&#x100;" horiz-adv-x="1212" d="M864 1784v-66h-514v66h514zM315 617h581l-107 308q-125 359 -177 536h-10q-52 -177 -177 -536zM1112 0l-192 551h-628l-194 -551h-75l552 1541h65l550 -1541h-78z" />
<glyph unicode="&#x101;" horiz-adv-x="1152" d="M158 274q0 184 174.5 281.5t558.5 139.5q2 60 -3.5 111t-23.5 102.5t-48 88t-81 59t-118 22.5q-107 0 -203 -41t-162 -94l-38 57q32 23 69.5 44.5t90.5 46t118 39.5t129 15q76 0 135.5 -22.5t97.5 -61t63 -93t35 -114.5t10 -130v-724h-60l-11 149h-4q-221 -177 -406 -177 q-67 0 -124 17.5t-102 53t-71 95t-26 136.5zM234 276q0 -63 20 -110t55.5 -74.5t79.5 -40.5t97 -13q98 0 193.5 46.5t211.5 144.5v406q-242 -28 -388 -76.5t-207.5 -116.5t-61.5 -166zM350 1419v66h514v-66h-514z" />
<glyph unicode="&#x102;" horiz-adv-x="1212" d="M808 1900h61q-4 -25 -12.5 -51.5t-23 -53.5t-36 -50.5t-48.5 -42t-64 -29.5t-79 -11q-49 0 -91.5 15.5t-71 40t-50 57t-32.5 63.5t-16 62h61q5 -33 19.5 -63.5t38 -56.5t60.5 -41.5t82 -15.5q31 0 58 7t48 20t37.5 30t28.5 37t19.5 41t10.5 42zM315 617h581l-107 308 q-125 359 -177 536h-10q-52 -177 -177 -536zM1112 0l-192 551h-628l-194 -551h-75l552 1541h65l550 -1541h-78z" />
<glyph unicode="&#x103;" horiz-adv-x="1152" d="M158 274q0 184 174.5 281.5t558.5 139.5q2 60 -3.5 111t-23.5 102.5t-48 88t-81 59t-118 22.5q-107 0 -203 -41t-162 -94l-38 57q32 23 69.5 44.5t90.5 46t118 39.5t129 15q76 0 135.5 -22.5t97.5 -61t63 -93t35 -114.5t10 -130v-724h-60l-11 149h-4q-221 -177 -406 -177 q-67 0 -124 17.5t-102 53t-71 95t-26 136.5zM234 276q0 -63 20 -110t55.5 -74.5t79.5 -40.5t97 -13q98 0 193.5 46.5t211.5 144.5v406q-242 -28 -388 -76.5t-207.5 -116.5t-61.5 -166zM606 1345q-38 0 -72.5 9.5t-60 25t-47.5 37t-37 45.5t-26 51t-17.5 52t-9.5 50h61 q5 -40 20 -76t40 -66.5t63.5 -48.5t86 -18t86 18t63.5 48.5t40.5 66.5t20.5 76h61q-5 -36 -15.5 -71t-32.5 -72t-51 -64.5t-74 -45t-99 -17.5z" />
<glyph unicode="&#x104;" horiz-adv-x="1212" d="M315 617h581l-107 308q-125 359 -177 536h-10q-52 -177 -177 -536zM1247 -374l32 -47q-25 -21 -65 -36t-75 -15q-53 0 -94 20t-66.5 63t-25.5 104q0 80 47.5 158t115.5 127h-4l-192 551h-628l-194 -551h-75l552 1541h65l550 -1541q-72 -54 -119.5 -131.5t-47.5 -148.5 q0 -41 18 -70t45 -42.5t59 -13.5q56 0 102 32z" />
<glyph unicode="&#x105;" horiz-adv-x="1152" d="M234 276q0 -63 20 -110t55.5 -74.5t79.5 -40.5t97 -13q98 0 193.5 46.5t211.5 144.5v406q-242 -28 -388 -76.5t-207.5 -116.5t-61.5 -166zM158 271q0 186 174.5 284t558.5 140q2 60 -3.5 111t-23.5 102.5t-48 88t-81 59t-118 22.5q-107 0 -203 -41t-162 -94l-38 57 q32 23 69.5 44.5t90.5 46t118 39.5t129 15q76 0 135.5 -22.5t97.5 -61t63 -93t35 -114.5t10 -130v-724q-85 -46 -142.5 -125.5t-57.5 -154.5q0 -25 6 -46t17 -35.5t26 -24.5t31.5 -15t35.5 -5q56 0 102 32l33 -47q-25 -21 -65 -36t-75 -15q-81 0 -131.5 48t-50.5 139 q0 84 59.5 166.5t151.5 136.5l-11 131h-4q-221 -177 -406 -177q-67 0 -124 17.5t-102 53t-71 94t-26 134.5z" />
<glyph unicode="&#x106;" horiz-adv-x="1311" d="M131 775q0 180 46.5 328.5t130.5 251t205 158.5t267 56q64 0 124 -15t109 -41t88 -57.5t71 -68.5l-47 -52q-141 164 -345 164q-176 0 -305 -88t-197 -251.5t-68 -384t67.5 -386.5t195 -256.5t298.5 -90.5q120 0 216 48t185 148l47 -46q-93 -109 -201 -164.5t-252 -55.5 q-140 0 -258.5 57.5t-201 161.5t-129 254t-46.5 330zM994 1900l-252 -242h-69l218 242h103z" />
<glyph unicode="&#x107;" horiz-adv-x="1040" d="M127 555q0 69 10.5 132.5t30 117.5t47 101t62 84t74.5 66.5t84.5 48.5t92.5 29.5t98 10.5q104 0 181 -38.5t146 -102.5l-47 -51q-135 125 -280 125q-71 0 -136 -24.5t-117 -71t-91 -110t-60 -145t-21 -172.5q0 -152 52.5 -269.5t149 -182.5t223.5 -65q168 0 312 135 l42 -52q-165 -149 -354 -149q-107 0 -198.5 39.5t-158.5 113t-104.5 184.5t-37.5 246zM815 1648l-243 -313h-66l216 313h93z" />
<glyph unicode="&#x108;" horiz-adv-x="1311" d="M131 775q0 180 46.5 328.5t130.5 251t205 158.5t267 56q64 0 124 -15t109 -41t88 -57.5t71 -68.5l-47 -52q-141 164 -345 164q-176 0 -305 -88t-197 -251.5t-68 -384t67.5 -386.5t195 -256.5t298.5 -90.5q120 0 216 48t185 148l47 -46q-93 -109 -201 -164.5t-252 -55.5 q-140 0 -258.5 57.5t-201 161.5t-129 254t-46.5 330zM561 1658h-71l225 242h65l224 -242h-70l-183 173h-9z" />
<glyph unicode="&#x109;" horiz-adv-x="1040" d="M127 555q0 69 10.5 132.5t30 117.5t47 101t62 84t74.5 66.5t84.5 48.5t92.5 29.5t98 10.5q104 0 181 -38.5t146 -102.5l-47 -51q-135 125 -280 125q-71 0 -136 -24.5t-117 -71t-91 -110t-60 -145t-21 -172.5q0 -152 52.5 -269.5t149 -182.5t223.5 -65q168 0 312 135 l42 -52q-165 -149 -354 -149q-107 0 -198.5 39.5t-158.5 113t-104.5 184.5t-37.5 246zM376 1335l219 313h66l219 -313h-65l-182 238h-9l-183 -238h-65z" />
<glyph unicode="&#x10a;" horiz-adv-x="1311" d="M131 775q0 180 46.5 328.5t130.5 251t205 158.5t267 56q64 0 124 -15t109 -41t88 -57.5t71 -68.5l-47 -52q-141 164 -345 164q-176 0 -305 -88t-197 -251.5t-68 -384t67.5 -386.5t195 -256.5t298.5 -90.5q120 0 216 48t185 148l47 -46q-93 -109 -201 -164.5t-252 -55.5 q-140 0 -258.5 57.5t-201 161.5t-129 254t-46.5 330zM747 1691q-33 0 -56 23t-23 60q0 34 23 57t56 23q21 0 39 -10t29 -28.5t11 -41.5q0 -37 -23 -60t-56 -23z" />
<glyph unicode="&#x10b;" horiz-adv-x="1040" d="M127 555q0 69 10.5 132.5t30 117.5t47 101t62 84t74.5 66.5t84.5 48.5t92.5 29.5t98 10.5q104 0 181 -38.5t146 -102.5l-47 -51q-135 125 -280 125q-71 0 -136 -24.5t-117 -71t-91 -110t-60 -145t-21 -172.5q0 -152 52.5 -269.5t149 -182.5t223.5 -65q168 0 312 135 l42 -52q-165 -149 -354 -149q-107 0 -198.5 39.5t-158.5 113t-104.5 184.5t-37.5 246zM628 1401q-32 0 -53.5 23.5t-21.5 60.5q0 35 21.5 57t53.5 22t53 -22t21 -57q0 -37 -21 -60.5t-53 -23.5z" />
<glyph unicode="&#x10c;" horiz-adv-x="1311" d="M131 775q0 180 46.5 328.5t130.5 251t205 158.5t267 56q64 0 124 -15t109 -41t88 -57.5t71 -68.5l-47 -52q-141 164 -345 164q-176 0 -305 -88t-197 -251.5t-68 -384t67.5 -386.5t195 -256.5t298.5 -90.5q120 0 216 48t185 148l47 -46q-93 -109 -201 -164.5t-252 -55.5 q-140 0 -258.5 57.5t-201 161.5t-129 254t-46.5 330zM934 1900h70l-224 -242h-65l-225 242h71l181 -172h9z" />
<glyph unicode="&#x10d;" horiz-adv-x="1040" d="M127 555q0 69 10.5 132.5t30 117.5t47 101t62 84t74.5 66.5t84.5 48.5t92.5 29.5t98 10.5q104 0 181 -38.5t146 -102.5l-47 -51q-135 125 -280 125q-71 0 -136 -24.5t-117 -71t-91 -110t-60 -145t-21 -172.5q0 -152 52.5 -269.5t149 -182.5t223.5 -65q168 0 312 135 l42 -52q-165 -149 -354 -149q-107 0 -198.5 39.5t-158.5 113t-104.5 184.5t-37.5 246zM595 1335l-219 313h65l183 -238h9l182 238h65l-219 -313h-66z" />
<glyph unicode="&#x10e;" horiz-adv-x="1399" d="M234 0v1541h345q141 0 255 -36t194.5 -102t135 -161t80.5 -211.5t26 -255.5t-26 -256.5t-80.5 -213.5t-135 -163.5t-194.5 -104.5t-255 -37h-345zM308 65h262q129 0 233 35t175.5 98t119.5 152t70 195t22 230t-22 229t-70 193t-120 149t-175.5 95t-232.5 34h-262v-1410z M887 1900h71l-225 -242h-65l-225 242h71l181 -172h10z" />
<glyph unicode="&#x10f;" horiz-adv-x="1259" d="M127 555q0 132 39.5 243.5t107.5 186.5t159 117.5t193 42.5q96 0 173 -34t172 -107l-4 210v472h69v-1686h-60l-9 149h-5q-178 -177 -374 -177q-214 0 -337.5 152t-123.5 431zM201 555q0 -154 45 -270t134 -181.5t213 -65.5q95 0 185 48.5t189 147.5v691 q-94 82 -175.5 117.5t-170.5 35.5q-117 0 -213.5 -70t-151.5 -190t-55 -263zM1247 1279h-51l-6 477h71v-112z" />
<glyph unicode="&#x110;" horiz-adv-x="1446" d="M355 65h262q129 0 232.5 35t175.5 98t120 152t70 195t22 230q0 103 -15.5 193t-47.5 169t-83 140.5t-118.5 106t-157.5 68t-198 23.5h-262v-626h392v-65h-392v-719zM280 1541h346q141 0 254.5 -36t194.5 -102t135.5 -161t80.5 -211.5t26 -255.5t-26 -256.5t-80.5 -213.5 t-135.5 -163.5t-195 -104.5t-254 -37h-346v784h-191v61l191 4v692z" />
<glyph unicode="&#x111;" horiz-adv-x="1259" d="M967 234v644q-94 82 -175.5 118t-170.5 36q-87 0 -165.5 -39.5t-134 -106.5t-88 -159.5t-32.5 -194.5q0 -147 45 -258t134 -173.5t213 -62.5q95 0 185 48.5t189 147.5zM1036 1428h178v-55l-178 -10v-1363h-60l-9 149h-5q-178 -177 -374 -177q-214 0 -337.5 146 t-123.5 414q0 102 25.5 191.5t72 157.5t108.5 117t137 74.5t156 25.5q96 0 173 -34t172 -106l-4 209v196h-402v65h402v258h69v-258z" />
<glyph unicode="&#x112;" horiz-adv-x="1190" d="M234 0v1541h826v-66h-752v-620h630v-66h-630v-724h775v-65h-849zM399 1718v66h514v-66h-514z" />
<glyph unicode="&#x113;" horiz-adv-x="1114" d="M127 555q0 132 40 245t107 187t153 116t179 42q196 0 308.5 -134.5t112.5 -380.5q0 -46 -4 -75h-822q0 -111 31.5 -206.5t88 -164t139 -107.5t180.5 -39q164 0 307 102l33 -60q-42 -26 -68 -40t-71 -32.5t-95.5 -27t-110.5 -8.5q-105 0 -197.5 40.5t-161.5 114 t-109 184.5t-40 244zM201 617h757q0 225 -95 343t-257 118q-75 0 -144.5 -32.5t-124.5 -91t-91.5 -146t-44.5 -191.5zM350 1419v66h514v-66h-514z" />
<glyph unicode="&#x114;" horiz-adv-x="1190" d="M234 0v1541h826v-66h-752v-620h630v-66h-630v-724h775v-65h-849zM655.5 1662q-49.5 0 -92 15.5t-71 40t-50 57t-32.5 63.5t-16 62h61q5 -33 19.5 -63.5t38 -56.5t60.5 -41.5t82.5 -15.5t82.5 15.5t61 41.5t38.5 56.5t19.5 63.5h61q-5 -31 -16 -62.5t-32.5 -63.5 t-50.5 -56.5t-71.5 -40t-92 -15.5z" />
<glyph unicode="&#x115;" horiz-adv-x="1114" d="M127 555q0 132 40 245t107 187t153 116t179 42q196 0 308.5 -134.5t112.5 -380.5q0 -46 -4 -75h-822q0 -111 31.5 -206.5t88 -164t139 -107.5t180.5 -39q164 0 307 102l33 -60q-42 -26 -68 -40t-71 -32.5t-95.5 -27t-110.5 -8.5q-105 0 -197.5 40.5t-161.5 114 t-109 184.5t-40 244zM201 617h757q0 225 -95 343t-257 118q-75 0 -144.5 -32.5t-124.5 -91t-91.5 -146t-44.5 -191.5zM606 1345q-38 0 -72.5 9.5t-60 25t-47.5 37t-37 45.5t-26 51t-17.5 52t-9.5 50h61q5 -40 20 -76t40 -66.5t63.5 -48.5t86 -18t86 18t63.5 48.5t40.5 66.5 t20.5 76h61q-5 -36 -15.5 -71t-32.5 -72t-51 -64.5t-74 -45t-99 -17.5z" />
<glyph unicode="&#x116;" horiz-adv-x="1190" d="M234 0v1541h826v-66h-752v-620h630v-66h-630v-724h775v-65h-849zM656 1691q-22 0 -39.5 9.5t-28.5 29t-11 44.5q0 23 11 41.5t28.5 28.5t39 10t39.5 -10t29 -28.5t11 -41.5q0 -37 -23.5 -60t-55.5 -23z" />
<glyph unicode="&#x117;" horiz-adv-x="1114" d="M127 555q0 132 40 245t107 187t153 116t179 42q196 0 308.5 -134.5t112.5 -380.5q0 -46 -4 -75h-822q0 -111 31.5 -206.5t88 -164t139 -107.5t180.5 -39q164 0 307 102l33 -60q-42 -26 -68 -40t-71 -32.5t-95.5 -27t-110.5 -8.5q-105 0 -197.5 40.5t-161.5 114 t-109 184.5t-40 244zM201 617h757q0 225 -95 343t-257 118q-75 0 -144.5 -32.5t-124.5 -91t-91.5 -146t-44.5 -191.5zM606 1401q-21 0 -37.5 10.5t-26.5 29.5t-10 44q0 35 21.5 57t52.5 22q21 0 38.5 -10t27.5 -28t10 -41q0 -37 -21.5 -60.5t-54.5 -23.5z" />
<glyph unicode="&#x118;" horiz-adv-x="1190" d="M234 0v1541h826v-66h-752v-620h630v-66h-630v-724h775v-65h-5q-39 -9 -78.5 -34.5t-72 -61.5t-52.5 -85t-20 -99q0 -60 36 -93t85 -33q56 0 102 32l34 -47q-26 -21 -66 -36t-75 -15q-81 0 -134 48t-53 139q0 84 48 161t121 124h-719z" />
<glyph unicode="&#x119;" horiz-adv-x="1114" d="M127 555q0 132 40 245t107 187t153 116t179 42q196 0 308.5 -134.5t112.5 -380.5q0 -46 -4 -75h-822q0 -111 31.5 -206.5t88 -164t139 -107.5t180.5 -39q164 0 307 102l33 -60q-144 -108 -204.5 -193.5t-60.5 -166.5q0 -41 16.5 -70t42.5 -42.5t57 -13.5q56 0 103 32 l33 -47q-25 -21 -65.5 -36t-75.5 -15q-80 0 -131 48t-51 139q0 79 45.5 154.5t103.5 125.5q-67 -23 -158 -23q-105 0 -197.5 40.5t-161.5 114t-109 184.5t-40 244zM201 617h757q0 225 -94 343t-258 118q-75 0 -144.5 -32.5t-124.5 -91t-91.5 -146t-44.5 -191.5z" />
<glyph unicode="&#x11a;" horiz-adv-x="1190" d="M234 0v1541h826v-66h-752v-620h630v-66h-630v-724h775v-65h-849zM842 1900h71l-224 -242h-65l-225 242h71l181 -172h10z" />
<glyph unicode="&#x11b;" horiz-adv-x="1114" d="M127 555q0 132 40 245t107 187t153 116t179 42q196 0 308.5 -134.5t112.5 -380.5q0 -46 -4 -75h-822q0 -111 31.5 -206.5t88 -164t139 -107.5t180.5 -39q164 0 307 102l33 -60q-42 -26 -68 -40t-71 -32.5t-95.5 -27t-110.5 -8.5q-105 0 -197.5 40.5t-161.5 114 t-109 184.5t-40 244zM201 617h757q0 225 -95 343t-257 118q-75 0 -144.5 -32.5t-124.5 -91t-91.5 -146t-44.5 -191.5zM575 1335l-220 313h66l181 -238h10l181 238h67l-220 -313h-65z" />
<glyph unicode="&#x11c;" horiz-adv-x="1399" d="M131 775q0 180 48.5 328.5t135.5 251t212.5 158.5t276.5 56q239 0 410 -182l-47 -52q-147 164 -363 164q-183 0 -317.5 -88t-205.5 -251.5t-71 -384.5t68 -386t198.5 -256t307.5 -91q113 0 211.5 33t158.5 93v509h-383v65h457v-597q-73 -80 -188 -126.5t-260 -46.5 q-194 0 -341.5 99t-227.5 281.5t-80 422.5zM614 1658h-70l224 242h65l225 -242h-71l-181 173h-10z" />
<glyph unicode="&#x11d;" horiz-adv-x="1120" d="M201 -229q0 -114 102.5 -183t284.5 -69q96 0 179.5 26.5t138 69.5t86 97t31.5 110q0 65 -31.5 105.5t-90.5 59t-150 18.5h-256q-55 0 -136 18q-80 -54 -119 -119.5t-39 -132.5zM127 -234q0 73 44.5 146t122.5 130v9q-44 27 -71 72.5t-27 105.5q0 36 12 70t32 59.5 t38.5 43.5t39.5 32v9q-59 51 -99.5 132.5t-40.5 175.5q0 111 50.5 201t138.5 141.5t194 51.5q75 0 144 -29h373v-65h-270q41 -33 71 -78t47 -102.5t17 -119.5q0 -83 -30 -156.5t-80.5 -126t-121.5 -83t-150 -30.5q-50 0 -102 13.5t-90 37.5q-46 -38 -72 -78t-26 -94 q0 -34 10.5 -60.5t34 -48.5t67.5 -33.5t107 -11.5h248q185 0 272.5 -61.5t87.5 -191.5q0 -71 -37 -137.5t-102.5 -119t-163.5 -84.5t-211 -32q-212 0 -334.5 85.5t-122.5 226.5zM561 421q61 0 117 24t98 67t67.5 105.5t25.5 133.5q0 73 -24.5 135t-66.5 103.5t-98.5 65 t-119 23.5t-118.5 -23t-98.5 -64.5t-67 -103.5t-24.5 -136q0 -71 25.5 -133.5t68 -105.5t98.5 -67t117 -24zM285 1335l219 313h66l219 -313h-65l-182 238h-10l-182 -238h-65z" />
<glyph unicode="&#x11e;" horiz-adv-x="1399" d="M131 775q0 180 48.5 328.5t135.5 251t212.5 158.5t276.5 56q239 0 410 -182l-47 -52q-147 164 -363 164q-183 0 -317.5 -88t-205.5 -251.5t-71 -384.5t68 -386t198.5 -256t307.5 -91q113 0 211.5 33t158.5 93v509h-383v65h457v-597q-73 -80 -188 -126.5t-260 -46.5 q-194 0 -341.5 99t-227.5 281.5t-80 422.5zM800 1662q-42 0 -78.5 11t-63 29.5t-48 42t-36 50.5t-23 53.5t-12.5 51.5h61q5 -33 19.5 -63.5t38 -56.5t60.5 -41.5t82 -15.5q37 0 68.5 10t53.5 27.5t39 41t27 48t14 50.5h60q-4 -31 -15 -62.5t-33 -63.5t-50.5 -56.5t-71 -40 t-92.5 -15.5z" />
<glyph unicode="&#x11f;" horiz-adv-x="1120" d="M201 -229q0 -114 102.5 -183t284.5 -69q96 0 179.5 26.5t138 69.5t86 97t31.5 110q0 65 -31.5 105.5t-90.5 59t-150 18.5h-256q-55 0 -136 18q-80 -54 -119 -119.5t-39 -132.5zM127 -234q0 73 44.5 146t122.5 130v9q-44 27 -71 72.5t-27 105.5q0 36 12 70t32 59.5 t38.5 43.5t39.5 32v9q-59 51 -99.5 132.5t-40.5 175.5q0 111 50.5 201t138.5 141.5t194 51.5q75 0 144 -29h373v-65h-270q41 -33 71 -78t47 -102.5t17 -119.5q0 -83 -30 -156.5t-80.5 -126t-121.5 -83t-150 -30.5q-50 0 -102 13.5t-90 37.5q-46 -38 -72 -78t-26 -94 q0 -34 10.5 -60.5t34 -48.5t67.5 -33.5t107 -11.5h248q185 0 272.5 -61.5t87.5 -191.5q0 -71 -37 -137.5t-102.5 -119t-163.5 -84.5t-211 -32q-212 0 -334.5 85.5t-122.5 226.5zM561 421q61 0 117 24t98 67t67.5 105.5t25.5 133.5q0 73 -24.5 135t-66.5 103.5t-98.5 65 t-119 23.5t-118.5 -23t-98.5 -64.5t-67 -103.5t-24.5 -136q0 -71 25.5 -133.5t68 -105.5t98.5 -67t117 -24zM537 1345q-54 0 -98.5 17.5t-74 45t-51 64.5t-32.5 72t-15 71h61q6 -40 21 -76t40 -66.5t63.5 -48.5t85.5 -18t85.5 18t63.5 48.5t40 66.5t21 76h61q-4 -36 -15 -71 t-32.5 -72t-51 -64.5t-74 -45t-98.5 -17.5z" />
<glyph unicode="&#x120;" horiz-adv-x="1399" d="M131 775q0 180 48.5 328.5t135.5 251t212.5 158.5t276.5 56q239 0 410 -182l-47 -52q-147 164 -363 164q-183 0 -317.5 -88t-205.5 -251.5t-71 -384.5t68 -386t198.5 -256t307.5 -91q113 0 211.5 33t158.5 93v509h-383v65h457v-597q-73 -80 -188 -126.5t-260 -46.5 q-194 0 -341.5 99t-227.5 281.5t-80 422.5zM800.5 1691q-32.5 0 -55.5 23t-23 60q0 34 23 57t55 23q21 0 39.5 -10t29.5 -28.5t11 -41.5q0 -37 -23.5 -60t-56 -23z" />
<glyph unicode="&#x121;" horiz-adv-x="1120" d="M201 -229q0 -114 102.5 -183t284.5 -69q96 0 179.5 26.5t138 69.5t86 97t31.5 110q0 65 -31.5 105.5t-90.5 59t-150 18.5h-256q-55 0 -136 18q-80 -54 -119 -119.5t-39 -132.5zM127 -234q0 73 44.5 146t122.5 130v9q-44 27 -71 72.5t-27 105.5q0 36 12 70t32 59.5 t38.5 43.5t39.5 32v9q-59 51 -99.5 132.5t-40.5 175.5q0 111 50.5 201t138.5 141.5t194 51.5q75 0 144 -29h373v-65h-270q41 -33 71 -78t47 -102.5t17 -119.5q0 -83 -30 -156.5t-80.5 -126t-121.5 -83t-150 -30.5q-50 0 -102 13.5t-90 37.5q-46 -38 -72 -78t-26 -94 q0 -34 10.5 -60.5t34 -48.5t67.5 -33.5t107 -11.5h248q185 0 272.5 -61.5t87.5 -191.5q0 -71 -37 -137.5t-102.5 -119t-163.5 -84.5t-211 -32q-212 0 -334.5 85.5t-122.5 226.5zM561 421q61 0 117 24t98 67t67.5 105.5t25.5 133.5q0 73 -24.5 135t-66.5 103.5t-98.5 65 t-119 23.5t-118.5 -23t-98.5 -64.5t-67 -103.5t-24.5 -136q0 -71 25.5 -133.5t68 -105.5t98.5 -67t117 -24zM537 1401q-32 0 -53 23.5t-21 60.5q0 35 21 57t53 22t53.5 -22t21.5 -57q0 -37 -21.5 -60.5t-53.5 -23.5z" />
<glyph unicode="&#x122;" horiz-adv-x="1399" d="M131 775q0 180 48.5 328.5t135.5 251t212.5 158.5t276.5 56q239 0 410 -182l-47 -52q-147 164 -363 164q-183 0 -317.5 -88t-205.5 -251.5t-71 -384.5t68 -386t198.5 -256t307.5 -91q113 0 211.5 33t158.5 93v509h-383v65h457v-597q-73 -80 -188 -126.5t-260 -46.5 q-194 0 -341.5 99t-227.5 281.5t-80 422.5zM731 -121q91 -22 136.5 -61.5t45.5 -107.5q0 -41 -23 -75.5t-63 -57t-87 -37t-103 -21.5l-13 60q218 31 218 122q0 27 -11 48t-32 34t-42.5 21t-48.5 14z" />
<glyph unicode="&#x123;" horiz-adv-x="1120" d="M201 -229q0 -114 102.5 -183t284.5 -69q96 0 179.5 26.5t138 69.5t86 97t31.5 110q0 65 -31.5 105.5t-90.5 59t-150 18.5h-256q-55 0 -136 18q-80 -54 -119 -119.5t-39 -132.5zM127 -234q0 73 44.5 146t122.5 130v9q-44 27 -71 72.5t-27 105.5q0 36 12 70t32 59.5 t38.5 43.5t39.5 32v9q-59 51 -99.5 132.5t-40.5 175.5q0 111 50.5 201t138.5 141.5t194 51.5q75 0 144 -29h373v-65h-270q41 -33 71 -78t47 -102.5t17 -119.5q0 -83 -30 -156.5t-80.5 -126t-121.5 -83t-150 -30.5q-50 0 -102 13.5t-90 37.5q-46 -38 -72 -78t-26 -94 q0 -34 10.5 -60.5t34 -48.5t67.5 -33.5t107 -11.5h248q185 0 272.5 -61.5t87.5 -191.5q0 -71 -37 -137.5t-102.5 -119t-163.5 -84.5t-211 -32q-212 0 -334.5 85.5t-122.5 226.5zM561 421q61 0 117 24t98 67t67.5 105.5t25.5 133.5q0 73 -24.5 135t-66.5 103.5t-98.5 65 t-119 23.5t-118.5 -23t-98.5 -64.5t-67 -103.5t-24.5 -136q0 -71 25.5 -133.5t68 -105.5t98.5 -67t117 -24zM588 1256q-92 23 -137 62t-45 106q0 42 23 76t63 56.5t87 37t103 21.5l13 -60q-218 -30 -218 -122q0 -27 11.5 -47.5t32 -34t42.5 -21t49 -13.5z" />
<glyph unicode="&#x124;" horiz-adv-x="1479" d="M234 0v1541h74v-686h864v686h75v-1541h-75v789h-864v-789h-74zM553 1658h-70l225 242h65l223 -242h-69l-183 173h-9z" />
<glyph unicode="&#x125;" horiz-adv-x="1218" d="M225 0v1686h69v-500v-252q50 49 92 84t91 65.5t101 46t108 15.5q172 0 254.5 -104t82.5 -322v-719h-70v710q0 126 -28 206.5t-88 121t-155 40.5q-101 0 -186.5 -52t-201.5 -171v-855h-69zM78 1746h-71l224 243h65l225 -243h-71l-181 173h-10z" />
<glyph unicode="&#x126;" horiz-adv-x="1553" d="M1219 855v303h-864v-303h864zM1466 1223v-65h-172v-1158h-75v789h-864v-789h-75v1158h-191v56l191 9v318h75v-318h864v318h75v-318h172z" />
<glyph unicode="&#x127;" horiz-adv-x="1218" d="M294 1139v-252q50 50 92 85t91 65t101 45.5t108 15.5q172 0 254.5 -104t82.5 -321v-673h-70v663q0 188 -64.5 278.5t-206.5 90.5q-69 0 -132 -26t-121 -72t-135 -126v-808h-69v1363h-183v56l183 9v258h69v-258h448v-65h-448v-224z" />
<glyph unicode="&#x128;" horiz-adv-x="541" d="M234 0v1541h74v-1541h-74zM406 1676q-34 0 -65.5 14t-56 34t-48.5 40t-51 33.5t-54 13.5q-38 0 -64.5 -37.5t-33.5 -97.5h-51q2 35 12 69t28 64.5t47.5 49.5t66.5 19q33 0 64.5 -14t56.5 -34t48.5 -40t51 -34t53.5 -14q38 0 65 37.5t33 98.5h53q-3 -48 -19 -92.5t-52 -77 t-84 -32.5z" />
<glyph unicode="&#x129;" horiz-adv-x="517" d="M225 0v1116h69v-1116h-69zM-16 1359q2 34 10.5 65.5t24.5 61t45.5 47t68.5 17.5q23 0 45.5 -7t40.5 -18.5t36 -25.5t35 -28t32.5 -25.5t33 -19t34.5 -7.5q74 0 89 131h56q-2 -33 -10.5 -64.5t-25 -61t-46 -47.5t-68.5 -18q-31 0 -60.5 13.5t-53.5 32.5t-46.5 38.5t-47 33 t-48.5 13.5q-75 0 -89 -131h-56z" />
<glyph unicode="&#x12a;" horiz-adv-x="541" d="M234 0v1541h74v-1541h-74zM14 1718v66h514v-66h-514z" />
<glyph unicode="&#x12b;" horiz-adv-x="517" d="M225 0v1116h69v-1116h-69zM2 1419v66h514v-66h-514z" />
<glyph unicode="&#x12c;" horiz-adv-x="541" d="M234 0v1541h74v-1541h-74zM271.5 1662q-49.5 0 -92 15.5t-71.5 40t-50.5 56.5t-33 63.5t-15.5 62.5h61q5 -33 19.5 -63.5t38.5 -56.5t61 -41.5t82 -15.5q31 0 58 7t47.5 20t37.5 30t28.5 37t18.5 41t11 42h60q-4 -31 -15 -62t-32.5 -63.5t-50 -57t-71 -40t-92 -15.5z" />
<glyph unicode="&#x12d;" horiz-adv-x="517" d="M225 0v1116h69v-1116h-69zM261 1345q-54 0 -98.5 17.5t-73.5 45t-50.5 64.5t-32.5 72t-15 71h60q6 -40 21 -76t40 -66.5t63.5 -48.5t85.5 -18q32 0 60 8t50 23t39.5 35t30 43.5t20 48.5t11.5 51h60q-4 -36 -15 -71t-32.5 -72t-51 -64.5t-74 -45t-98.5 -17.5z" />
<glyph unicode="&#x12e;" horiz-adv-x="541" d="M234 0v1541h74v-1541q-69 -85 -102 -146.5t-33 -133.5q0 -60 36 -93t85 -33q56 0 103 32l33 -47q-25 -21 -65.5 -36t-74.5 -15q-82 0 -134.5 48t-52.5 139q0 83 35 147t105 138h-9z" />
<glyph unicode="&#x12f;" horiz-adv-x="517" d="M225 0v1116h69v-1116q-66 -81 -103 -146t-37 -134q0 -60 34.5 -93t82.5 -33q57 0 103 32l32 -47q-25 -21 -65.5 -36t-74.5 -15q-81 0 -131.5 48t-50.5 139q0 41 11.5 80.5t36 77.5t44 63t53.5 64h-4zM256.5 1401q-32.5 0 -55.5 22t-23 57q0 37 22.5 58.5t56 21.5 t56.5 -21.5t23 -58.5q0 -34 -23.5 -56.5t-56 -22.5z" />
<glyph unicode="&#x130;" horiz-adv-x="541" d="M234 0v1541h74v-1541h-74zM271 1691q-21 0 -39 9.5t-29 29t-11 44.5q0 34 23.5 57t56 23t55.5 -23t23 -57q0 -37 -23 -60t-56 -23z" />
<glyph unicode="&#x131;" horiz-adv-x="517" d="M225 0v1116h69v-1116h-69z" />
<glyph unicode="&#x134;" horiz-adv-x="1063" d="M103 192l60 37q59 -100 132.5 -143.5t176.5 -43.5q148 0 219 91t71 283v1125h74v-1135q0 -75 -12 -138.5t-40 -119t-70 -94t-104.5 -60.5t-142.5 -22q-121 0 -214 56.5t-150 163.5zM602 1658h-70l225 242h65l225 -242h-71l-183 173h-9z" />
<glyph unicode="&#x135;" horiz-adv-x="517" d="M225 -229v1345h69v-1354q0 -160 -56.5 -234t-172.5 -74q-68 0 -135 27l19 62q75 -24 121 -24q38 0 66 12.5t45 34t27 54.5t13.5 68.5t3.5 82.5zM7 1335l220 313h65l220 -313h-66l-183 238h-9l-182 -238h-65z" />
<glyph unicode="&#x136;" horiz-adv-x="1283" d="M234 0v1541h74v-888h4l786 888h92l-495 -565l561 -976h-89l-527 920l-332 -374v-546h-74zM693 -121q92 -22 137.5 -61.5t45.5 -107.5q0 -41 -23 -75.5t-63 -57t-87.5 -37t-102.5 -21.5l-14 60q220 31 220 122q0 27 -11.5 48t-32.5 34t-42.5 21t-49.5 14z" />
<glyph unicode="&#x137;" horiz-adv-x="1054" d="M225 0v1686h69v-1280h5l579 710h84l-360 -439l425 -677h-80l-386 621l-267 -313v-308h-69zM532 -121q92 -22 137.5 -61.5t45.5 -107.5q0 -41 -23 -75.5t-63 -57t-87.5 -37t-102.5 -21.5l-14 60q219 31 219 122q0 27 -11.5 48t-32.5 34t-42.5 21t-49.5 14z" />
<glyph unicode="&#x138;" horiz-adv-x="1054" d="M225 0v1116h69v-710h5l579 710h84l-360 -439l425 -677h-80l-386 621l-267 -313v-308h-69z" />
<glyph unicode="&#x139;" horiz-adv-x="1073" d="M234 0v1541h74v-1476h724v-65h-798zM523 1900l-252 -242h-70l220 242h102z" />
<glyph unicode="&#x13a;" horiz-adv-x="536" d="M225 121v1565h69v-1579q0 -23 6 -38.5t16 -23t25 -7.5q19 0 42 4l14 -60q-41 -10 -61 -10q-111 0 -111 149zM486 2017l-252 -243h-71l220 243h103z" />
<glyph unicode="&#x13b;" horiz-adv-x="1073" d="M234 0v1541h74v-1476h724v-65h-798zM612 -121q61 -15 99.5 -35.5t60 -54t21.5 -79.5q0 -42 -22.5 -76t-62.5 -56.5t-87 -37t-102 -21.5l-15 60q220 31 220 122q0 27 -11.5 48t-32.5 34t-42.5 21t-49.5 14z" />
<glyph unicode="&#x13c;" horiz-adv-x="536" d="M225 121v1565h69v-1579q0 -23 6 -38.5t16 -23t25 -7.5q19 0 42 4l14 -60q-41 -10 -61 -10q-111 0 -111 149zM303 -121q92 -22 137.5 -61.5t45.5 -107.5q0 -41 -23 -75.5t-63 -57t-87.5 -37t-102.5 -21.5l-14 60q220 31 220 122q0 27 -11.5 48t-32.5 34t-42.5 21t-49.5 14 z" />
<glyph unicode="&#x13d;" horiz-adv-x="1073" d="M234 0v1541h74v-1476h724v-65h-798zM793 1210h-51l-4 476h70v-113z" />
<glyph unicode="&#x13e;" horiz-adv-x="517" d="M225 121v1565h69v-1579q0 -23 6 -38.5t16 -23t25 -7.5q19 0 42 4l14 -60q-41 -10 -61 -10q-111 0 -111 149zM504 1279h-51l-5 477h71v-112z" />
<glyph unicode="&#x13f;" horiz-adv-x="1073" d="M234 0v1541h74v-1476h724v-65h-798zM733 751q0 43 25 68.5t59 25.5t59.5 -25.5t25.5 -68.5q0 -40 -25.5 -64t-59 -24t-59 24t-25.5 64z" />
<glyph unicode="&#x140;" horiz-adv-x="671" d="M225 121v1565h69v-1579q0 -23 6 -38.5t16 -23t25 -7.5q19 0 42 4l14 -60q-41 -10 -61 -10q-111 0 -111 149zM508 751q0 43 25.5 68.5t59.5 25.5q21 0 40 -10.5t31.5 -32.5t12.5 -51q0 -40 -25 -64t-59 -24t-59.5 24t-25.5 64z" />
<glyph unicode="&#x141;" horiz-adv-x="1073" d="M318 65h723v-65h-798v617l-210 -113v71l210 111v855h75v-822l457 239v-71l-457 -238v-584z" />
<glyph unicode="&#x142;" horiz-adv-x="536" d="M467 1036l-173 -116v-813q0 -23 6 -38.5t16 -23t25 -7.5q19 0 42 4l14 -60q-41 -10 -61 -10q-111 0 -111 149v757l-155 -103v74l155 104v733h69v-692l173 118v-76z" />
<glyph unicode="&#x143;" horiz-adv-x="1475" d="M234 0v1541h78l682 -1131l178 -303h9q-9 299 -9 435v999h71v-1541h-80l-682 1130l-178 303h-9q9 -290 9 -420v-1013h-69zM996 1900l-252 -242h-69l219 242h102z" />
<glyph unicode="&#x144;" horiz-adv-x="1227" d="M225 0v1116h60l9 -178h5q48 48 89 82t89.5 64t101 45.5t107.5 15.5q172 0 254.5 -104t82.5 -322v-719h-70v710q0 126 -28 206.5t-88 121t-155 40.5q-101 0 -186.5 -52t-201.5 -171v-855h-69zM838 1648l-243 -313h-65l214 313h94z" />
<glyph unicode="&#x145;" horiz-adv-x="1475" d="M234 0v1541h78l682 -1131l178 -303h9q-9 299 -9 435v999h71v-1541h-80l-682 1130l-178 303h-9q9 -290 9 -420v-1013h-69zM679 -121q92 -22 137.5 -61.5t45.5 -107.5q0 -41 -23 -75.5t-63 -57t-87.5 -37t-102.5 -21.5l-14 60q219 31 219 122q0 22 -8 40t-20.5 30 t-31.5 21.5t-36.5 15t-38.5 10.5z" />
<glyph unicode="&#x146;" horiz-adv-x="1227" d="M225 0v1116h60l9 -178h5q48 48 89 82t89.5 64t101 45.5t107.5 15.5q172 0 254.5 -104t82.5 -322v-719h-70v710q0 126 -28 206.5t-88 121t-155 40.5q-101 0 -186.5 -52t-201.5 -171v-855h-69zM572 -121q92 -22 137.5 -61.5t45.5 -107.5q0 -41 -23 -75.5t-63 -57t-87.5 -37 t-102.5 -21.5l-14 60q219 31 219 122q0 22 -8 40t-20.5 30t-31.5 21.5t-36.5 15t-39.5 10.5z" />
<glyph unicode="&#x147;" horiz-adv-x="1475" d="M234 0v1541h78l682 -1131l178 -303h9q-9 299 -9 435v999h71v-1541h-80l-682 1130l-178 303h-9q9 -290 9 -420v-1013h-69zM936 1900h71l-225 -242h-65l-225 242h71l181 -172h11z" />
<glyph unicode="&#x148;" horiz-adv-x="1227" d="M225 0v1116h60l9 -178h5q48 48 89 82t89.5 64t101 45.5t107.5 15.5q172 0 254.5 -104t82.5 -322v-719h-70v710q0 126 -28 206.5t-88 121t-155 40.5q-101 0 -186.5 -52t-201.5 -171v-855h-69zM619 1335l-220 313h66l181 -238h10l182 238h66l-220 -313h-65z" />
<glyph unicode="&#x149;" horiz-adv-x="1662" d="M168 1154l-37 42q79 68 114 130.5t35 155.5q-4 -2 -19 -2q-31 0 -55 19.5t-24 55.5q0 38 21.5 59t57.5 21q40 0 64.5 -35.5t24.5 -100.5q0 -215 -182 -345zM708 938h4q48 48 89.5 82t90 64t100.5 45.5t108 15.5q172 0 254 -104t82 -322v-719h-70v710q0 188 -64.5 278 t-205.5 90q-101 0 -187 -52t-201 -171v-855h-71v1116h61z" />
<glyph unicode="&#x14c;" horiz-adv-x="1512" d="M757 -28q-135 0 -251 57.5t-198.5 161t-129.5 254.5t-47 330t47 328.5t129.5 251t198 158t251 56.5t251 -56.5t198 -158t129.5 -251t47 -328.5t-47 -330t-129.5 -254.5t-198 -161t-250.5 -57.5zM757 42q162 0 286 90.5t192 257t68 385.5t-68 383.5t-191.5 252.5 t-286.5 88t-286.5 -88t-192 -252.5t-68.5 -383.5t68 -385.5t192.5 -257t286.5 -90.5zM499 1718v66h514v-66h-514z" />
<glyph unicode="&#x14d;" horiz-adv-x="1241" d="M127 555q0 110 25.5 205t71.5 164.5t108 119.5t136 75.5t153 25.5q100 0 189.5 -40.5t157.5 -114t108 -186t40 -249.5q0 -108 -26 -202t-72 -163t-108 -119t-135.5 -74.5t-153.5 -24.5q-100 0 -189.5 39.5t-157.5 112.5t-107.5 184.5t-39.5 246.5zM201 555.5 q0 -113.5 32 -210.5t88.5 -164.5t134 -105t166 -37.5t166 37.5t133 105t88 164.5t32.5 210q0 91 -20.5 172.5t-58.5 145t-89.5 110t-116 71t-135.5 24.5q-88 0 -165.5 -38.5t-134 -107t-88.5 -166t-32 -211zM364 1419v66h514v-66h-514z" />
<glyph unicode="&#x14e;" horiz-adv-x="1512" d="M757 -28q-135 0 -251 57.5t-198.5 161t-129.5 254.5t-47 330t47 328.5t129.5 251t198 158t251 56.5t251 -56.5t198 -158t129.5 -251t47 -328.5t-47 -330t-129.5 -254.5t-198 -161t-250.5 -57.5zM757 42q162 0 286 90.5t192 257t68 385.5t-68 383.5t-191.5 252.5 t-286.5 88t-286.5 -88t-192 -252.5t-68.5 -383.5t68 -385.5t192.5 -257t286.5 -90.5zM757 1662q-50 0 -92.5 15.5t-71 40t-50 56.5t-33 63.5t-15.5 62.5h60q6 -33 20.5 -63.5t38 -56.5t61 -41.5t82.5 -15.5q37 0 68 10t53.5 27.5t39 41t26 48t14.5 50.5h60q-4 -31 -15.5 -62 t-32.5 -63.5t-50 -57t-71 -40t-92 -15.5z" />
<glyph unicode="&#x14f;" horiz-adv-x="1241" d="M127 555q0 110 25.5 205t71.5 164.5t108 119.5t136 75.5t153 25.5q100 0 189.5 -40.5t157.5 -114t108 -186t40 -249.5q0 -108 -26 -202t-72 -163t-108 -119t-135.5 -74.5t-153.5 -24.5q-100 0 -189.5 39.5t-157.5 112.5t-107.5 184.5t-39.5 246.5zM201 555.5 q0 -113.5 32 -210.5t88.5 -164.5t134 -105t166 -37.5t166 37.5t133 105t88 164.5t32.5 210q0 91 -20.5 172.5t-58.5 145t-89.5 110t-116 71t-135.5 24.5q-88 0 -165.5 -38.5t-134 -107t-88.5 -166t-32 -211zM621.5 1345q-53.5 0 -98.5 17.5t-74.5 45t-51 64.5t-32.5 72 t-15 71h60q6 -40 21 -76t40.5 -66.5t64 -48.5t85.5 -18q38 0 71 12t56 32t41 47.5t28 57t14 60.5h60q-4 -36 -14.5 -71t-32 -72t-51 -64.5t-74 -45t-98 -17.5z" />
<glyph unicode="&#x150;" horiz-adv-x="1512" d="M757 -28q-135 0 -251 57.5t-198.5 161t-129.5 254.5t-47 330t47 328.5t129.5 251t198 158t251 56.5t251 -56.5t198 -158t129.5 -251t47 -328.5t-47 -330t-129.5 -254.5t-198 -161t-250.5 -57.5zM757 42q162 0 286 90.5t192 257t68 385.5t-68 383.5t-191.5 252.5 t-286.5 88t-286.5 -88t-192 -252.5t-68.5 -383.5t68 -385.5t192.5 -257t286.5 -90.5zM621 1658h-66l160 242h89zM882 1658l159 242h89l-183 -242h-65z" />
<glyph unicode="&#x151;" horiz-adv-x="1241" d="M127 555q0 110 25.5 205t71.5 164.5t108 119.5t136 75.5t153 25.5q100 0 189.5 -40.5t157.5 -114t108 -186t40 -249.5q0 -108 -26 -202t-72 -163t-108 -119t-135.5 -74.5t-153.5 -24.5q-100 0 -189.5 39.5t-157.5 112.5t-107.5 184.5t-39.5 246.5zM201 555.5 q0 -113.5 32 -210.5t88.5 -164.5t134 -105t166 -37.5t166 37.5t133 105t88 164.5t32.5 210q0 91 -20.5 172.5t-58.5 145t-89.5 110t-116 71t-135.5 24.5q-88 0 -165.5 -38.5t-134 -107t-88.5 -166t-32 -211zM443 1330l169 318h83l-191 -318h-61zM742 1330l169 318h83 l-190 -318h-62z" />
<glyph unicode="&#x152;" horiz-adv-x="1932" d="M131 775q0 173 45 313t133 241.5t227 156.5t319 55h947v-66h-704v-620h584v-66h-584v-724h728v-65h-971q-145 0 -263.5 37t-203.5 104.5t-143 163.5t-86 214t-28 256zM210 775.5q0 -123.5 24 -230t76 -195.5t128 -152t184.5 -98t241.5 -35h159v1410h-159 q-133 0 -241.5 -34t-184.5 -95.5t-128 -149t-76 -192.5t-24 -228.5z" />
<glyph unicode="&#x153;" horiz-adv-x="1988" d="M201 555q0 -91 20 -172t57.5 -143.5t88 -108t113.5 -69.5t132 -24q118 0 211.5 64.5t146.5 183t53 269.5q0 114 -31 211.5t-85 166t-130.5 107t-164.5 38.5q-116 0 -209.5 -66t-147.5 -186t-54 -271zM127 555q0 110 25.5 205t71 164.5t106.5 120t133 75.5t149 25 q93 0 178 -38.5t156 -119t110 -194.5q60 163 172.5 257.5t251.5 94.5q195 0 307.5 -134.5t112.5 -380.5q0 -46 -4 -75h-804q-2 -110 30.5 -206.5t89 -164.5t135 -107t166.5 -39q164 0 308 102l33 -60q-43 -26 -68.5 -40t-71 -32.5t-96 -27t-110.5 -8.5q-152 0 -272 93.5 t-180 252.5q-63 -170 -177.5 -258t-266.5 -88q-97 0 -184 39.5t-154.5 112.5t-107 185t-39.5 246zM1092 617h739q0 225 -94.5 343t-256.5 118q-98 0 -182.5 -58t-139.5 -164t-66 -239z" />
<glyph unicode="&#x154;" horiz-adv-x="1288" d="M904 1900l-253 -242h-70l219 242h104zM308 793h322q217 0 330.5 87.5t113.5 264t-111 253.5t-333 77h-322v-682zM1176 0h-88l-435 728h-345v-728h-74v1541h425q495 0 495 -396q0 -182 -110.5 -288.5t-305.5 -123.5z" />
<glyph unicode="&#x155;" horiz-adv-x="713" d="M225 0v1116h60l9 -210h5q60 110 140.5 174.5t177.5 64.5q58 0 107 -24l-19 -65q-30 10 -49 14t-50 4q-84 0 -166.5 -72t-145.5 -227v-775h-69zM640 1648l-243 -313h-65l214 313h94z" />
<glyph unicode="&#x156;" horiz-adv-x="1288" d="M610 -182l23 61q91 -22 136.5 -61.5t45.5 -107.5q0 -41 -23 -75.5t-63 -57t-87 -37t-103 -21.5l-13 60q218 31 218 122q0 27 -11 48t-32 34t-42.5 21t-48.5 14zM308 793h322q217 0 330.5 87.5t113.5 264t-111 253.5t-333 77h-322v-682zM738 733l438 -733h-88l-435 728 h-345v-728h-74v1541h425q495 0 495 -396q0 -182 -110.5 -288.5t-305.5 -123.5z" />
<glyph unicode="&#x157;" horiz-adv-x="713" d="M225 0v1116h60l9 -210h5q60 110 140.5 174.5t177.5 64.5q58 0 107 -24l-19 -65q-30 10 -49 14t-50 4q-84 0 -166.5 -72t-145.5 -227v-775h-69zM196 -121q92 -22 137 -61.5t45 -107.5q0 -41 -22.5 -75.5t-62.5 -57t-87.5 -37t-102.5 -21.5l-14 60q219 31 219 122 q0 22 -8 40t-20.5 30t-31 21.5t-36 15t-39.5 10.5z" />
<glyph unicode="&#x158;" horiz-adv-x="1288" d="M689 1658h-65l-225 242h71l181 -172h10l181 172h71zM308 793h322q217 0 330.5 87.5t113.5 264t-111 253.5t-333 77h-322v-682zM1176 0h-88l-435 728h-345v-728h-74v1541h425q495 0 495 -396q0 -182 -110.5 -288.5t-305.5 -123.5z" />
<glyph unicode="&#x159;" horiz-adv-x="713" d="M225 0v1116h60l9 -210h5q60 110 140.5 174.5t177.5 64.5q58 0 107 -24l-19 -65q-30 10 -49 14t-50 4q-84 0 -166.5 -72t-145.5 -227v-775h-69zM421 1335l-220 313h65l182 -238h9l183 238h65l-219 -313h-65z" />
<glyph unicode="&#x15a;" horiz-adv-x="1203" d="M112 205l51 51q86 -100 205.5 -157t257.5 -57q184 0 295 92t111 240q0 43 -8.5 80t-21 65t-35 53.5t-43 43t-54.5 37t-58.5 32t-64.5 30.5l-239 107q-34 15 -58.5 27t-59.5 33t-60 41.5t-52 50t-43.5 62t-27.5 75t-11 89.5q0 108 57 192.5t155.5 130.5t221.5 46 q132 0 239.5 -51t181.5 -131l-47 -52q-69 77 -164 120.5t-210 43.5q-161 0 -260 -80.5t-99 -213.5q0 -40 10 -75.5t24 -61.5t39 -51.5t44.5 -41t52 -34t51 -27t50.5 -23.5l238 -107q42 -19 72.5 -34.5t66.5 -38t61.5 -44.5t51 -53t41 -64.5t25 -77.5t9.5 -94 q0 -86 -35 -161.5t-97 -129.5t-152 -84.5t-197 -30.5q-164 0 -292.5 62.5t-221.5 170.5zM876 1900l-252 -242h-71l220 242h103z" />
<glyph unicode="&#x15b;" horiz-adv-x="933" d="M80 127l47 55q81 -69 164.5 -106.5t198.5 -37.5q134 0 209.5 68.5t75.5 169.5q0 36 -11 67.5t-33 56.5t-46.5 44.5t-59.5 37.5t-63.5 29.5t-66.5 25.5h-1q-50 18 -75.5 27.5t-71 28.5t-70 34.5t-57 40.5t-49 51t-28.5 61t-12 75q0 58 23 110t66 92.5t110.5 64t150.5 23.5 q54 0 111 -15t106.5 -40t90.5 -58l-42 -56q-67 49 -129 75.5t-141 26.5q-68 0 -121.5 -18.5t-85.5 -50t-48.5 -69.5t-16.5 -80q0 -29 9 -54t20.5 -43.5t35.5 -37.5t42 -31t52 -27t54 -23t59 -23q13 -5 41 -15q47 -18 71.5 -27t66 -28.5t63.5 -35t51 -41t43.5 -52t25 -63 t10.5 -79.5q0 -61 -24 -116.5t-69 -98.5t-115 -68t-155 -25q-118 0 -222 42.5t-184 112.5zM670 1648l-242 -313h-67l216 313h93z" />
<glyph unicode="&#x15c;" horiz-adv-x="1203" d="M112 205l51 51q86 -100 205.5 -157t257.5 -57q184 0 295 92t111 240q0 43 -8.5 80t-21 65t-35 53.5t-43 43t-54.5 37t-58.5 32t-64.5 30.5l-239 107q-34 15 -58.5 27t-59.5 33t-60 41.5t-52 50t-43.5 62t-27.5 75t-11 89.5q0 108 57 192.5t155.5 130.5t221.5 46 q132 0 239.5 -51t181.5 -131l-47 -52q-69 77 -164 120.5t-210 43.5q-161 0 -260 -80.5t-99 -213.5q0 -40 10 -75.5t24 -61.5t39 -51.5t44.5 -41t52 -34t51 -27t50.5 -23.5l238 -107q42 -19 72.5 -34.5t66.5 -38t61.5 -44.5t51 -53t41 -64.5t25 -77.5t9.5 -94 q0 -86 -35 -161.5t-97 -129.5t-152 -84.5t-197 -30.5q-164 0 -292.5 62.5t-221.5 170.5zM441 1658h-69l223 242h66l224 -242h-70l-182 173h-9z" />
<glyph unicode="&#x15d;" horiz-adv-x="933" d="M80 127l47 55q81 -69 164.5 -106.5t198.5 -37.5q134 0 209.5 68.5t75.5 169.5q0 36 -11 67.5t-33 56.5t-46.5 44.5t-59.5 37.5t-63.5 29.5t-66.5 25.5h-1q-50 18 -75.5 27.5t-71 28.5t-70 34.5t-57 40.5t-49 51t-28.5 61t-12 75q0 58 23 110t66 92.5t110.5 64t150.5 23.5 q54 0 111 -15t106.5 -40t90.5 -58l-42 -56q-67 49 -129 75.5t-141 26.5q-68 0 -121.5 -18.5t-85.5 -50t-48.5 -69.5t-16.5 -80q0 -29 9 -54t20.5 -43.5t35.5 -37.5t42 -31t52 -27t54 -23t59 -23q13 -5 41 -15q47 -18 71.5 -27t66 -28.5t63.5 -35t51 -41t43.5 -52t25 -63 t10.5 -79.5q0 -61 -24 -116.5t-69 -98.5t-115 -68t-155 -25q-118 0 -222 42.5t-184 112.5zM231 1335l219 313h66l219 -313h-65l-182 238h-9l-183 -238h-65z" />
<glyph unicode="&#x15e;" horiz-adv-x="1203" d="M542 891l238 -107q42 -19 72.5 -34.5t66.5 -38t61.5 -44.5t51 -53t41 -64.5t25 -77.5t9.5 -94q0 -169 -121.5 -282t-322.5 -124l-53 -103q64 -20 101.5 -57t37.5 -102q0 -42 -23 -76t-62.5 -56.5t-86.5 -37t-103 -21.5l-15 60q220 31 220 122q0 22 -8 40t-21.5 30.5 t-35 23t-42.5 17.5t-51 15l76 145q-297 12 -485 233l51 51q86 -100 205.5 -157t257.5 -57q184 0 295 92t111 240q0 43 -8.5 80t-21 65t-35 53.5t-43 43t-54.5 37t-58.5 32t-64.5 30.5l-239 107q-34 15 -58.5 27t-59.5 33t-60 41.5t-52 50t-43.5 62t-27.5 75t-11 89.5 q0 108 57 192.5t155.5 130.5t221.5 46q132 0 239.5 -51t181.5 -131l-47 -52q-69 77 -164 120.5t-210 43.5q-161 0 -260 -80.5t-99 -213.5q0 -40 10 -75.5t24 -61.5t39 -51.5t44.5 -41t52 -34t51 -27t50.5 -23.5z" />
<glyph unicode="&#x15f;" horiz-adv-x="933" d="M789 1032l-42 -56q-67 49 -129 75.5t-141 26.5q-68 0 -121.5 -18.5t-85.5 -50t-48.5 -69.5t-16.5 -80q0 -29 9 -54t20.5 -43.5t35.5 -37.5t42 -31t52 -27t54 -23t59 -23q13 -5 41 -15q47 -18 71.5 -27t66 -28.5t63.5 -35t51 -41t43.5 -52t25 -63t10.5 -79.5 q0 -45 -13 -88t-39.5 -80t-64 -66t-88.5 -48t-112 -24l-53 -105q140 -43 140 -159q0 -41 -23 -75.5t-63 -57t-87.5 -37t-102.5 -21.5l-14 60q219 31 219 122q0 28 -11.5 48.5t-35 34.5t-48.5 23.5t-63 19.5l77 145q-113 3 -212 45.5t-175 109.5l47 55q81 -69 164.5 -106.5 t198.5 -37.5q134 0 209.5 68.5t75.5 169.5q0 36 -11 67.5t-33 56.5t-46.5 44.5t-59.5 37.5t-63.5 29.5t-66.5 25.5h-1q-50 18 -75.5 27.5t-71 28.5t-70 34.5t-57 40.5t-49 51t-28.5 61t-12 75q0 58 23 110t66 92.5t110.5 64t150.5 23.5q54 0 111 -15t106.5 -40t90.5 -58z " />
<glyph unicode="&#x160;" horiz-adv-x="1203" d="M112 205l51 51q86 -100 205.5 -157t257.5 -57q184 0 295 92t111 240q0 43 -8.5 80t-21 65t-35 53.5t-43 43t-54.5 37t-58.5 32t-64.5 30.5l-239 107q-34 15 -58.5 27t-59.5 33t-60 41.5t-52 50t-43.5 62t-27.5 75t-11 89.5q0 108 57 192.5t155.5 130.5t221.5 46 q132 0 239.5 -51t181.5 -131l-47 -52q-69 77 -164 120.5t-210 43.5q-161 0 -260 -80.5t-99 -213.5q0 -40 10 -75.5t24 -61.5t39 -51.5t44.5 -41t52 -34t51 -27t50.5 -23.5l238 -107q42 -19 72.5 -34.5t66.5 -38t61.5 -44.5t51 -53t41 -64.5t25 -77.5t9.5 -94 q0 -86 -35 -161.5t-97 -129.5t-152 -84.5t-197 -30.5q-164 0 -292.5 62.5t-221.5 170.5zM815 1900h70l-224 -242h-66l-223 242h69l183 -172h9z" />
<glyph unicode="&#x161;" horiz-adv-x="933" d="M80 127l47 55q81 -69 164.5 -106.5t198.5 -37.5q134 0 209.5 68.5t75.5 169.5q0 36 -11 67.5t-33 56.5t-46.5 44.5t-59.5 37.5t-63.5 29.5t-66.5 25.5h-1q-50 18 -75.5 27.5t-71 28.5t-70 34.5t-57 40.5t-49 51t-28.5 61t-12 75q0 58 23 110t66 92.5t110.5 64t150.5 23.5 q54 0 111 -15t106.5 -40t90.5 -58l-42 -56q-67 49 -129 75.5t-141 26.5q-68 0 -121.5 -18.5t-85.5 -50t-48.5 -69.5t-16.5 -80q0 -29 9 -54t20.5 -43.5t35.5 -37.5t42 -31t52 -27t54 -23t59 -23q13 -5 41 -15q47 -18 71.5 -27t66 -28.5t63.5 -35t51 -41t43.5 -52t25 -63 t10.5 -79.5q0 -61 -24 -116.5t-69 -98.5t-115 -68t-155 -25q-118 0 -222 42.5t-184 112.5zM450 1335l-219 313h65l183 -238h9l182 238h65l-219 -313h-66z" />
<glyph unicode="&#x162;" horiz-adv-x="1212" d="M644 0h-2l-67 -131q140 -43 140 -159q0 -41 -23 -75.5t-63 -57t-87.5 -37t-102.5 -21.5l-14 60q219 31 219 122q0 28 -11.5 48.5t-35 34.5t-49 23.5t-62.5 19.5l91 173h-7v1475h-500v66h1075v-66h-501v-1475z" />
<glyph unicode="&#x163;" horiz-adv-x="704" d="M499 -28l-53 -103q140 -43 140 -159q0 -41 -23 -75.5t-63 -57t-87.5 -37t-102.5 -21.5l-14 60q220 31 220 122q0 19 -5 34t-16 27t-24.5 21.5t-33 17.5t-38 13.5t-42.5 12.5l80 152q-54 11 -91.5 38t-58.5 69t-30.5 92.5t-9.5 115.5v757h-177v56l177 9l9 327h62v-327h331 v-65h-331v-766q0 -59 8 -100.5t28.5 -76.5t60.5 -52.5t99 -17.5q58 0 145 37l23 -61q-120 -42 -174 -42h-9z" />
<glyph unicode="&#x164;" horiz-adv-x="1212" d="M570 0v1475h-500v66h1075v-66h-501v-1475h-74zM791 1900h71l-225 -242h-65l-224 242h70l182 -172h10z" />
<glyph unicode="&#x165;" horiz-adv-x="704" d="M247 294v757h-177v56l177 9l9 327h62v-327h331v-65h-331v-766q0 -59 8 -100.5t28.5 -76.5t60.5 -52.5t99 -17.5q58 0 145 37l23 -61q-120 -42 -174 -42q-75 0 -127 22.5t-80.5 67t-41 100.5t-12.5 132zM606 1279h-51l-4 477h70v-112z" />
<glyph unicode="&#x168;" horiz-adv-x="1470" d="M229 575v966h74v-948q0 -124 23.5 -220.5t63 -157.5t95.5 -101t116.5 -56t131.5 -16q72 0 134 16t119.5 56t97.5 101t64 157.5t24 220.5v948h71v-966q0 -88 -12 -163t-33.5 -132.5t-50.5 -105t-66.5 -80.5t-77.5 -57t-86 -38t-91 -20.5t-93 -6.5q-55 0 -106 8t-102 28 t-94 50.5t-81 78.5t-64.5 109.5t-41.5 145t-15 183.5zM871 1676q-33 0 -65 14t-57 34t-49 40t-51 33.5t-54 13.5q-38 0 -64.5 -37.5t-33.5 -97.5h-51q2 35 12 69t28 64.5t47.5 49.5t66.5 19q33 0 64.5 -14t56.5 -34t49 -40t51.5 -34t54.5 -14q38 0 64.5 37.5t33.5 98.5h51 q-2 -36 -12 -70t-28 -64.5t-47.5 -49t-66.5 -18.5z" />
<glyph unicode="&#x169;" horiz-adv-x="1223" d="M205 397v719h71v-710q0 -188 64 -278t206 -90q102 0 188 56t195 186v836h71v-1116h-62l-9 192h-4q-92 -107 -183.5 -163.5t-199.5 -56.5q-172 0 -254.5 104t-82.5 321zM336 1359q2 34 10.5 65.5t25 61t46 47t68.5 17.5q31 0 61 -13.5t54 -32.5t47 -38.5t47.5 -33 t46.5 -13.5q74 0 89 131h56q-2 -33 -10.5 -64.5t-24.5 -61t-45.5 -47.5t-68.5 -18q-31 0 -61 13.5t-53.5 32.5t-46 38.5t-47.5 33t-49 13.5q-74 0 -89 -131h-56z" />
<glyph unicode="&#x16a;" horiz-adv-x="1470" d="M229 575v966h74v-948q0 -124 23.5 -220.5t63 -157.5t95.5 -101t116.5 -56t131.5 -16q72 0 134 16t119.5 56t97.5 101t64 157.5t24 220.5v948h71v-966q0 -88 -12 -163t-33.5 -132.5t-50.5 -105t-66.5 -80.5t-77.5 -57t-86 -38t-91 -20.5t-93 -6.5q-55 0 -106 8t-102 28 t-94 50.5t-81 78.5t-64.5 109.5t-41.5 145t-15 183.5zM479 1718v66h513v-66h-513z" />
<glyph unicode="&#x16b;" horiz-adv-x="1223" d="M205 397v719h71v-710q0 -188 64 -278t206 -90q102 0 188 56t195 186v836h71v-1116h-62l-9 192h-4q-92 -107 -183.5 -163.5t-199.5 -56.5q-172 0 -254.5 104t-82.5 321zM343 1419v66h514v-66h-514z" />
<glyph unicode="&#x16c;" horiz-adv-x="1470" d="M229 575v966h74v-948q0 -124 23.5 -220.5t63 -157.5t95.5 -101t116.5 -56t131.5 -16q72 0 134 16t119.5 56t97.5 101t64 157.5t24 220.5v948h71v-966q0 -88 -12 -163t-33.5 -132.5t-50.5 -105t-66.5 -80.5t-77.5 -57t-86 -38t-91 -20.5t-93 -6.5q-55 0 -106 8t-102 28 t-94 50.5t-81 78.5t-64.5 109.5t-41.5 145t-15 183.5zM735 1662q-50 0 -92 15.5t-70.5 40t-50 57t-32.5 63.5t-16 62h61q5 -33 19.5 -63.5t38 -56.5t60.5 -41.5t82.5 -15.5t82.5 15.5t60.5 41.5t38 56.5t19.5 63.5h60q-4 -31 -15 -62t-32.5 -63.5t-50 -57t-71 -40 t-92.5 -15.5z" />
<glyph unicode="&#x16d;" horiz-adv-x="1223" d="M205 397v719h71v-710q0 -188 64 -278t206 -90q102 0 188 56t195 186v836h71v-1116h-62l-9 192h-4q-92 -107 -183.5 -163.5t-199.5 -56.5q-172 0 -254.5 104t-82.5 321zM612 1345q-54 0 -98.5 17.5t-74 45t-51 64.5t-32.5 72t-15 71h60q6 -40 21 -76t40 -66.5t64 -48.5 t86 -18t86 18t63.5 48.5t40 66.5t20.5 76h60q-4 -36 -15 -71t-32 -72t-50.5 -64.5t-74 -45t-98.5 -17.5z" />
<glyph unicode="&#x16e;" horiz-adv-x="1470" d="M229 575v966h74v-948q0 -124 23.5 -220.5t63 -157.5t95.5 -101t116.5 -56t131.5 -16q72 0 134 16t119.5 56t97.5 101t64 157.5t24 220.5v948h71v-966q0 -88 -12 -163t-33.5 -132.5t-50.5 -105t-66.5 -80.5t-77.5 -57t-86 -38t-91 -20.5t-93 -6.5q-55 0 -106 8t-102 28 t-94 50.5t-81 78.5t-64.5 109.5t-41.5 145t-15 183.5zM735 1635q-38 0 -71.5 13.5t-58 37.5t-38.5 59t-14 76q0 82 52 134.5t130 52.5q76 0 129.5 -53t53.5 -134.5t-53.5 -133.5t-129.5 -52zM735 1686q52 0 87 35.5t35 99.5q0 61 -35.5 98t-86.5 37q-53 0 -89 -37t-36 -98 q0 -43 17 -74t45 -46t63 -15z" />
<glyph unicode="&#x16f;" horiz-adv-x="1223" d="M205 397v719h71v-710q0 -188 64 -278t206 -90q102 0 188 56t195 186v836h71v-1116h-62l-9 192h-4q-92 -107 -183.5 -163.5t-199.5 -56.5q-172 0 -254.5 104t-82.5 321zM612 1256q-51 0 -92.5 24.5t-65.5 69.5t-24 102q0 43 14 80t38.5 62.5t58 39.5t71.5 14 q78 0 129.5 -54.5t51.5 -141t-51.5 -141.5t-129.5 -55zM612.5 1308q53.5 0 89.5 39.5t36 104.5q0 44 -17 77t-45.5 50.5t-63.5 17.5q-53 0 -89.5 -40t-36.5 -105t36.5 -104.5t90 -39.5z" />
<glyph unicode="&#x170;" horiz-adv-x="1470" d="M229 575v966h74v-948q0 -124 23.5 -220.5t63 -157.5t95.5 -101t116.5 -56t131.5 -16q72 0 134 16t119.5 56t97.5 101t64 157.5t24 220.5v948h71v-966q0 -88 -12 -163t-33.5 -132.5t-50.5 -105t-66.5 -80.5t-77.5 -57t-86 -38t-91 -20.5t-93 -6.5q-55 0 -106 8t-102 28 t-94 50.5t-81 78.5t-64.5 109.5t-41.5 145t-15 183.5zM600 1658h-65l158 242h89zM862 1658l158 242h89l-182 -242h-65z" />
<glyph unicode="&#x171;" horiz-adv-x="1223" d="M205 397v719h71v-710q0 -188 64 -278t206 -90q102 0 188 56t195 186v836h71v-1116h-62l-9 192h-4q-92 -107 -183.5 -163.5t-199.5 -56.5q-172 0 -254.5 104t-82.5 321zM434 1330l168 318h84l-191 -318h-61zM733 1330l169 318h83l-192 -318h-60z" />
<glyph unicode="&#x172;" horiz-adv-x="1470" d="M229 575v966h74v-948q0 -124 23.5 -220.5t63 -157.5t95.5 -101t116.5 -56t131.5 -16q72 0 134 16t119.5 56t97.5 101t64 157.5t24 220.5v948h71v-966q0 -83 -11 -153.5t-28 -122t-46 -97t-56 -75t-67.5 -59t-71 -46.5t-76.5 -40q-92 -47 -146.5 -121.5t-54.5 -140.5 q0 -41 18.5 -70t45.5 -42.5t58 -13.5q57 0 103 32l32 -47q-25 -21 -65 -36t-74 -15q-82 0 -134.5 48t-52.5 139q0 31 8 60.5t18 50.5t31 47.5t35 41t42 41.5q10 10 15 16q-92 -2 -169 15t-146.5 60.5t-117.5 111.5t-76 173.5t-28 242.5z" />
<glyph unicode="&#x173;" horiz-adv-x="1223" d="M205 397v719h71v-710q0 -189 63.5 -278.5t206.5 -89.5q102 0 188 56t195 186v836h71v-1116q-202 -135 -202 -280q0 -60 34.5 -93t82.5 -33q57 0 103 32l33 -47q-25 -21 -65 -36t-75 -15q-81 0 -132 48t-51 139q0 84 53 156.5t157 146.5l-9 174h-4q-92 -107 -183.5 -163.5 t-199.5 -56.5q-172 0 -254.5 104t-82.5 321z" />
<glyph unicode="&#x174;" horiz-adv-x="1782" d="M430 0l-360 1541h79l206 -935q18 -83 56 -251.5t56 -251.5h10q49 220 120 503l252 935h85l252 -935q21 -83 63 -251.5t63 -251.5h9q19 83 54 251.5t53 251.5l207 935h74l-355 -1541h-75l-299 1107q-14 60 -42 172.5t-42 172.5h-9q-12 -50 -28.5 -111t-32.5 -122.5 t-28 -111.5l-294 -1107h-74zM705 1658h-70l225 242h65l224 -242h-71l-182 173h-9z" />
<glyph unicode="&#x175;" horiz-adv-x="1568" d="M392 0l-336 1116h80l214 -752q7 -24 26.5 -92.5t31 -113t22.5 -88.5h9q60 205 84 294l215 752h98l215 -752q49 -177 83 -294h11q34 117 83 294l211 752h74l-327 -1116h-98l-210 728q-17 54 -45 159.5t-44 159.5h-9q-62 -233 -94 -323l-205 -724h-89zM535 1335l220 313h65 l219 -313h-65l-183 238h-9l-182 -238h-65z" />
<glyph unicode="&#x176;" horiz-adv-x="1016" d="M472 0v635l-463 906h80l247 -500q138 -275 168 -331h10q10 19 35 64.5t38 70t33 62t36 70t30 64.5l248 500h75l-463 -906v-635h-74zM323 1658h-71l225 242h65l224 -242h-71l-181 173h-10z" />
<glyph unicode="&#x177;" horiz-adv-x="989" d="M65 -430q46 -18 93 -18q101 0 176 85.5t123 231.5l33 103l-462 1144h79l285 -733q11 -28 37.5 -95t48.5 -121t41 -97h9q21 56 58.5 169t48.5 144l252 733h75l-448 -1274q-18 -56 -40.5 -105t-55.5 -97t-70.5 -82t-88 -55.5t-105.5 -21.5q-57 0 -107 24zM271 1335l219 313 h65l220 -313h-65l-182 238h-9l-183 -238h-65z" />
<glyph unicode="&#x178;" horiz-adv-x="1016" d="M472 0v635l-463 906h80l247 -500q138 -275 168 -331h10q10 19 35 64.5t38 70t33 62t36 70t30 64.5l248 500h75l-463 -906v-635h-74zM332 1700q-16 0 -30 5t-24 14.5t-16 23.5t-6 31q0 34 21.5 54.5t54 20.5t53.5 -20.5t21 -54.5t-21 -54t-53 -20zM686.5 1700 q-32.5 0 -53.5 20t-21 54t21 54.5t53.5 20.5t54 -20.5t21.5 -54.5t-21.5 -54t-54 -20z" />
<glyph unicode="&#x179;" horiz-adv-x="1255" d="M121 0v42l915 1433h-835v66h929v-42l-916 -1434h925v-65h-1018zM898 1900l-252 -242h-69l219 242h102z" />
<glyph unicode="&#x17a;" horiz-adv-x="924" d="M60 0v38l687 1013h-611v65h704v-38l-686 -1013h710v-65h-804zM689 1648l-243 -313h-65l214 313h94z" />
<glyph unicode="&#x17b;" horiz-adv-x="1255" d="M121 0v42l915 1433h-835v66h929v-42l-916 -1434h925v-65h-1018zM651 1691q-33 0 -56 23t-23 60q0 34 23.5 57t55.5 23q21 0 39 -10t29.5 -28.5t11.5 -41.5q0 -37 -23.5 -60t-56.5 -23z" />
<glyph unicode="&#x17c;" horiz-adv-x="924" d="M60 0v38l687 1013h-611v65h704v-38l-686 -1013h710v-65h-804zM502 1401q-16 0 -29.5 6t-23.5 17t-15.5 27t-5.5 34q0 35 21 57t53 22q21 0 38 -10t27 -28t10 -41q0 -37 -21.5 -60.5t-53.5 -23.5z" />
<glyph unicode="&#x17d;" horiz-adv-x="1255" d="M121 0v42l915 1433h-835v66h929v-42l-916 -1434h925v-65h-1018zM838 1900h71l-225 -242h-65l-225 242h71l181 -172h10z" />
<glyph unicode="&#x17e;" horiz-adv-x="924" d="M60 0v38l687 1013h-611v65h704v-38l-686 -1013h710v-65h-804zM470 1335l-220 313h65l182 -238h9l183 238h66l-220 -313h-65z" />
<glyph unicode="&#x180;" horiz-adv-x="1218" d="M294 836v-644q92 -79 184.5 -116.5t165.5 -37.5q120 0 215 65.5t148 182.5t53 265q0 83 -12.5 154t-41 132t-72 103.5t-107.5 67t-145 24.5q-171 0 -388 -196zM294 1139l-4 -224q216 183 396 183q149 0 250.5 -68.5t149.5 -189.5t48 -289q0 -107 -25.5 -200t-71.5 -162 t-108 -118.5t-136 -74t-153 -24.5q-80 0 -170 35t-171 96h-5l-9 -103h-60v1363h-183v56l183 9v258h69v-258h448v-65h-448v-224z" />
<glyph unicode="&#x18f;" horiz-adv-x="1502" d="M1296 710h-1071q9 -201 76 -353.5t182.5 -235.5t263.5 -83q155 0 276.5 83.5t192 236t80.5 352.5zM355 1345l-43 51q78 78 194 125.5t251 47.5q192 0 331 -97t212 -276t73 -421q0 -179 -46.5 -329.5t-128.5 -254.5t-198 -161.5t-253 -57.5q-136 0 -249 59.5t-189 165 t-118 250.5t-42 315v13h1149q0 220 -62.5 383.5t-184.5 254.5t-289 91q-118 0 -225.5 -42.5t-181.5 -116.5z" />
<glyph unicode="&#x192;" horiz-adv-x="1101" d="M1018 1526l-24 -60q-2 1 -12.5 5.5l-14 6t-14 5.5t-15.5 5.5t-15.5 4.5t-18 4.5t-18 3t-20.5 2.5t-21 1q-207 0 -248 -402l-16 -159h334v-65h-340l-71 -644q-12 -112 -36.5 -195.5t-65 -144.5t-100.5 -92t-139 -31q-75 0 -145 37l29 56q56 -27 126 -27q51 0 92 20.5 t69 55.5t48.5 86t32.5 106.5t19 123.5l70 649h-228v56l154 9h82l16 155q12 110 35.5 194t61.5 147.5t94.5 96.5t129.5 33q15 0 29 -1.5t24.5 -2.5t24.5 -5t20.5 -5.5t20 -7t17 -6.5t18 -7.5t15.5 -7.5z" />
<glyph unicode="&#x1a0;" horiz-adv-x="1512" d="M766 42q162 0 286 90.5t192 257t68 385.5t-68 383.5t-191.5 252.5t-286.5 88t-286.5 -88t-191.5 -252.5t-68 -383.5t68 -385.5t192 -257t286 -90.5zM1252 1746l60 38q42 -62 42 -122q0 -165 -227 -219q125 -102 195 -274t70 -394q0 -179 -47 -330t-129.5 -254.5 t-198.5 -161t-251 -57.5t-251 57.5t-198.5 161t-129.5 254.5t-47 330t47 328.5t129.5 251t198.5 158t251 56.5q156 0 287 -74q118 15 174.5 55t56.5 108q0 42 -32 88z" />
<glyph unicode="&#x1a1;" horiz-adv-x="1241" d="M621.5 38q88.5 0 166 37.5t133 105t88 164.5t32.5 210q0 91 -20.5 172.5t-58.5 145t-89.5 110t-116 71t-135.5 24.5q-88 0 -165.5 -38.5t-134 -107t-88.5 -166t-32 -211t32 -210.5t88.5 -164.5t134 -105t166 -37.5zM1013 1345l61 37q42 -63 42 -121q0 -48 -17 -85.5 t-49 -62t-65 -39.5t-76 -27q64 -50 110 -121t71.5 -166t25.5 -205q0 -108 -26 -202t-72 -163t-108 -119t-135.5 -74.5t-153.5 -24.5q-100 0 -189.5 39.5t-157.5 112.5t-107.5 184.5t-39.5 246.5q0 110 25.5 205t71.5 164.5t108 119.5t136 75.5t153 25.5q112 0 215 -53 q211 31 211 164q0 41 -34 89z" />
<glyph unicode="&#x1af;" horiz-adv-x="1493" d="M1368 1793l60 38q43 -63 43 -122q0 -41 -13 -74t-33.5 -55.5t-51.5 -40.5t-61.5 -29t-68.5 -20v-915q0 -88 -12 -163t-33.5 -132.5t-50.5 -105t-66.5 -80.5t-77.5 -57t-86 -38t-91 -20.5t-93 -6.5q-55 0 -106 8t-102 28t-94 50.5t-81 78.5t-64.5 109.5t-41.5 145 t-15 183.5v966h74v-948q0 -124 23.5 -220.5t63 -157.5t95.5 -101t116.5 -56t131.5 -16q72 0 134 16t119.5 56t97.5 101t64 157.5t24 220.5v948h4q80 9 129.5 30t72.5 53.5t23 79.5q0 41 -33 89z" />
<glyph unicode="&#x1b0;" horiz-adv-x="1223" d="M1102 1368l61 38q42 -63 42 -122q0 -162 -205 -215v-1069h-62l-9 192h-4q-92 -107 -183.5 -163.5t-199.5 -56.5q-172 0 -254.5 104t-82.5 321v719h71v-710q0 -188 64 -278t206 -90q102 0 188 56t195 186v836h5q200 29 200 163q0 43 -32 89z" />
<glyph unicode="&#x1cd;" horiz-adv-x="1212" d="M640 1658h-65l-225 242h71l181 -172h10l181 172h71zM315 617h581l-107 308q-125 359 -177 536h-10q-52 -177 -177 -536zM1112 0l-192 551h-628l-194 -551h-75l552 1541h65l550 -1541h-78z" />
<glyph unicode="&#x1ce;" horiz-adv-x="1152" d="M158 274q0 184 174.5 281.5t558.5 139.5q2 60 -3.5 111t-23.5 102.5t-48 88t-81 59t-118 22.5q-107 0 -203 -41t-162 -94l-38 57q32 23 69.5 44.5t90.5 46t118 39.5t129 15q76 0 135.5 -22.5t97.5 -61t63 -93t35 -114.5t10 -130v-724h-60l-11 149h-4q-221 -177 -406 -177 q-67 0 -124 17.5t-102 53t-71 95t-26 136.5zM234 276q0 -63 20 -110t55.5 -74.5t79.5 -40.5t97 -13q98 0 193.5 46.5t211.5 144.5v406q-242 -28 -388 -76.5t-207.5 -116.5t-61.5 -166zM575 1335l-220 313h66l181 -238h10l181 238h67l-220 -313h-65z" />
<glyph unicode="&#x1cf;" horiz-adv-x="541" d="M234 0v1541h74v-1541h-74zM457 1900h71l-225 -242h-65l-224 242h70l182 -172h10z" />
<glyph unicode="&#x1d0;" horiz-adv-x="517" d="M225 0v1116h69v-1116h-69zM227 1335l-220 313h65l182 -238h9l183 238h66l-220 -313h-65z" />
<glyph unicode="&#x1d1;" horiz-adv-x="1512" d="M757 -28q-135 0 -251 57.5t-198.5 161t-129.5 254.5t-47 330t47 328.5t129.5 251t198 158t251 56.5t251 -56.5t198 -158t129.5 -251t47 -328.5t-47 -330t-129.5 -254.5t-198 -161t-250.5 -57.5zM757 42q162 0 286 90.5t192 257t68 385.5t-68 383.5t-191.5 252.5 t-286.5 88t-286.5 -88t-192 -252.5t-68.5 -383.5t68 -385.5t192.5 -257t286.5 -90.5zM943 1900h70l-224 -242h-65l-225 242h71l181 -172h11z" />
<glyph unicode="&#x1d2;" horiz-adv-x="1241" d="M127 555q0 110 25.5 205t71.5 164.5t108 119.5t136 75.5t153 25.5q100 0 189.5 -40.5t157.5 -114t108 -186t40 -249.5q0 -108 -26 -202t-72 -163t-108 -119t-135.5 -74.5t-153.5 -24.5q-100 0 -189.5 39.5t-157.5 112.5t-107.5 184.5t-39.5 246.5zM201 555.5 q0 -113.5 32 -210.5t88.5 -164.5t134 -105t166 -37.5t166 37.5t133 105t88 164.5t32.5 210q0 91 -20.5 172.5t-58.5 145t-89.5 110t-116 71t-135.5 24.5q-88 0 -165.5 -38.5t-134 -107t-88.5 -166t-32 -211zM588 1335l-219 313h65l183 -238h9l182 238h65l-220 -313h-65z" />
<glyph unicode="&#x1d3;" horiz-adv-x="1470" d="M229 575v966h74v-948q0 -124 23.5 -220.5t63 -157.5t95.5 -101t116.5 -56t131.5 -16q72 0 134 16t119.5 56t97.5 101t64 157.5t24 220.5v948h71v-966q0 -88 -12 -163t-33.5 -132.5t-50.5 -105t-66.5 -80.5t-77.5 -57t-86 -38t-91 -20.5t-93 -6.5q-55 0 -106 8t-102 28 t-94 50.5t-81 78.5t-64.5 109.5t-41.5 145t-15 183.5zM922 1900h70l-224 -242h-66l-223 242h69l183 -172h9z" />
<glyph unicode="&#x1d4;" horiz-adv-x="1223" d="M205 397v719h71v-710q0 -188 64 -278t206 -90q102 0 188 56t195 186v836h71v-1116h-62l-9 192h-4q-92 -107 -183.5 -163.5t-199.5 -56.5q-172 0 -254.5 104t-82.5 321zM579 1335l-220 313h66l181 -238h11l181 238h66l-220 -313h-65z" />
<glyph unicode="&#x1d5;" horiz-adv-x="1470" d="M229 575v966h74v-948q0 -124 23.5 -220.5t63 -157.5t95.5 -101t116.5 -56t131.5 -16q72 0 134 16t119.5 56t97.5 101t64 157.5t24 220.5v948h71v-966q0 -88 -12 -163t-33.5 -132.5t-50.5 -105t-66.5 -80.5t-77.5 -57t-86 -38t-91 -20.5t-93 -6.5q-55 0 -106 8t-102 28 t-94 50.5t-81 78.5t-64.5 109.5t-41.5 145t-15 183.5zM479 1989v65h513v-65h-513zM557.5 1700q-21.5 0 -38 8.5t-26.5 25.5t-10 40q0 34 21 54.5t53.5 20.5t54 -20.5t21.5 -54.5q0 -23 -10 -40t-27 -25.5t-38.5 -8.5zM913 1700q-21 0 -38 8.5t-27 25.5t-10 40q0 17 6 31.5 t16 24t23.5 14.5t29.5 5q32 0 53 -20.5t21 -54.5t-20.5 -54t-53.5 -20z" />
<glyph unicode="&#x1d6;" horiz-adv-x="1223" d="M205 397v719h71v-710q0 -188 64 -278t206 -90q102 0 188 56t195 186v836h71v-1116h-62l-9 192h-4q-92 -107 -183.5 -163.5t-199.5 -56.5q-172 0 -254.5 104t-82.5 321zM434.5 1406q-31.5 0 -53.5 21t-22 53q0 15 6 29t16 24t24 16t29 6q21 0 38 -10t26.5 -27t9.5 -38 q0 -32 -21 -53t-52.5 -21zM789 1406q-32 0 -53 21t-21 52.5t21 53.5t53 22t53.5 -22t21.5 -53q0 -21 -10 -38t-27 -26.5t-38 -9.5zM350 1742v65h519v-65h-519z" />
<glyph unicode="&#x1d7;" horiz-adv-x="1470" d="M229 575v966h74v-948q0 -124 23.5 -220.5t63 -157.5t95.5 -101t116.5 -56t131.5 -16q72 0 134 16t119.5 56t97.5 101t64 157.5t24 220.5v948h71v-966q0 -88 -12 -163t-33.5 -132.5t-50.5 -105t-66.5 -80.5t-77.5 -57t-86 -38t-91 -20.5t-93 -6.5q-55 0 -106 8t-102 28 t-94 50.5t-81 78.5t-64.5 109.5t-41.5 145t-15 183.5zM661 1929l224 243h93l-252 -243h-65zM557.5 1700q-21.5 0 -38 8.5t-26.5 25.5t-10 40q0 34 21 54.5t53.5 20.5t54 -20.5t21.5 -54.5q0 -23 -10 -40t-27 -25.5t-38.5 -8.5zM913 1700q-21 0 -38 8.5t-27 25.5t-10 40 q0 17 6 31.5t16 24t23.5 14.5t29.5 5q32 0 53 -20.5t21 -54.5t-20.5 -54t-53.5 -20z" />
<glyph unicode="&#x1d8;" horiz-adv-x="1223" d="M205 397v719h71v-710q0 -188 64 -278t206 -90q102 0 188 56t195 186v836h71v-1116h-62l-9 192h-4q-92 -107 -183.5 -163.5t-199.5 -56.5q-172 0 -254.5 104t-82.5 321zM519 1648l186 224h99l-220 -224h-65zM434.5 1406q-31.5 0 -53.5 21t-22 53q0 15 6 29t16 24t24 16 t29 6q21 0 38 -10t26.5 -27t9.5 -38q0 -32 -21 -53t-52.5 -21zM789 1406q-32 0 -53 21t-21 52.5t21 53.5t53 22t53.5 -22t21.5 -53q0 -21 -10 -38t-27 -26.5t-38 -9.5z" />
<glyph unicode="&#x1d9;" horiz-adv-x="1470" d="M229 575v966h74v-948q0 -124 23.5 -220.5t63 -157.5t95.5 -101t116.5 -56t131.5 -16q72 0 134 16t119.5 56t97.5 101t64 157.5t24 220.5v948h71v-966q0 -88 -12 -163t-33.5 -132.5t-50.5 -105t-66.5 -80.5t-77.5 -57t-86 -38t-91 -20.5t-93 -6.5q-55 0 -106 8t-102 28 t-94 50.5t-81 78.5t-64.5 109.5t-41.5 145t-15 183.5zM557.5 1700q-21.5 0 -38 8.5t-26.5 25.5t-10 40q0 34 21 54.5t53.5 20.5t54 -20.5t21.5 -54.5q0 -23 -10 -40t-27 -25.5t-38.5 -8.5zM913 1700q-21 0 -38 8.5t-27 25.5t-10 40q0 17 6 31.5t16 24t23.5 14.5t29.5 5 q32 0 53 -20.5t21 -54.5t-20.5 -54t-53.5 -20zM922 2172h70l-224 -243h-66l-223 243h69l183 -174h9z" />
<glyph unicode="&#x1da;" horiz-adv-x="1223" d="M205 397v719h71v-710q0 -188 64 -278t206 -90q102 0 188 56t195 186v836h71v-1116h-62l-9 192h-4q-92 -107 -183.5 -163.5t-199.5 -56.5q-172 0 -254.5 104t-82.5 321zM579 1648l-220 224h71l176 -159h11l176 159h71l-220 -224h-65zM434.5 1406q-31.5 0 -53.5 21t-22 53 q0 15 6 29t16 24t24 16t29 6q21 0 38 -10t26.5 -27t9.5 -38q0 -32 -21 -53t-52.5 -21zM789 1406q-32 0 -53 21t-21 52.5t21 53.5t53 22t53.5 -22t21.5 -53q0 -21 -10 -38t-27 -26.5t-38 -9.5z" />
<glyph unicode="&#x1db;" horiz-adv-x="1470" d="M229 575v966h74v-948q0 -124 23.5 -220.5t63 -157.5t95.5 -101t116.5 -56t131.5 -16q72 0 134 16t119.5 56t97.5 101t64 157.5t24 220.5v948h71v-966q0 -88 -12 -163t-33.5 -132.5t-50.5 -105t-66.5 -80.5t-77.5 -57t-86 -38t-91 -20.5t-93 -6.5q-55 0 -106 8t-102 28 t-94 50.5t-81 78.5t-64.5 109.5t-41.5 145t-15 183.5zM586 2172l225 -243h-67l-252 243h94zM913 1700q-21 0 -38 8.5t-27 25.5t-10 40q0 17 6 31.5t16 24t23.5 14.5t29.5 5q32 0 53 -20.5t21 -54.5t-20.5 -54t-53.5 -20zM557.5 1700q-21.5 0 -38 8.5t-26.5 25.5t-10 40 q0 34 21 54.5t53.5 20.5t54 -20.5t21.5 -54.5q0 -23 -10 -40t-27 -25.5t-38.5 -8.5z" />
<glyph unicode="&#x1dc;" horiz-adv-x="1223" d="M205 397v719h71v-710q0 -188 64 -278t206 -90q102 0 188 56t195 186v836h71v-1116h-62l-9 192h-4q-92 -107 -183.5 -163.5t-199.5 -56.5q-172 0 -254.5 104t-82.5 321zM519 1872l186 -224h-65l-219 224h98zM789 1406q-32 0 -53 21t-21 52.5t21 53.5t53 22t53.5 -22 t21.5 -53q0 -21 -10 -38t-27 -26.5t-38 -9.5zM434.5 1406q-31.5 0 -53.5 21t-22 53q0 15 6 29t16 24t24 16t29 6q21 0 38 -10t26.5 -27t9.5 -38q0 -32 -21 -53t-52.5 -21z" />
<glyph unicode="&#x1e6;" horiz-adv-x="1399" d="M131 775q0 180 48.5 328.5t135.5 251t212.5 158.5t276.5 56q239 0 410 -182l-47 -52q-147 164 -363 164q-183 0 -317.5 -88t-205.5 -251.5t-71 -384.5t68 -386t198.5 -256t307.5 -91q113 0 211.5 33t158.5 93v509h-383v65h457v-597q-73 -80 -188 -126.5t-260 -46.5 q-194 0 -341.5 99t-227.5 281.5t-80 422.5zM987 1900h71l-225 -242h-65l-224 242h70l182 -172h10z" />
<glyph unicode="&#x1e7;" horiz-adv-x="1120" d="M201 -229q0 -114 102.5 -183t284.5 -69q96 0 179.5 26.5t138 69.5t86 97t31.5 110q0 65 -31.5 105.5t-90.5 59t-150 18.5h-256q-55 0 -136 18q-80 -54 -119 -119.5t-39 -132.5zM127 -234q0 73 44.5 146t122.5 130v9q-44 27 -71 72.5t-27 105.5q0 36 12 70t32 59.5 t38.5 43.5t39.5 32v9q-59 51 -99.5 132.5t-40.5 175.5q0 111 50.5 201t138.5 141.5t194 51.5q75 0 144 -29h373v-65h-270q41 -33 71 -78t47 -102.5t17 -119.5q0 -83 -30 -156.5t-80.5 -126t-121.5 -83t-150 -30.5q-50 0 -102 13.5t-90 37.5q-46 -38 -72 -78t-26 -94 q0 -34 10.5 -60.5t34 -48.5t67.5 -33.5t107 -11.5h248q185 0 272.5 -61.5t87.5 -191.5q0 -71 -37 -137.5t-102.5 -119t-163.5 -84.5t-211 -32q-212 0 -334.5 85.5t-122.5 226.5zM561 421q61 0 117 24t98 67t67.5 105.5t25.5 133.5q0 73 -24.5 135t-66.5 103.5t-98.5 65 t-119 23.5t-118.5 -23t-98.5 -64.5t-67 -103.5t-24.5 -136q0 -71 25.5 -133.5t68 -105.5t98.5 -67t117 -24zM504 1335l-219 313h65l182 -238h10l182 238h65l-219 -313h-66z" />
<glyph unicode="&#x1ea;" horiz-adv-x="1512" d="M644 -285q0 68 35.5 134.5t104.5 122.5q-198 -3 -346.5 96.5t-227.5 282.5t-79 424q0 179 47 328.5t129.5 251t198 158t251 56.5t251 -56.5t198 -158t129.5 -251t47 -328.5q0 -299 -118 -492.5t-353 -300.5q-96 -43 -146 -116.5t-50 -145.5q0 -60 35.5 -93t85.5 -33 q56 0 102 32l33 -47q-25 -21 -65 -36t-75 -15q-81 0 -134 48t-53 139zM757 42q162 0 286 90.5t192 257t68 385.5t-68 383.5t-191.5 252.5t-286.5 88t-286.5 -88t-192 -252.5t-68.5 -383.5t68 -385.5t192.5 -257t286.5 -90.5z" />
<glyph unicode="&#x1eb;" horiz-adv-x="1241" d="M504 -285q0 78 41 147t90 110q-105 0 -197.5 39.5t-162 112.5t-109 184.5t-39.5 246.5q0 110 25.5 205t71.5 164.5t108 119.5t136 75.5t153 25.5q100 0 189.5 -40.5t157.5 -114t108 -186t40 -249.5q0 -95 -17.5 -174t-48.5 -138.5t-78 -109.5t-100 -85t-121 -66 q-76 -35 -126 -110t-50 -152q0 -31 9.5 -55.5t25.5 -39.5t37 -23t44 -8q56 0 102 32l33 -47q-25 -21 -65 -36t-75 -15q-81 0 -131.5 48t-50.5 139zM201 555.5q0 -113.5 32 -210.5t88.5 -164.5t134 -105t166 -37.5t166 37.5t133 105t88 164.5t32.5 210q0 91 -20.5 172.5 t-58.5 145t-89.5 110t-116 71t-135.5 24.5q-88 0 -165.5 -38.5t-134 -107t-88.5 -166t-32 -211z" />
<glyph unicode="&#x218;" horiz-adv-x="1203" d="M112 205l51 51q86 -100 205.5 -157t257.5 -57q184 0 295 92t111 240q0 43 -8.5 80t-21 65t-35 53.5t-43 43t-54.5 37t-58.5 32t-64.5 30.5l-239 107q-34 15 -58.5 27t-59.5 33t-60 41.5t-52 50t-43.5 62t-27.5 75t-11 89.5q0 108 57 192.5t155.5 130.5t221.5 46 q132 0 239.5 -51t181.5 -131l-47 -52q-69 77 -164 120.5t-210 43.5q-161 0 -260 -80.5t-99 -213.5q0 -40 10 -75.5t24 -61.5t39 -51.5t44.5 -41t52 -34t51 -27t50.5 -23.5l238 -107q42 -19 72.5 -34.5t66.5 -38t61.5 -44.5t51 -53t41 -64.5t25 -77.5t9.5 -94 q0 -86 -35 -161.5t-97 -129.5t-152 -84.5t-197 -30.5q-164 0 -292.5 62.5t-221.5 170.5zM568 -121q91 -22 136 -61.5t45 -107.5q0 -42 -23 -76t-62.5 -56.5t-86.5 -37t-103 -21.5l-15 60q220 31 220 122q0 27 -11.5 48t-32.5 34t-42.5 21t-48.5 14z" />
<glyph unicode="&#x219;" horiz-adv-x="933" d="M80 127l47 55q81 -69 164.5 -106.5t198.5 -37.5q134 0 209.5 68.5t75.5 169.5q0 36 -11 67.5t-33 56.5t-46.5 44.5t-59.5 37.5t-63.5 29.5t-66.5 25.5h-1q-50 18 -75.5 27.5t-71 28.5t-70 34.5t-57 40.5t-49 51t-28.5 61t-12 75q0 58 23 110t66 92.5t110.5 64t150.5 23.5 q54 0 111 -15t106.5 -40t90.5 -58l-42 -56q-67 49 -129 75.5t-141 26.5q-68 0 -121.5 -18.5t-85.5 -50t-48.5 -69.5t-16.5 -80q0 -29 9 -54t20.5 -43.5t35.5 -37.5t42 -31t52 -27t54 -23t59 -23q13 -5 41 -15q47 -18 71.5 -27t66 -28.5t63.5 -35t51 -41t43.5 -52t25 -63 t10.5 -79.5q0 -61 -24 -116.5t-69 -98.5t-115 -68t-155 -25q-118 0 -222 42.5t-184 112.5zM446 -121q91 -22 136.5 -61.5t45.5 -107.5q0 -41 -23 -75.5t-63 -57t-87 -37t-103 -21.5l-13 60q218 31 218 122q0 27 -11 48t-32 34t-42.5 21t-48.5 14z" />
<glyph unicode="&#x21a;" horiz-adv-x="1212" d="M570 0v1475h-500v66h1075v-66h-501v-1475h-74zM553 -121q91 -22 136.5 -61.5t45.5 -107.5q0 -41 -23 -75.5t-62.5 -57t-87 -37t-103.5 -21.5l-13 60q220 31 220 122q0 22 -8 40t-21 30t-31.5 21.5t-36 15t-39.5 10.5z" />
<glyph unicode="&#x21b;" horiz-adv-x="704" d="M247 294v757h-177v56l177 9l9 327h62v-327h331v-65h-331v-766q0 -59 8 -100.5t28.5 -76.5t60.5 -52.5t99 -17.5q58 0 145 37l23 -61q-120 -42 -174 -42q-75 0 -127 22.5t-80.5 67t-41 100.5t-12.5 132zM399 -121q91 -22 136.5 -61.5t45.5 -107.5q0 -41 -22.5 -75.5 t-62.5 -57t-87.5 -37t-102.5 -21.5l-14 60q220 31 220 122q0 27 -11.5 48t-32.5 34t-42.5 21t-49.5 14z" />
<glyph unicode="&#x237;" horiz-adv-x="517" d="M225 -229v1345h69v-1354q0 -160 -56.5 -234t-172.5 -74q-68 0 -135 27l19 62q75 -24 121 -24q38 0 66 12.5t45 34t27 54.5t13.5 68.5t3.5 82.5z" />
<glyph unicode="&#x243;" horiz-adv-x="1357" d="M336 65h327q250 0 386.5 94t136.5 284q0 173 -135 259.5t-388 86.5h-327v-308h402v-65h-402v-351zM336 1475v-620h281q167 0 271.5 36t152 106t47.5 179q0 155 -114.5 227t-343.5 72h-294zM887 831v-9q86 -13 155 -42.5t118 -76t75 -111.5t26 -144q0 -217 -151.5 -332.5 t-418.5 -115.5h-430v416h-181v61l181 4v1060h402q237 0 368.5 -94.5t131.5 -279.5q0 -124 -71 -212.5t-205 -123.5z" />
<glyph unicode="&#x251;" horiz-adv-x="1259" d="M201 555q0 -154 45 -270t134 -181.5t213 -65.5q95 0 185 48.5t189 147.5v691q-94 82 -175.5 117.5t-170.5 35.5q-117 0 -213.5 -70t-151.5 -190t-55 -263zM127 555q0 132 39.5 243.5t107.5 186.5t159 117.5t193 42.5q95 0 171.5 -33.5t164.5 -102.5h5l4 107h65v-1116h-60 l-9 149h-5q-178 -177 -374 -177q-214 0 -337.5 152t-123.5 431z" />
<glyph unicode="&#x259;" horiz-adv-x="1114" d="M89 508q0 47 4 76h822q0 141 -45.5 252t-136.5 176.5t-214 65.5q-96 0 -174 -29t-153 -82l-34 60q81 55 166 86.5t199 31.5q102 0 187.5 -39.5t147.5 -112.5t97 -184t35 -248q0 -108 -22 -201t-63 -164t-97 -121.5t-126 -76.5t-150 -26q-95 0 -175.5 34.5t-140.5 100 t-93.5 169t-33.5 232.5zM158 523q0 -123 28.5 -217t79 -152t118 -87t148.5 -29q167 0 267.5 129.5t115.5 355.5h-757z" />
<glyph unicode="&#x261;" horiz-adv-x="1259" d="M252 -364q158 -119 350 -119q177 0 271 102.5t94 287.5v271q-79 -81 -175.5 -132t-203.5 -51q-214 0 -337.5 149.5t-123.5 425.5q0 130 39.5 239t108 182t159 113.5t192.5 40.5q95 0 171 -32.5t161 -99.5h4l9 103h65v-1228q0 -198 -115 -316t-319 -118q-216 0 -388 121z M593 60q95 0 185 49t189 147v669q-94 82 -175.5 117.5t-170.5 35.5q-117 0 -213.5 -67t-151.5 -183.5t-55 -257.5q0 -114 26 -207.5t75 -161t123.5 -104.5t167.5 -37z" />
<glyph unicode="&#x2b0;" horiz-adv-x="820" d="M140 630v1107h65v-318v-167q56 60 124.5 97.5t137.5 37.5q65 0 111.5 -20t72.5 -59t37.5 -88t11.5 -113v-477h-65v462q0 56 -8 96t-27 72.5t-56 49t-91 16.5q-108 0 -248 -140v-556h-65z" />
<glyph unicode="&#x2b2;" horiz-adv-x="354" d="M47 276q-44 0 -94 18l19 61q34 -14 70 -14q59 0 81 38.5t22 115.5v873h65v-864q0 -120 -40.5 -174t-122.5 -54zM182.5 1546q-28.5 0 -47.5 18.5t-19 46.5t19 46.5t47.5 18.5t46.5 -18.5t18 -46.5t-18 -46.5t-46.5 -18.5z" />
<glyph unicode="&#x2b3;" horiz-adv-x="499" d="M140 630v738h52l13 -131h9q90 150 211 150q49 0 79 -14l-18 -65q-28 9 -65 9q-59 0 -114 -43.5t-97 -139.5v-504h-70z" />
<glyph unicode="&#x2b7;" horiz-adv-x="1068" d="M256 630l-218 738h74l131 -477l56 -200h9l56 200l131 477h80l135 -477l56 -200h9l61 200l126 477h70l-219 -738h-89l-127 453l-60 215h-5l-55 -215l-132 -453h-89z" />
<glyph unicode="&#x2b8;" horiz-adv-x="681" d="M56 378q29 -14 60 -14q65 0 113.5 53t78.5 144l19 58l-309 749h71l182 -457q11 -30 40 -103.5t44 -112.5h9q12 42 39 115t36 101l154 457h70l-289 -817q-13 -40 -30 -75t-40 -68.5t-50.5 -57t-62.5 -37.5t-75 -14q-44 0 -78 13z" />
<glyph unicode="&#x2b9;" horiz-adv-x="484" d="M192 1163l55 457h65l-18 -149l-56 -308h-46z" />
<glyph unicode="&#x2bb;" horiz-adv-x="484" d="M318 1648l37 -42q-79 -68 -114.5 -131t-35.5 -156q5 2 20 2q31 0 54.5 -19t23.5 -55q0 -38 -21.5 -59t-56.5 -21q-26 0 -46 15.5t-31.5 46.5t-11.5 74q0 215 182 345z" />
<glyph unicode="&#x2bc;" horiz-adv-x="484" d="M168 1154l-37 42q79 68 114 130.5t35 155.5q-4 -2 -19 -2q-31 0 -55 19.5t-24 55.5q0 38 21.5 59t57.5 21q40 0 64.5 -35.5t24.5 -100.5q0 -215 -182 -345z" />
<glyph unicode="&#x2be;" horiz-adv-x="321" d="M80 1256v47q54 0 91.5 19t54.5 52t17 78q0 34 -10 61t-29.5 47t-51 31t-72.5 11v46q102 4 162.5 -48.5t60.5 -147t-60.5 -147t-162.5 -49.5z" />
<glyph unicode="&#x2bf;" horiz-adv-x="368" d="M285 1648v-46q-41 0 -72.5 -11t-51.5 -31t-30 -47t-10 -61q0 -69 41.5 -109t122.5 -40v-47q-68 -2 -118.5 20.5t-78.5 68t-28 107.5q0 95 61.5 147.5t163.5 48.5z" />
<glyph unicode="&#x2c6;" horiz-adv-x="1241" d="M369 1335l219 313h65l220 -313h-65l-182 238h-9l-183 -238h-65z" />
<glyph unicode="&#x2c7;" horiz-adv-x="1241" d="M588 1335l-219 313h65l183 -238h9l182 238h65l-220 -313h-65z" />
<glyph unicode="&#x2c8;" horiz-adv-x="205" d="M80 1232l-15 392h75l-13 -392h-47z" />
<glyph unicode="&#x2c9;" horiz-adv-x="588" d="M38 1419v66h513v-66h-513z" />
<glyph unicode="&#x2ca;" horiz-adv-x="503" d="M434 1648l-242 -313h-65l214 313h93z" />
<glyph unicode="&#x2cb;" horiz-adv-x="503" d="M303 1335l-243 313h94l215 -313h-66z" />
<glyph unicode="&#x2cc;" horiz-adv-x="205" d="M80 -178h47l13 -392h-75z" />
<glyph unicode="&#x2d8;" horiz-adv-x="1241" d="M621.5 1345q-53.5 0 -98.5 17.5t-74.5 45t-51 64.5t-32.5 72t-15 71h60q6 -40 21 -76t40.5 -66.5t64 -48.5t85.5 -18q38 0 71 12t56 32t41 47.5t28 57t14 60.5h60q-4 -36 -14.5 -71t-32 -72t-51 -64.5t-74 -45t-98 -17.5z" />
<glyph unicode="&#x2d9;" horiz-adv-x="1241" d="M621 1401q-32 0 -53.5 23.5t-21.5 60.5q0 35 21.5 57t53.5 22t53 -22t21 -57q0 -37 -21 -60.5t-53 -23.5z" />
<glyph unicode="&#x2da;" horiz-adv-x="1241" d="M621 1256q-51 0 -92.5 24.5t-65.5 69.5t-24 102q0 43 14 80t38.5 62.5t58 39.5t71.5 14q78 0 130.5 -54.5t52.5 -141t-52.5 -141.5t-130.5 -55zM621.5 1308q53.5 0 89.5 39.5t36 104.5q0 44 -17 77t-45.5 50.5t-63.5 17.5t-63.5 -17.5t-45.5 -50.5t-17 -77 q0 -65 36.5 -104.5t90 -39.5z" />
<glyph unicode="&#x2db;" horiz-adv-x="1241" d="M504 -285q0 82 48 159.5t121 134.5h89q-86 -61 -136.5 -137.5t-50.5 -151.5q0 -31 9.5 -55.5t25.5 -39.5t37 -23t44 -8q56 0 102 32l33 -47q-25 -21 -65 -36t-75 -15q-81 0 -131.5 48t-50.5 139z" />
<glyph unicode="&#x2dc;" horiz-adv-x="1241" d="M345 1359q2 34 10.5 65.5t25 61t46 47t68.5 17.5q31 0 61 -13.5t54 -32.5t47 -38.5t47.5 -33t46.5 -13.5q74 0 89 131h56q-2 -33 -10.5 -64.5t-24.5 -61t-45.5 -47.5t-68.5 -18q-31 0 -61 13.5t-53.5 32.5t-46 38.5t-47.5 33t-49 13.5q-74 0 -89 -131h-56z" />
<glyph unicode="&#x2dd;" horiz-adv-x="1241" d="M443 1330l169 318h83l-191 -318h-61zM742 1330l169 318h83l-190 -318h-62z" />
<glyph unicode="&#x2e1;" horiz-adv-x="368" d="M140 738v999h65v-1013q0 -51 38 -51q19 0 33 4l14 -56q-28 -9 -52 -9q-51 0 -74.5 30.5t-23.5 95.5z" />
<glyph unicode="&#x2e2;" horiz-adv-x="634" d="M51 715l42 51q119 -93 243 -93q79 0 125.5 41.5t46.5 102.5q0 22 -6.5 40.5t-21 33.5t-29 26.5t-38.5 23t-41 18t-45 17.5q-26 10 -38 14.5t-36.5 15t-37 17.5t-33 19t-31.5 22.5t-25 25.5t-20.5 30.5t-11.5 34.5t-5 41q0 76 61.5 133.5t167.5 57.5q124 0 224 -75 l-43 -51q-46 35 -84 50t-97 15q-75 0 -117.5 -38t-42.5 -88q0 -24 9.5 -44t21.5 -33t37 -27t41.5 -21.5t50.5 -20.5q4 -2 6.5 -3t5.5 -2l6 -2q12 -5 35 -14t35.5 -14t33 -14t32.5 -16t29 -17.5t26.5 -20.5t21 -24t17 -28.5t9.5 -33t4 -39.5q0 -94 -68.5 -154t-174.5 -60 q-157 0 -285 103z" />
<glyph unicode="&#x2e3;" horiz-adv-x="639" d="M18 630l262 388l-238 350h79l122 -182l80 -121h9l74 121l117 182h74l-233 -355l253 -383h-80l-127 196l-87 136h-11l-92 -136l-127 -196h-75z" />
<glyph unicode="&#x300;" d="M56 1335l-243 313h94l214 -313h-65z" />
<glyph unicode="&#x301;" d="M187 1648l-243 -313h-65l214 313h94z" />
<glyph unicode="&#x302;" d="M-252 1335l219 313h66l219 -313h-65l-182 238h-10l-182 -238h-65z" />
<glyph unicode="&#x303;" d="M-276 1359q2 34 10.5 65.5t24.5 61t45.5 47t68.5 17.5q31 0 61.5 -13.5t55 -32.5t47 -38.5t47.5 -33t47 -13.5q74 0 89 131h56q-2 -33 -10.5 -64.5t-24.5 -61t-45.5 -47.5t-68.5 -18q-31 0 -61 13.5t-54 32.5t-46.5 38.5t-47.5 33t-49 13.5q-74 0 -89 -131h-56z" />
<glyph unicode="&#x304;" d="M-256 1419v66h512v-66h-512z" />
<glyph unicode="&#x306;" d="M0 1345q-54 0 -98.5 17.5t-74 45t-51 64.5t-32.5 72t-15 71h61q6 -40 21 -76t40 -66.5t63.5 -48.5t85.5 -18t85.5 18t63.5 48.5t40 66.5t21 76h61q-4 -36 -15 -71t-32.5 -72t-51 -64.5t-74 -45t-98.5 -17.5z" />
<glyph unicode="&#x307;" d="M0 1401q-32 0 -53.5 23.5t-21.5 60.5q0 35 21.5 57t53.5 22t53.5 -22t21.5 -57q0 -37 -21.5 -60.5t-53.5 -23.5z" />
<glyph unicode="&#x308;" d="M-178 1406q-21 0 -38 9.5t-26.5 26.5t-9.5 38t9.5 38t26.5 27t38 10q32 0 53.5 -22t21.5 -53q0 -21 -10 -38t-27 -26.5t-38 -9.5zM178 1406q-32 0 -53.5 21t-21.5 53q0 15 5.5 29t15.5 24t24 16t30 6q21 0 38 -10t26.5 -27t9.5 -38t-9.5 -38t-26.5 -26.5t-38 -9.5z" />
<glyph unicode="&#x309;" d="M-51 1284l-19 51q74 24 114 55.5t40 80.5q0 110 -200 117l4 60q30 -1 58 -4.5t54.5 -10.5t49.5 -16.5t42 -23t33 -30t21.5 -38t7.5 -45.5q0 -34 -12 -62t-30.5 -47.5t-47 -37t-54.5 -28t-61 -21.5z" />
<glyph unicode="&#x30a;" d="M0 1256q-51 0 -92.5 24.5t-65.5 69.5t-24 102q0 87 52 141.5t130 54.5t130 -54.5t52 -141t-52 -141.5t-130 -55zM0 1308q54 0 90.5 39.5t36.5 104.5t-36.5 105t-90.5 40q-35 0 -63.5 -17.5t-46 -50.5t-17.5 -77q0 -65 36.5 -104.5t90.5 -39.5z" />
<glyph unicode="&#x30b;" d="M-178 1330l169 318h84l-191 -318h-62zM121 1330l169 318h84l-192 -318h-61z" />
<glyph unicode="&#x30c;" d="M-33 1335l-219 313h65l182 -238h10l182 238h65l-219 -313h-66z" />
<glyph unicode="&#x30f;" d="M9 1648l169 -318h-62l-191 318h84zM-290 1648l169 -318h-61l-192 318h84z" />
<glyph unicode="&#x312;" d="M60 1662l33 -51q-121 -71 -121 -189q4 2 19 2q29 0 51.5 -17t22.5 -53q0 -39 -19.5 -59t-50.5 -20q-42 0 -65 34.5t-23 100.5q0 36 8.5 70.5t26 67.5t48 62.5t70.5 51.5z" />
<glyph unicode="&#x313;" d="M-60 1275l-33 51q121 70 121 189q-4 -2 -19 -2q-29 0 -51.5 17.5t-22.5 52.5q0 40 19.5 59.5t50.5 19.5q42 0 65 -35t23 -101q0 -75 -37 -142t-116 -109z" />
<glyph unicode="&#x31b;" d="M-5 1027l-13 61q118 13 173 53t55 111q0 42 -32 89l60 36q42 -62 42 -121q0 -190 -285 -229z" />
<glyph unicode="&#x323;" d="M0 -443q-21 0 -38 10t-27 29.5t-10 44.5q0 34 21.5 56.5t53.5 22.5t53.5 -22.5t21.5 -56.5q0 -38 -21.5 -61t-53.5 -23z" />
<glyph unicode="&#x324;" d="M-177.5 -439q-31.5 0 -53 22t-21.5 53.5t21.5 52.5t53 21t53 -21t21.5 -52.5t-21.5 -53.5t-53 -22zM177.5 -439q-31.5 0 -53 22t-21.5 53.5t21.5 52.5t53 21t53 -21t21.5 -52.5t-21.5 -53.5t-53 -22z" />
<glyph unicode="&#x326;" d="M-56 -121q92 -22 137.5 -61.5t45.5 -107.5q0 -41 -23 -75.5t-63 -57t-87.5 -37t-102.5 -21.5l-14 60q219 31 219 122q0 27 -11.5 48t-32.5 34t-42.5 21t-49.5 14z" />
<glyph unicode="&#x327;" d="M-103 -173l94 178h65l-70 -136q141 -43 141 -159q0 -41 -23 -75.5t-63 -57t-87.5 -37t-102.5 -21.5l-14 60q219 31 219 122q0 28 -11.5 48.5t-35 34.5t-49 23.5t-63.5 19.5z" />
<glyph unicode="&#x328;" d="M-116 -285q0 82 47.5 159.5t119.5 134.5h89q-86 -61 -136.5 -137.5t-50.5 -151.5q0 -60 34 -93t83 -33q57 0 103 32l32 -47q-25 -21 -65 -36t-75 -15q-81 0 -131 48t-50 139z" />
<glyph unicode="&#x32e;" d="M0 -472q-45 0 -84 12t-66.5 33.5t-49.5 48t-36.5 58t-23 61t-11.5 58.5h61q6 -40 21 -76t40 -66.5t63.5 -48.5t85.5 -18t85.5 18t63.5 48.5t40 66.5t21 76h61q-3 -25 -9 -50t-17.5 -52t-26.5 -51t-37 -46t-48 -37.5t-60 -25t-73 -9.5z" />
<glyph unicode="&#x331;" d="M256 -299v-65h-517v65h517z" />
<glyph unicode="&#x3c0;" horiz-adv-x="1223" d="M266 0v1047h-201v60l155 9h925v-69h-187v-884q0 -56 21 -90.5t68 -34.5q22 0 65 13l13 -60q-53 -19 -89 -19q-78 0 -113.5 52t-35.5 154v869h-551v-1047h-70z" />
<glyph unicode="&#x1d43;" horiz-adv-x="779" d="M327 612q-101 0 -162.5 55.5t-61.5 154.5q0 121 115.5 186t369.5 90q0 40 -4 72.5t-15.5 62t-30 49.5t-48.5 32t-69 12q-67 0 -140 -28t-118 -61l-27 51q57 39 133 69t156 30q65 0 110.5 -20t70.5 -59.5t36 -89t11 -116.5v-472h-51l-14 94h-9q-130 -112 -252 -112z M341 673q120 0 247 120v254q-151 -17 -244 -48t-132 -73t-39 -100q0 -78 44 -115.5t124 -37.5z" />
<glyph unicode="&#x1d47;" horiz-adv-x="849" d="M140 630v1107h65v-322l-4 -150q73 60 131.5 91t124.5 31q101 0 170 -46t102 -129t33 -199q0 -92 -26.5 -168.5t-71 -126.5t-104 -78t-126.5 -28q-53 0 -113 23.5t-111 64.5h-9l-9 -70h-52zM205 771q57 -50 119 -74t115 -24q110 0 181 94t71 246q0 144 -59 228.5 t-179 84.5q-115 0 -248 -126v-429z" />
<glyph unicode="&#x1d48;" horiz-adv-x="849" d="M410 612q-151 0 -236 105t-85 296q0 84 27 155t72.5 118.5t105.5 74t127 26.5q60 0 114 -22t114 -67l-5 135v304h66v-1107h-51l-15 89h-9q-61 -52 -111 -79.5t-114 -27.5zM416 673q53 0 106 29.5t122 90.5v435q-112 98 -228 98q-106 0 -182 -90.5t-76 -222.5 q0 -104 27 -179t85.5 -118t145.5 -43z" />
<glyph unicode="&#x1d49;" horiz-adv-x="764" d="M421 612q-73 0 -135.5 25.5t-109.5 73.5t-74 122.5t-27 166.5q0 87 26 160.5t71 123t105.5 76.5t128.5 27t121 -23.5t84 -59t51 -81.5t26.5 -85.5t6.5 -77.5q0 -33 -4 -70h-546q0 -94 33.5 -165.5t97.5 -111.5t149 -40q115 0 210 69l33 -51q-58 -36 -115 -57.5 t-132 -21.5zM145 1051h485q0 33 -5 64.5t-15.5 63t-28.5 57.5t-42 46.5t-58.5 32t-74.5 11.5q-108 0 -177.5 -74t-83.5 -201z" />
<glyph unicode="&#x1d4d;" horiz-adv-x="764" d="M149 488q0 -72 64.5 -112t183.5 -40q121 0 200.5 55t79.5 128q0 39 -21.5 63t-60 34t-96.5 10h-158q-61 0 -94 9q-98 -64 -98 -147zM84 481q0 100 108 172v10q-30 18 -47.5 49.5t-17.5 71.5q0 41 24.5 76t55.5 55v10q-40 33 -67.5 85.5t-27.5 114.5q0 76 35.5 136t96 93 t134.5 33q57 0 114 -24h241v-60h-168q36 -28 57.5 -77t21.5 -101q0 -114 -77 -189.5t-189 -75.5q-73 0 -126 31q-60 -41 -60 -102q0 -94 144 -94h161q128 0 186.5 -40.5t58.5 -131.5q0 -47 -25 -91.5t-69.5 -79t-112 -55.5t-147.5 -21q-143 0 -223.5 55t-80.5 150zM378 920 q40 0 77 15t64 42t43.5 65.5t16.5 82.5q0 90 -58.5 145.5t-142.5 55.5q-58 0 -103 -23.5t-71 -69.5t-26 -108q0 -59 25.5 -106t71.5 -73t103 -26z" />
<glyph unicode="&#x1d4f;" horiz-adv-x="722" d="M140 630v1107h65v-808h9l370 439h84l-247 -294l289 -444h-80l-256 393l-169 -201v-192h-65z" />
<glyph unicode="&#x1d50;" horiz-adv-x="1269" d="M140 630v738h52l9 -112h9q113 131 238 131q52 0 92.5 -16t69.5 -50t43 -84q142 150 262 150q60 0 104 -20.5t69.5 -58.5t38 -88t12.5 -113v-477h-65v462q0 56 -8 96.5t-27 72.5t-53.5 48.5t-83.5 16.5q-52 0 -105.5 -33t-123.5 -107v-556h-67v462q0 56 -8 96.5 t-26.5 72.5t-53 48.5t-84.5 16.5q-51 0 -104.5 -33t-124.5 -107v-556h-65z" />
<glyph unicode="&#x1d52;" horiz-adv-x="835" d="M416 612q-56 0 -106.5 17t-92.5 50t-72.5 79t-47.5 108t-17 134q0 90 26 164t72 122.5t107 74.5t131 26q56 0 106.5 -16t92.5 -49t72.5 -79t47 -108t16.5 -135q0 -89 -26 -163t-71.5 -122.5t-106.5 -75.5t-131 -27zM416 673q78 0 138.5 41.5t94 116t33.5 169.5 q0 147 -73.5 236.5t-192.5 89.5t-193 -90t-74 -236q0 -144 74.5 -235.5t192.5 -91.5z" />
<glyph unicode="&#x1d56;" horiz-adv-x="849" d="M140 303v1065h52l13 -93h9q39 32 71.5 54.5t79 40t92.5 17.5q101 0 170 -46t102 -129t33 -199q0 -92 -26.5 -168.5t-71 -126.5t-104 -78t-126.5 -28q-54 0 -118.5 24t-114.5 66l4 -137v-262h-65zM205 771q57 -50 119 -74t115 -24q110 0 181 94t71 246q0 144 -59 228.5 t-179 84.5q-115 0 -248 -126v-429z" />
<glyph unicode="&#x1d57;" horiz-adv-x="490" d="M163 840v468h-119v55l119 5l10 220h56v-220h224v-60h-224v-472q0 -79 30 -121t100 -42q43 0 98 22l20 -55q-76 -28 -127 -28q-103 0 -145 59t-42 169z" />
<glyph unicode="&#x1d58;" horiz-adv-x="840" d="M374 612q-65 0 -111.5 20.5t-72.5 59t-38 87.5t-12 112v477h65v-462q0 -56 8 -96t27 -72.5t54.5 -48.5t88.5 -16q112 0 252 140v555h65v-738h-51l-9 112h-10q-120 -130 -256 -130z" />
<glyph unicode="&#x1d5b;" horiz-adv-x="686" d="M299 630l-281 738h71l167 -457l80 -216h9l85 216l167 457h71l-285 -738h-84z" />
<glyph unicode="&#x1d9c;" horiz-adv-x="699" d="M425 612q-154 0 -249.5 103t-95.5 285q0 90 28 164.5t76 122.5t110 74t131 26q70 0 121 -22.5t98 -61.5l-38 -47q-45 38 -83.5 54t-101.5 16q-117 0 -194.5 -92t-77.5 -234q0 -144 77 -235.5t199 -91.5q111 0 201 74l33 -47q-50 -42 -103.5 -65t-130.5 -23z" />
<glyph unicode="&#x1da0;" horiz-adv-x="410" d="M453 1733l-19 -57q-48 19 -93 19q-58 0 -87 -45t-29 -119v-163h176v-56h-176v-682h-67v682h-107v51l107 5v154q0 109 48 171.5t135 62.5q59 0 112 -23z" />
<glyph unicode="&#x1dbb;" horiz-adv-x="634" d="M42 630v38l448 640h-397v60h486v-42l-448 -635h462v-61h-551z" />
<glyph unicode="&#x1e06;" horiz-adv-x="1339" d="M234 0v1541h401q236 0 367.5 -94.5t131.5 -279.5q0 -124 -70 -213t-204 -123v-9q175 -25 273.5 -120.5t98.5 -253.5q0 -217 -151 -332.5t-418 -115.5h-429zM308 855h280q248 0 360 79t112 242q0 155 -115 227t-343 72h-294v-620zM308 65h327q249 0 386 94t137 284 q0 173 -135 259.5t-388 86.5h-327v-724zM929 -299v-65h-519v65h519z" />
<glyph unicode="&#x1e07;" horiz-adv-x="1259" d="M225 0v1686h69v-500l-4 -224q216 183 396 183q149 0 250.5 -71.5t149.5 -197.5t48 -301q0 -139 -40 -254t-108 -190.5t-157.5 -117t-188.5 -41.5q-80 0 -170 35t-171 96h-5l-9 -103h-60zM294 192q92 -79 184.5 -116.5t165.5 -37.5q90 0 167.5 40t132 110.5t85.5 170.5 t31 216q0 87 -12.5 161.5t-41 138.5t-72 108.5t-107.5 69.5t-145 25q-171 0 -388 -196v-690zM902 -299v-65h-519v65h519z" />
<glyph unicode="&#x1e0c;" horiz-adv-x="1399" d="M234 0v1541h345q141 0 255 -36t194.5 -102t135 -161t80.5 -211.5t26 -255.5t-26 -256.5t-80.5 -213.5t-135 -163.5t-194.5 -104.5t-255 -37h-345zM308 65h262q129 0 233 35t175.5 98t119.5 152t70 195t22 230t-22 229t-70 193t-120 149t-175.5 95t-232.5 34h-262v-1410z M695 -443q-32 0 -53 23t-21 61q0 35 21 57t53 22t54 -22.5t22 -56.5q0 -19 -6 -35t-16 -26.5t-24 -16.5t-30 -6z" />
<glyph unicode="&#x1e0d;" horiz-adv-x="1259" d="M127 555q0 132 39.5 243.5t107.5 186.5t159 117.5t193 42.5q96 0 173 -34t172 -107l-4 210v472h69v-1686h-60l-9 149h-5q-178 -177 -374 -177q-214 0 -337.5 152t-123.5 431zM201 555q0 -154 45 -270t134 -181.5t213 -65.5q95 0 185 48.5t189 147.5v691 q-94 82 -175.5 117.5t-170.5 35.5q-117 0 -213.5 -70t-151.5 -190t-55 -263zM686 -443q-32 0 -53 23t-21 61q0 35 21 57t53 22t54 -22.5t22 -56.5q0 -19 -6 -35t-16 -26.5t-24 -16.5t-30 -6z" />
<glyph unicode="&#x1e0e;" horiz-adv-x="1399" d="M234 0v1541h345q141 0 255 -36t194.5 -102t135 -161t80.5 -211.5t26 -255.5t-26 -256.5t-80.5 -213.5t-135 -163.5t-194.5 -104.5t-255 -37h-345zM308 65h262q129 0 233 35t175.5 98t119.5 152t70 195t22 230t-22 229t-70 193t-120 149t-175.5 95t-232.5 34h-262v-1410z M953 -299v-65h-519v65h519z" />
<glyph unicode="&#x1e0f;" horiz-adv-x="1259" d="M127 555q0 132 39.5 243.5t107.5 186.5t159 117.5t193 42.5q96 0 173 -34t172 -107l-4 210v472h69v-1686h-60l-9 149h-5q-178 -177 -374 -177q-214 0 -337.5 152t-123.5 431zM201 555q0 -154 45 -270t134 -181.5t213 -65.5q95 0 185 48.5t189 147.5v691 q-94 82 -175.5 117.5t-170.5 35.5q-117 0 -213.5 -70t-151.5 -190t-55 -263zM940 -299v-65h-517v65h517z" />
<glyph unicode="&#x1e16;" horiz-adv-x="1190" d="M234 0v1541h826v-66h-752v-620h630v-66h-630v-724h775v-65h-849zM575 1929l223 243h93l-251 -243h-65zM392 1718v66h514v-66h-514z" />
<glyph unicode="&#x1e17;" horiz-adv-x="1114" d="M127 555q0 132 40 245t107 187t153 116t179 42q196 0 308.5 -134.5t112.5 -380.5q0 -46 -4 -75h-822q0 -111 31.5 -206.5t88 -164t139 -107.5t180.5 -39q164 0 307 102l33 -60q-42 -26 -68 -40t-71 -32.5t-95.5 -27t-110.5 -8.5q-105 0 -197.5 40.5t-161.5 114 t-109 184.5t-40 244zM201 617h757q0 225 -95 343t-257 118q-75 0 -144.5 -32.5t-124.5 -91t-91.5 -146t-44.5 -191.5zM514 1648l186 224h98l-219 -224h-65zM350 1419v66h514v-66h-514z" />
<glyph unicode="&#x1e20;" horiz-adv-x="1399" d="M131 775q0 180 48.5 328.5t135.5 251t212.5 158.5t276.5 56q239 0 410 -182l-47 -52q-147 164 -363 164q-183 0 -317.5 -88t-205.5 -251.5t-71 -384.5t68 -386t198.5 -256t307.5 -91q113 0 211.5 33t158.5 93v509h-383v65h457v-597q-73 -80 -188 -126.5t-260 -46.5 q-194 0 -341.5 99t-227.5 281.5t-80 422.5zM544 1718v66h514v-66h-514z" />
<glyph unicode="&#x1e21;" horiz-adv-x="1120" d="M201 -229q0 -114 102.5 -183t284.5 -69q96 0 179.5 26.5t138 69.5t86 97t31.5 110q0 65 -31.5 105.5t-90.5 59t-150 18.5h-256q-55 0 -136 18q-80 -54 -119 -119.5t-39 -132.5zM127 -234q0 73 44.5 146t122.5 130v9q-44 27 -71 72.5t-27 105.5q0 36 12 70t32 59.5 t38.5 43.5t39.5 32v9q-59 51 -99.5 132.5t-40.5 175.5q0 111 50.5 201t138.5 141.5t194 51.5q75 0 144 -29h373v-65h-270q41 -33 71 -78t47 -102.5t17 -119.5q0 -83 -30 -156.5t-80.5 -126t-121.5 -83t-150 -30.5q-50 0 -102 13.5t-90 37.5q-46 -38 -72 -78t-26 -94 q0 -34 10.5 -60.5t34 -48.5t67.5 -33.5t107 -11.5h248q185 0 272.5 -61.5t87.5 -191.5q0 -71 -37 -137.5t-102.5 -119t-163.5 -84.5t-211 -32q-212 0 -334.5 85.5t-122.5 226.5zM561 421q61 0 117 24t98 67t67.5 105.5t25.5 133.5q0 73 -24.5 135t-66.5 103.5t-98.5 65 t-119 23.5t-118.5 -23t-98.5 -64.5t-67 -103.5t-24.5 -136q0 -71 25.5 -133.5t68 -105.5t98.5 -67t117 -24zM280 1419v66h513v-66h-513z" />
<glyph unicode="&#x1e24;" horiz-adv-x="1479" d="M234 0v1541h74v-686h864v686h75v-1541h-75v789h-864v-789h-74zM740 -443q-32 0 -53 23t-21 61q0 35 21 57t53 22t53.5 -22.5t21.5 -56.5q0 -19 -6 -35t-16 -26.5t-23.5 -16.5t-29.5 -6z" />
<glyph unicode="&#x1e25;" horiz-adv-x="1218" d="M225 0v1686h69v-500v-252q50 49 92 84t91 65.5t101 46t108 15.5q172 0 254.5 -104t82.5 -322v-719h-70v710q0 126 -28 206.5t-88 121t-155 40.5q-101 0 -186.5 -52t-201.5 -171v-855h-69zM653 -443q-32 0 -53 23t-21 61q0 35 21 57t53 22t53.5 -22.5t21.5 -56.5 q0 -38 -21.5 -61t-53.5 -23z" />
<glyph unicode="&#x1e2a;" horiz-adv-x="1479" d="M234 0v1541h74v-686h864v686h75v-1541h-75v789h-864v-789h-74zM740 -472q-54 0 -98.5 17.5t-73.5 45.5t-50.5 65t-32.5 72t-15 71h60q5 -40 20.5 -76t40 -66.5t63.5 -48.5t86 -18t86 18t64 48.5t40 66.5t21 76h60q-4 -36 -15 -71t-32.5 -72t-51 -65t-74 -45.5 t-98.5 -17.5z" />
<glyph unicode="&#x1e2b;" horiz-adv-x="1218" d="M225 0v1686h69v-500v-252q50 49 92 84t91 65.5t101 46t108 15.5q172 0 254.5 -104t82.5 -322v-719h-70v710q0 126 -28 206.5t-88 121t-155 40.5q-101 0 -186.5 -52t-201.5 -171v-855h-69zM651 -472q-54 0 -98.5 17.5t-73.5 45.5t-50.5 65t-32.5 72t-15 71h60 q4 -31 14.5 -60.5t28 -57t41 -47.5t56 -32t70.5 -12q47 0 86 18t64 48.5t40 66.5t21 76h60q-4 -36 -15 -71t-32.5 -72t-51 -65t-74 -45.5t-98.5 -17.5z" />
<glyph unicode="&#x1e34;" horiz-adv-x="1283" d="M234 0v1541h74v-888h4l786 888h92l-495 -565l561 -976h-89l-527 920l-332 -374v-546h-74zM1004 -299v-65h-518v65h518z" />
<glyph unicode="&#x1e35;" horiz-adv-x="1054" d="M225 0v1686h69v-1280h5l579 710h84l-360 -439l425 -677h-80l-386 621l-267 -313v-308h-69zM845 -299v-65h-518v65h518z" />
<glyph unicode="&#x1e36;" horiz-adv-x="1073" d="M234 0v1541h74v-1476h724v-65h-798zM668 -443q-21 0 -38 10t-27 29.5t-10 44.5q0 34 21.5 56.5t53.5 22.5t53 -22t21 -57q0 -38 -21 -61t-53 -23z" />
<glyph unicode="&#x1e37;" horiz-adv-x="536" d="M225 121v1565h69v-1579q0 -23 6 -38.5t16 -23t25 -7.5q19 0 42 4l14 -60q-41 -10 -61 -10q-111 0 -111 149zM359 -443q-32 0 -53 23t-21 61q0 35 21 57t53 22t53.5 -22.5t21.5 -56.5q0 -38 -21.5 -61t-53.5 -23z" />
<glyph unicode="&#x1e38;" horiz-adv-x="1073" d="M234 0v1541h74v-1476h724v-65h-798zM18 1718v66h514v-66h-514zM668 -443q-21 0 -38 10t-27 29.5t-10 44.5q0 34 21.5 56.5t53.5 22.5t53 -22t21 -57q0 -38 -21 -61t-53 -23z" />
<glyph unicode="&#x1e39;" horiz-adv-x="536" d="M225 121v1565h69v-1579q0 -23 6 -38.5t16 -23t25 -7.5q19 0 42 4l14 -60q-41 -10 -61 -10q-111 0 -111 149zM0 1952v65h514v-65h-514zM359 -443q-32 0 -53 23t-21 61q0 35 21 57t53 22t53.5 -22.5t21.5 -56.5q0 -38 -21.5 -61t-53.5 -23z" />
<glyph unicode="&#x1e3a;" horiz-adv-x="1073" d="M234 0v1541h74v-1476h724v-65h-798zM925 -299v-65h-519v65h519z" />
<glyph unicode="&#x1e3b;" horiz-adv-x="536" d="M225 121v1565h69v-1579q0 -23 6 -38.5t16 -23t25 -7.5q19 0 42 4l14 -60q-41 -10 -61 -10q-111 0 -111 149zM617 -299v-65h-519v65h519z" />
<glyph unicode="&#x1e42;" horiz-adv-x="1629" d="M234 0v1541h121l331 -935l127 -350h9l121 350l332 935h121v-1541h-75v1074q0 148 9 401h-9l-118 -336l-343 -966h-89l-346 966l-122 336h-9q9 -253 9 -401v-1074h-69zM817 -443q-21 0 -38 10t-27 29.5t-10 44.5q0 34 21.5 56.5t53.5 22.5q21 0 38 -10t26.5 -28t9.5 -41 q0 -38 -20.5 -61t-53.5 -23z" />
<glyph unicode="&#x1e43;" horiz-adv-x="1880" d="M225 0v1116h60l9 -178h5q81 93 174.5 150t179.5 57q246 0 309 -234q103 114 197.5 174t185.5 60q166 0 248.5 -105t82.5 -321v-719h-70v710q0 187 -64.5 277.5t-200.5 90.5q-83 0 -170 -55t-186 -168v-855h-70v710q0 187 -65 277.5t-201 90.5q-159 0 -355 -223v-855h-69z M971 -443q-32 0 -53.5 23t-21.5 61q0 17 6 32t16 25t24 16t29 6q32 0 54 -22.5t22 -56.5q0 -19 -6 -35t-16 -26.5t-24 -16.5t-30 -6z" />
<glyph unicode="&#x1e44;" horiz-adv-x="1475" d="M234 0v1541h78l682 -1131l178 -303h9q-9 299 -9 435v999h71v-1541h-80l-682 1130l-178 303h-9q9 -290 9 -420v-1013h-69zM749 1691q-33 0 -56 23t-23 60q0 34 23.5 57t55.5 23q21 0 39 -10t29.5 -28.5t11.5 -41.5q0 -37 -23.5 -60t-56.5 -23z" />
<glyph unicode="&#x1e45;" horiz-adv-x="1227" d="M225 0v1116h60l9 -178h5q48 48 89 82t89.5 64t101 45.5t107.5 15.5q172 0 254.5 -104t82.5 -322v-719h-70v710q0 126 -28 206.5t-88 121t-155 40.5q-101 0 -186.5 -52t-201.5 -171v-855h-69zM651 1401q-21 0 -38 10.5t-26.5 29.5t-9.5 44q0 35 21 57t53 22t53.5 -22 t21.5 -57q0 -37 -21.5 -60.5t-53.5 -23.5z" />
<glyph unicode="&#x1e46;" horiz-adv-x="1475" d="M234 0v1541h78l682 -1131l178 -303h9q-9 299 -9 435v999h71v-1541h-80l-682 1130l-178 303h-9q9 -290 9 -420v-1013h-69zM735.5 -443q-32.5 0 -53.5 23t-21 61q0 35 21 57t53 22t54 -22.5t22 -56.5q0 -38 -21.5 -61t-54 -23z" />
<glyph unicode="&#x1e47;" horiz-adv-x="1227" d="M225 0v1116h60l9 -178h5q48 48 89 82t89.5 64t101 45.5t107.5 15.5q172 0 254.5 -104t82.5 -322v-719h-70v710q0 126 -28 206.5t-88 121t-155 40.5q-101 0 -186.5 -52t-201.5 -171v-855h-69zM630 -443q-21 0 -38 10t-27 29.5t-10 44.5q0 34 21.5 56.5t53.5 22.5 q21 0 38 -10t27 -28t10 -41q0 -38 -21 -61t-54 -23z" />
<glyph unicode="&#x1e48;" horiz-adv-x="1475" d="M234 0v1541h78l682 -1131l178 -303h9q-9 299 -9 435v999h71v-1541h-80l-682 1130l-178 303h-9q9 -290 9 -420v-1013h-69zM992 -299v-65h-518v65h518z" />
<glyph unicode="&#x1e49;" horiz-adv-x="1227" d="M225 0v1116h60l9 -178h5q48 48 89 82t89.5 64t101 45.5t107.5 15.5q172 0 254.5 -104t82.5 -322v-719h-70v710q0 126 -28 206.5t-88 121t-155 40.5q-101 0 -186.5 -52t-201.5 -171v-855h-69zM885 -299v-65h-518v65h518z" />
<glyph unicode="&#x1e52;" horiz-adv-x="1512" d="M757 -28q-135 0 -251 57.5t-198.5 161t-129.5 254.5t-47 330t47 328.5t129.5 251t198 158t251 56.5t251 -56.5t198 -158t129.5 -251t47 -328.5t-47 -330t-129.5 -254.5t-198 -161t-250.5 -57.5zM757 42q162 0 286 90.5t192 257t68 385.5t-68 383.5t-191.5 252.5 t-286.5 88t-286.5 -88t-192 -252.5t-68.5 -383.5t68 -385.5t192.5 -257t286.5 -90.5zM673 1929l223 243h94l-252 -243h-65zM490 1718v66h514v-66h-514z" />
<glyph unicode="&#x1e53;" horiz-adv-x="1241" d="M127 555q0 110 25.5 205t71.5 164.5t108 119.5t136 75.5t153 25.5q100 0 189.5 -40.5t157.5 -114t108 -186t40 -249.5q0 -108 -26 -202t-72 -163t-108 -119t-135.5 -74.5t-153.5 -24.5q-100 0 -189.5 39.5t-157.5 112.5t-107.5 184.5t-39.5 246.5zM201 555.5 q0 -113.5 32 -210.5t88.5 -164.5t134 -105t166 -37.5t166 37.5t133 105t88 164.5t32.5 210q0 91 -20.5 172.5t-58.5 145t-89.5 110t-116 71t-135.5 24.5q-88 0 -165.5 -38.5t-134 -107t-88.5 -166t-32 -211zM528 1648l187 224h98l-220 -224h-65zM364 1419v66h514v-66h-514z " />
<glyph unicode="&#x1e5a;" horiz-adv-x="1288" d="M689 -280q32 0 53.5 -22.5t21.5 -56.5q0 -38 -21.5 -61t-54 -23t-53.5 23t-21 61q0 35 21.5 57t53.5 22zM308 793h322q217 0 330.5 87.5t113.5 264t-111 253.5t-333 77h-322v-682zM738 733l438 -733h-88l-435 728h-345v-728h-74v1541h425q495 0 495 -396 q0 -182 -110.5 -288.5t-305.5 -123.5z" />
<glyph unicode="&#x1e5b;" horiz-adv-x="713" d="M225 0v1116h60l9 -210h5q60 110 140.5 174.5t177.5 64.5q58 0 107 -24l-19 -65q-30 10 -49 14t-50 4q-84 0 -166.5 -72t-145.5 -227v-775h-69zM254 -443q-32 0 -53 23t-21 61q0 35 21 57t53 22t53.5 -22.5t21.5 -56.5q0 -38 -21.5 -61t-53.5 -23z" />
<glyph unicode="&#x1e5c;" horiz-adv-x="1288" d="M913 1784v-66h-514v66h514zM689 -280q32 0 53.5 -22.5t21.5 -56.5q0 -38 -21.5 -61t-54 -23t-53.5 23t-21 61q0 35 21.5 57t53.5 22zM308 793h322q217 0 330.5 87.5t113.5 264t-111 253.5t-333 77h-322v-682zM738 733l438 -733h-88l-435 728h-345v-728h-74v1541h425 q495 0 495 -396q0 -182 -110.5 -288.5t-305.5 -123.5z" />
<glyph unicode="&#x1e5d;" horiz-adv-x="713" d="M225 0v1116h60l9 -210h5q60 110 140.5 174.5t177.5 64.5q58 0 107 -24l-19 -65q-30 10 -49 14t-50 4q-84 0 -166.5 -72t-145.5 -227v-775h-69zM196 1419v66h514v-66h-514zM254 -443q-32 0 -53 23t-21 61q0 35 21 57t53 22t53.5 -22.5t21.5 -56.5q0 -38 -21.5 -61 t-53.5 -23z" />
<glyph unicode="&#x1e5e;" horiz-adv-x="1288" d="M428 -364v65h517v-65h-517zM308 793h322q217 0 330.5 87.5t113.5 264t-111 253.5t-333 77h-322v-682zM738 733l438 -733h-88l-435 728h-345v-728h-74v1541h425q495 0 495 -396q0 -182 -110.5 -288.5t-305.5 -123.5z" />
<glyph unicode="&#x1e5f;" horiz-adv-x="713" d="M225 0v1116h60l9 -210h5q60 110 140.5 174.5t177.5 64.5q58 0 107 -24l-19 -65q-30 10 -49 14t-50 4q-84 0 -166.5 -72t-145.5 -227v-775h-69zM508 -299v-65h-517v65h517z" />
<glyph unicode="&#x1e60;" horiz-adv-x="1203" d="M112 205l51 51q86 -100 205.5 -157t257.5 -57q184 0 295 92t111 240q0 43 -8.5 80t-21 65t-35 53.5t-43 43t-54.5 37t-58.5 32t-64.5 30.5l-239 107q-34 15 -58.5 27t-59.5 33t-60 41.5t-52 50t-43.5 62t-27.5 75t-11 89.5q0 108 57 192.5t155.5 130.5t221.5 46 q132 0 239.5 -51t181.5 -131l-47 -52q-69 77 -164 120.5t-210 43.5q-161 0 -260 -80.5t-99 -213.5q0 -40 10 -75.5t24 -61.5t39 -51.5t44.5 -41t52 -34t51 -27t50.5 -23.5l238 -107q42 -19 72.5 -34.5t66.5 -38t61.5 -44.5t51 -53t41 -64.5t25 -77.5t9.5 -94 q0 -86 -35 -161.5t-97 -129.5t-152 -84.5t-197 -30.5q-164 0 -292.5 62.5t-221.5 170.5zM628 1691q-33 0 -56.5 23t-23.5 60q0 34 24 57t56.5 23t56 -23t23.5 -57q0 -25 -11 -44.5t-29.5 -29t-39.5 -9.5z" />
<glyph unicode="&#x1e61;" horiz-adv-x="933" d="M80 127l47 55q81 -69 164.5 -106.5t198.5 -37.5q134 0 209.5 68.5t75.5 169.5q0 36 -11 67.5t-33 56.5t-46.5 44.5t-59.5 37.5t-63.5 29.5t-66.5 25.5h-1q-50 18 -75.5 27.5t-71 28.5t-70 34.5t-57 40.5t-49 51t-28.5 61t-12 75q0 58 23 110t66 92.5t110.5 64t150.5 23.5 q54 0 111 -15t106.5 -40t90.5 -58l-42 -56q-67 49 -129 75.5t-141 26.5q-68 0 -121.5 -18.5t-85.5 -50t-48.5 -69.5t-16.5 -80q0 -29 9 -54t20.5 -43.5t35.5 -37.5t42 -31t52 -27t54 -23t59 -23q13 -5 41 -15q47 -18 71.5 -27t66 -28.5t63.5 -35t51 -41t43.5 -52t25 -63 t10.5 -79.5q0 -61 -24 -116.5t-69 -98.5t-115 -68t-155 -25q-118 0 -222 42.5t-184 112.5zM483.5 1401q-32.5 0 -54 23.5t-21.5 60.5q0 35 21.5 57t53.5 22t53 -22t21 -57q0 -37 -20.5 -60.5t-53 -23.5z" />
<glyph unicode="&#x1e62;" horiz-adv-x="1203" d="M112 205l51 51q86 -100 205.5 -157t257.5 -57q184 0 295 92t111 240q0 43 -8.5 80t-21 65t-35 53.5t-43 43t-54.5 37t-58.5 32t-64.5 30.5l-239 107q-34 15 -58.5 27t-59.5 33t-60 41.5t-52 50t-43.5 62t-27.5 75t-11 89.5q0 108 57 192.5t155.5 130.5t221.5 46 q132 0 239.5 -51t181.5 -131l-47 -52q-69 77 -164 120.5t-210 43.5q-161 0 -260 -80.5t-99 -213.5q0 -40 10 -75.5t24 -61.5t39 -51.5t44.5 -41t52 -34t51 -27t50.5 -23.5l238 -107q42 -19 72.5 -34.5t66.5 -38t61.5 -44.5t51 -53t41 -64.5t25 -77.5t9.5 -94 q0 -86 -35 -161.5t-97 -129.5t-152 -84.5t-197 -30.5q-164 0 -292.5 62.5t-221.5 170.5zM624 -443q-22 0 -39 10t-27 29.5t-10 44.5q0 34 21.5 56.5t54.5 22.5q21 0 37.5 -10t26.5 -28t10 -41q0 -38 -21 -61t-53 -23z" />
<glyph unicode="&#x1e63;" horiz-adv-x="933" d="M80 127l47 55q81 -69 164.5 -106.5t198.5 -37.5q134 0 209.5 68.5t75.5 169.5q0 36 -11 67.5t-33 56.5t-46.5 44.5t-59.5 37.5t-63.5 29.5t-66.5 25.5h-1q-50 18 -75.5 27.5t-71 28.5t-70 34.5t-57 40.5t-49 51t-28.5 61t-12 75q0 58 23 110t66 92.5t110.5 64t150.5 23.5 q54 0 111 -15t106.5 -40t90.5 -58l-42 -56q-67 49 -129 75.5t-141 26.5q-68 0 -121.5 -18.5t-85.5 -50t-48.5 -69.5t-16.5 -80q0 -29 9 -54t20.5 -43.5t35.5 -37.5t42 -31t52 -27t54 -23t59 -23q13 -5 41 -15q47 -18 71.5 -27t66 -28.5t63.5 -35t51 -41t43.5 -52t25 -63 t10.5 -79.5q0 -61 -24 -116.5t-69 -98.5t-115 -68t-155 -25q-118 0 -222 42.5t-184 112.5zM504 -443q-21 0 -38 10t-26.5 29.5t-9.5 44.5q0 35 21 57t53 22t53.5 -22.5t21.5 -56.5q0 -38 -21.5 -61t-53.5 -23z" />
<glyph unicode="&#x1e6c;" horiz-adv-x="1212" d="M570 0v1475h-500v66h1075v-66h-501v-1475h-74zM610 -443q-32 0 -53.5 23t-21.5 61q0 34 21.5 56.5t53.5 22.5t53 -22t21 -57q0 -38 -21 -61t-53 -23z" />
<glyph unicode="&#x1e6d;" horiz-adv-x="704" d="M247 294v757h-177v56l177 9l9 327h62v-327h331v-65h-331v-766q0 -59 8 -100.5t28.5 -76.5t60.5 -52.5t99 -17.5q58 0 145 37l23 -61q-120 -42 -174 -42q-75 0 -127 22.5t-80.5 67t-41 100.5t-12.5 132zM457 -443q-32 0 -53 23t-21 61q0 35 21 57t53 22t53.5 -22.5 t21.5 -56.5q0 -38 -21.5 -61t-53.5 -23z" />
<glyph unicode="&#x1e6e;" horiz-adv-x="1212" d="M570 0v1475h-500v66h1075v-66h-501v-1475h-74zM866 -299v-65h-518v65h518z" />
<glyph unicode="&#x1e6f;" horiz-adv-x="704" d="M247 294v757h-177v56l177 9l9 327h62v-327h331v-65h-331v-766q0 -59 8 -100.5t28.5 -76.5t60.5 -52.5t99 -17.5q58 0 145 37l23 -61q-120 -42 -174 -42q-75 0 -127 22.5t-80.5 67t-41 100.5t-12.5 132zM712 -299v-65h-518v65h518z" />
<glyph unicode="&#x1e80;" horiz-adv-x="1782" d="M430 0l-360 1541h79l206 -935q18 -83 56 -251.5t56 -251.5h10q49 220 120 503l252 935h85l252 -935q21 -83 63 -251.5t63 -251.5h9q19 83 54 251.5t53 251.5l207 935h74l-355 -1541h-75l-299 1107q-14 60 -42 172.5t-42 172.5h-9q-12 -50 -28.5 -111t-32.5 -122.5 t-28 -111.5l-294 -1107h-74zM896 1658l-252 242h103l220 -242h-71z" />
<glyph unicode="&#x1e81;" horiz-adv-x="1568" d="M392 0l-336 1116h80l214 -752q7 -24 26.5 -92.5t31 -113t22.5 -88.5h9q60 205 84 294l215 752h98l215 -752q49 -177 83 -294h11q34 117 83 294l211 752h74l-327 -1116h-98l-210 728q-17 54 -45 159.5t-44 159.5h-9q-62 -233 -94 -323l-205 -724h-89zM842 1335l-242 313 h93l216 -313h-67z" />
<glyph unicode="&#x1e82;" horiz-adv-x="1782" d="M430 0l-360 1541h79l206 -935q18 -83 56 -251.5t56 -251.5h10q49 220 120 503l252 935h85l252 -935q21 -83 63 -251.5t63 -251.5h9q19 83 54 251.5t53 251.5l207 935h74l-355 -1541h-75l-299 1107q-14 60 -42 172.5t-42 172.5h-9q-12 -50 -28.5 -111t-32.5 -122.5 t-28 -111.5l-294 -1107h-74zM1139 1900l-252 -242h-70l219 242h103z" />
<glyph unicode="&#x1e83;" horiz-adv-x="1568" d="M392 0l-336 1116h80l214 -752q7 -24 26.5 -92.5t31 -113t22.5 -88.5h9q60 205 84 294l215 752h98l215 -752q49 -177 83 -294h11q34 117 83 294l211 752h74l-327 -1116h-98l-210 728q-17 54 -45 159.5t-44 159.5h-9q-62 -233 -94 -323l-205 -724h-89zM974 1648l-243 -313 h-65l214 313h94z" />
<glyph unicode="&#x1e84;" horiz-adv-x="1782" d="M430 0l-360 1541h79l206 -935q18 -83 56 -251.5t56 -251.5h10q49 220 120 503l252 935h85l252 -935q21 -83 63 -251.5t63 -251.5h9q19 83 54 251.5t53 251.5l207 935h74l-355 -1541h-75l-299 1107q-14 60 -42 172.5t-42 172.5h-9q-12 -50 -28.5 -111t-32.5 -122.5 t-28 -111.5l-294 -1107h-74zM714.5 1700q-32.5 0 -53.5 20t-21 54t21 54.5t53.5 20.5t53.5 -20.5t21 -54.5t-21 -54t-53.5 -20zM1069.5 1700q-32.5 0 -54 20t-21.5 54t21.5 54.5t53.5 20.5q21 0 38 -9t27.5 -26t10.5 -40q0 -34 -21.5 -54t-54 -20z" />
<glyph unicode="&#x1e85;" horiz-adv-x="1568" d="M392 0l-336 1116h80l214 -752q7 -24 26.5 -92.5t31 -113t22.5 -88.5h9q60 205 84 294l215 752h98l215 -752q49 -177 83 -294h11q34 117 83 294l211 752h74l-327 -1116h-98l-210 728q-17 54 -45 159.5t-44 159.5h-9q-62 -233 -94 -323l-205 -724h-89zM610 1406 q-32 0 -53.5 21t-21.5 52.5t21.5 53.5t53 22t53 -22t21.5 -53.5t-21 -52.5t-53 -21zM964.5 1406q-31.5 0 -53.5 21t-22 52.5t22 53.5t53.5 22t53 -22t21.5 -53.5t-21.5 -52.5t-53 -21z" />
<glyph unicode="&#x1e8e;" horiz-adv-x="1016" d="M472 0v635l-463 906h80l247 -500q138 -275 168 -331h10q10 19 35 64.5t38 70t33 62t36 70t30 64.5l248 500h75l-463 -906v-635h-74zM508.5 1691q-32.5 0 -55.5 23t-23 60q0 34 23 57t55 23q22 0 40 -10t29 -28.5t11 -41.5q0 -37 -23.5 -60t-56 -23z" />
<glyph unicode="&#x1e8f;" horiz-adv-x="989" d="M65 -430q46 -18 93 -18q101 0 176 85.5t123 231.5l33 103l-462 1144h79l285 -733q11 -28 37.5 -95t48.5 -121t41 -97h9q21 56 58.5 169t48.5 144l252 733h75l-448 -1274q-18 -56 -40.5 -105t-55.5 -97t-70.5 -82t-88 -55.5t-105.5 -21.5q-57 0 -107 24zM523 1401 q-21 0 -38 10.5t-27 29.5t-10 44q0 35 21.5 57t53.5 22t53 -22t21 -57q0 -37 -21 -60.5t-53 -23.5z" />
<glyph unicode="&#x1e92;" horiz-adv-x="1255" d="M121 0v42l915 1433h-835v66h929v-42l-916 -1434h925v-65h-1018zM656 -443q-22 0 -38.5 10t-26.5 29.5t-10 44.5q0 35 21.5 57t53.5 22t53.5 -22.5t21.5 -56.5q0 -38 -21.5 -61t-53.5 -23z" />
<glyph unicode="&#x1e93;" horiz-adv-x="924" d="M60 0v38l687 1013h-611v65h704v-38l-686 -1013h710v-65h-804zM499 -443q-32 0 -53 23t-21 61q0 35 21 57t53 22t54 -22.5t22 -56.5q0 -19 -6 -35t-16 -26.5t-24 -16.5t-30 -6z" />
<glyph unicode="&#x1e97;" horiz-adv-x="704" d="M247 294v757h-177v56l177 9l9 327h62v-327h331v-65h-331v-766q0 -59 8 -100.5t28.5 -76.5t60.5 -52.5t99 -17.5q58 0 145 37l23 -61q-120 -42 -174 -42q-75 0 -127 22.5t-80.5 67t-41 100.5t-12.5 132zM114 1713q-32 0 -53 22t-21 53.5t21 53t53 21.5t53.5 -21.5 t21.5 -53t-21.5 -53.5t-53.5 -22zM469.5 1713q-31.5 0 -53.5 22t-22 53.5t22 53t53.5 21.5t53 -21.5t21.5 -53t-21.5 -53.5t-53 -22z" />
<glyph unicode="&#x1e9e;" horiz-adv-x="1484" d="M234 0v990q0 139 41 250t115 182.5t174 109t220 37.5q48 0 91 -7.5t80 -21t70.5 -34t62 -46t54.5 -57t48 -66.5t42 -76l-377 -412q522 -78 522 -461q0 -118 -55 -213.5t-151 -149t-213 -53.5q-121 0 -229 48.5t-183 137.5l56 56q76 -88 162.5 -130t197.5 -42 q157 0 246.5 95t89.5 246q0 60 -12.5 107.5t-47 95.5t-92.5 84t-152.5 67.5t-222.5 51.5l-5 66l373 410q-49 106 -139.5 170t-219.5 64q-109 0 -194.5 -31.5t-148 -96t-96 -168t-33.5 -241.5v-962h-74z" />
<glyph unicode="&#x1ea0;" horiz-adv-x="1212" d="M607 -280q32 0 53.5 -22.5t21.5 -56.5q0 -19 -6 -35t-16 -26.5t-24 -16.5t-30 -6q-32 0 -53 23t-21 61q0 35 21.5 57t53.5 22zM315 617h581l-107 308q-125 359 -177 536h-10q-52 -177 -177 -536zM1190 0h-78l-192 551h-628l-194 -551h-75l552 1541h65z" />
<glyph unicode="&#x1ea1;" horiz-adv-x="1152" d="M158 274q0 184 174.5 281.5t558.5 139.5q2 60 -3.5 111t-23.5 102.5t-48 88t-81 59t-118 22.5q-107 0 -203 -41t-162 -94l-38 57q32 23 69.5 44.5t90.5 46t118 39.5t129 15q76 0 135.5 -22.5t97.5 -61t63 -93t35 -114.5t10 -130v-724h-60l-11 149h-4q-221 -177 -406 -177 q-67 0 -124 17.5t-102 53t-71 95t-26 136.5zM234 276q0 -63 20 -110t55.5 -74.5t79.5 -40.5t97 -13q98 0 193.5 46.5t211.5 144.5v406q-242 -28 -388 -76.5t-207.5 -116.5t-61.5 -166zM570 -443q-21 0 -38 10t-27 29.5t-10 44.5q0 34 21.5 56.5t53.5 22.5q21 0 38 -10 t26.5 -28t9.5 -41q0 -38 -21 -61t-53 -23z" />
<glyph unicode="&#x1ea2;" horiz-adv-x="1212" d="M555 1644l-18 51q74 24 114 55.5t40 80.5q0 109 -201 116l5 61q53 -2 99 -12.5t84.5 -29.5t61 -51.5t22.5 -74.5q0 -34 -12.5 -62t-30.5 -47.5t-47 -37t-55.5 -28t-61.5 -21.5zM315 617h581l-107 308q-125 359 -177 536h-10q-52 -177 -177 -536zM1112 0l-192 551h-628 l-194 -551h-75l552 1541h65l550 -1541h-78z" />
<glyph unicode="&#x1ea3;" horiz-adv-x="1152" d="M158 274q0 184 174.5 281.5t558.5 139.5q2 60 -3.5 111t-23.5 102.5t-48 88t-81 59t-118 22.5q-107 0 -203 -41t-162 -94l-38 57q32 23 69.5 44.5t90.5 46t118 39.5t129 15q76 0 135.5 -22.5t97.5 -61t63 -93t35 -114.5t10 -130v-724h-60l-11 149h-4q-221 -177 -406 -177 q-67 0 -124 17.5t-102 53t-71 95t-26 136.5zM234 276q0 -63 20 -110t55.5 -74.5t79.5 -40.5t97 -13q98 0 193.5 46.5t211.5 144.5v406q-242 -28 -388 -76.5t-207.5 -116.5t-61.5 -166zM555 1284l-18 51q74 24 114 55.5t40 80.5q0 110 -201 117l5 60q53 -1 99 -11.5t84.5 -30 t61 -52t22.5 -74.5q0 -34 -12.5 -62t-30.5 -47.5t-47 -37t-55.5 -28t-61.5 -21.5z" />
<glyph unicode="&#x1ea4;" horiz-adv-x="1212" d="M1036 2041l-196 -243h-60l167 243h89zM602 1816l-168 -158h-70l211 229h65l209 -229h-69l-168 158h-10zM315 617h581l-107 308q-125 359 -177 536h-10q-52 -177 -177 -536zM1112 0l-192 551h-628l-194 -551h-75l552 1541h65l550 -1541h-78z" />
<glyph unicode="&#x1ea5;" horiz-adv-x="1152" d="M158 274q0 184 174.5 281.5t558.5 139.5q2 60 -3.5 111t-23.5 102.5t-48 88t-81 59t-118 22.5q-107 0 -203 -41t-162 -94l-38 57q32 23 69.5 44.5t90.5 46t118 39.5t129 15q76 0 135.5 -22.5t97.5 -61t63 -93t35 -114.5t10 -130v-724h-60l-11 149h-4q-221 -177 -406 -177 q-67 0 -124 17.5t-102 53t-71 95t-26 136.5zM234 276q0 -63 20 -110t55.5 -74.5t79.5 -40.5t97 -13q98 0 193.5 46.5t211.5 144.5v406q-242 -28 -388 -76.5t-207.5 -116.5t-61.5 -166zM378 1335l197 262h65l196 -262h-65l-159 187h-10l-159 -187h-65zM780 1485l182 257h89 l-211 -257h-60z" />
<glyph unicode="&#x1ea6;" horiz-adv-x="1212" d="M934 1798h-61l-196 243h89zM602 1816l-168 -158h-70l211 229h65l209 -229h-69l-168 158h-10zM315 617h581l-107 308q-125 359 -177 536h-10q-52 -177 -177 -536zM1112 0l-192 551h-628l-194 -551h-75l552 1541h65l550 -1541h-78z" />
<glyph unicode="&#x1ea7;" horiz-adv-x="1152" d="M158 274q0 184 174.5 281.5t558.5 139.5q2 60 -3.5 111t-23.5 102.5t-48 88t-81 59t-118 22.5q-107 0 -203 -41t-162 -94l-38 57q32 23 69.5 44.5t90.5 46t118 39.5t129 15q76 0 135.5 -22.5t97.5 -61t63 -93t35 -114.5t10 -130v-724h-60l-11 149h-4q-221 -177 -406 -177 q-67 0 -124 17.5t-102 53t-71 95t-26 136.5zM234 276q0 -63 20 -110t55.5 -74.5t79.5 -40.5t97 -13q98 0 193.5 46.5t211.5 144.5v406q-242 -28 -388 -76.5t-207.5 -116.5t-61.5 -166zM378 1335l197 262h65l196 -262h-65l-159 187h-10l-159 -187h-65zM804 1742l181 -257h-60 l-210 257h89z" />
<glyph unicode="&#x1ea8;" horiz-adv-x="1212" d="M833 1769l-22 57q125 33 125 103q0 54 -42 76.5t-130 25.5l9 61q48 -2 88 -10.5t74 -26t53 -47.5t19 -70q0 -119 -174 -169zM602 1816l-168 -158h-70l211 229h65l209 -229h-69l-168 158h-10zM315 617h581l-107 308q-125 359 -177 536h-10q-52 -177 -177 -536zM1112 0 l-192 551h-628l-194 -551h-75l552 1541h65l550 -1541h-78z" />
<glyph unicode="&#x1ea9;" horiz-adv-x="1152" d="M158 274q0 184 174.5 281.5t558.5 139.5q2 60 -3.5 111t-23.5 102.5t-48 88t-81 59t-118 22.5q-107 0 -203 -41t-162 -94l-38 57q32 23 69.5 44.5t90.5 46t118 39.5t129 15q76 0 135.5 -22.5t97.5 -61t63 -93t35 -114.5t10 -130v-724h-60l-11 149h-4q-221 -177 -406 -177 q-67 0 -124 17.5t-102 53t-71 95t-26 136.5zM234 276q0 -63 20 -110t55.5 -74.5t79.5 -40.5t97 -13q98 0 193.5 46.5t211.5 144.5v406q-242 -28 -388 -76.5t-207.5 -116.5t-61.5 -166zM378 1335l197 262h65l196 -262h-65l-159 187h-10l-159 -187h-65zM836 1466l-19 51 q121 40 121 113q0 56 -41 82t-126 30l4 56q48 -2 88 -11.5t74 -27.5t53 -48.5t19 -71.5q0 -29 -11 -54.5t-26.5 -42.5t-40.5 -32.5t-46 -24.5t-49 -19z" />
<glyph unicode="&#x1eaa;" horiz-adv-x="1212" d="M826 2143h56q-1 -30 -11 -59.5t-28 -57t-49 -44.5t-70 -17q-31 0 -59 12.5t-49.5 29.5t-41.5 34.5t-42.5 29.5t-45.5 12q-38 0 -64.5 -32.5t-33.5 -85.5h-56q2 31 11.5 60.5t27.5 56.5t49 44t70 17q31 0 59 -12t49.5 -29t41.5 -34t42.5 -29t45.5 -12q19 0 36 8.5 t29.5 23.5t21 36.5t11.5 47.5zM575 1887h65l209 -229h-69l-168 158h-10l-168 -158h-70zM315 617h581l-107 308q-125 359 -177 536h-10q-52 -177 -177 -536zM1112 0l-192 551h-628l-194 -551h-75l552 1541h65l550 -1541h-78z" />
<glyph unicode="&#x1eab;" horiz-adv-x="1152" d="M158 274q0 184 174.5 281.5t558.5 139.5q2 60 -3.5 111t-23.5 102.5t-48 88t-81 59t-118 22.5q-107 0 -203 -41t-162 -94l-38 57q32 23 69.5 44.5t90.5 46t118 39.5t129 15q76 0 135.5 -22.5t97.5 -61t63 -93t35 -114.5t10 -130v-724h-60l-11 149h-4q-221 -177 -406 -177 q-67 0 -124 17.5t-102 53t-71 95t-26 136.5zM234 276q0 -63 20 -110t55.5 -74.5t79.5 -40.5t97 -13q98 0 193.5 46.5t211.5 144.5v406q-242 -28 -388 -76.5t-207.5 -116.5t-61.5 -166zM359 1330l216 230h65l215 -230h-66l-177 165h-10l-177 -165h-66zM388 1644h-56 q2 30 11.5 58t27.5 53.5t49 40.5t70 15q31 0 59 -11t49.5 -26.5t41.5 -31.5t42.5 -27t45.5 -11q20 0 36.5 7t29 20.5t21 34t11.5 45.5h56q-1 -30 -11 -58t-28 -53t-49 -40.5t-70 -15.5q-31 0 -59 11t-49.5 26.5t-41.5 31.5t-42.5 27t-45.5 11q-39 0 -65.5 -28t-32.5 -79z " />
<glyph unicode="&#x1eac;" horiz-adv-x="1212" d="M602 1831l-181 -173h-71l225 242h65l224 -242h-71l-181 173h-10zM607 -280q32 0 53.5 -22.5t21.5 -56.5q0 -19 -6 -35t-16 -26.5t-24 -16.5t-30 -6q-32 0 -53 23t-21 61q0 35 21.5 57t53.5 22zM315 617h581l-107 308q-125 359 -177 536h-10q-52 -177 -177 -536zM1190 0 h-78l-192 551h-628l-194 -551h-75l552 1541h65z" />
<glyph unicode="&#x1ead;" horiz-adv-x="1152" d="M158 274q0 184 174.5 281.5t558.5 139.5q2 60 -3.5 111t-23.5 102.5t-48 88t-81 59t-118 22.5q-107 0 -203 -41t-162 -94l-38 57q32 23 69.5 44.5t90.5 46t118 39.5t129 15q76 0 135.5 -22.5t97.5 -61t63 -93t35 -114.5t10 -130v-724h-60l-11 149h-4q-221 -177 -406 -177 q-67 0 -124 17.5t-102 53t-71 95t-26 136.5zM234 276q0 -63 20 -110t55.5 -74.5t79.5 -40.5t97 -13q98 0 193.5 46.5t211.5 144.5v406q-242 -28 -388 -76.5t-207.5 -116.5t-61.5 -166zM355 1335l220 313h65l220 -313h-67l-181 238h-10l-181 -238h-66zM570 -443q-21 0 -38 10 t-27 29.5t-10 44.5q0 34 21.5 56.5t53.5 22.5q21 0 38 -10t26.5 -28t9.5 -41q0 -38 -21 -61t-53 -23z" />
<glyph unicode="&#x1eae;" horiz-adv-x="1212" d="M813 2083l-220 -220h-65l191 220h94zM804 1891h60q-5 -39 -23.5 -77.5t-49 -73.5t-78.5 -56.5t-106.5 -21.5t-106.5 21.5t-78.5 56.5t-48.5 73.5t-23 77.5h60q16 -72 64.5 -120t131.5 -48q30 0 55.5 6.5t45.5 18.5t36.5 27.5t28 34.5t19.5 39t13 42zM315 617h581 l-107 308q-125 359 -177 536h-10q-52 -177 -177 -536zM1112 0l-192 551h-628l-194 -551h-75l552 1541h65l550 -1541h-78z" />
<glyph unicode="&#x1eaf;" horiz-adv-x="1152" d="M158 274q0 184 174.5 281.5t558.5 139.5q2 60 -3.5 111t-23.5 102.5t-48 88t-81 59t-118 22.5q-107 0 -203 -41t-162 -94l-38 57q32 23 69.5 44.5t90.5 46t118 39.5t129 15q76 0 135.5 -22.5t97.5 -61t63 -93t35 -114.5t10 -130v-724h-60l-11 149h-4q-221 -177 -406 -177 q-67 0 -124 17.5t-102 53t-71 95t-26 136.5zM234 276q0 -63 20 -110t55.5 -74.5t79.5 -40.5t97 -13q98 0 193.5 46.5t211.5 144.5v406q-242 -28 -388 -76.5t-207.5 -116.5t-61.5 -166zM537 1550l178 252h89l-202 -252h-65zM606 1345q-38 0 -72.5 9.5t-60 25t-47.5 37 t-37 45.5t-26 51t-17.5 52t-9.5 50h61q5 -40 20 -76t40 -66.5t63.5 -48.5t86 -18t86 18t63.5 48.5t40.5 66.5t20.5 76h61q-5 -36 -15.5 -71t-32.5 -72t-51 -64.5t-74 -45t-99 -17.5z" />
<glyph unicode="&#x1eb0;" horiz-adv-x="1212" d="M686 1863h-65l-220 220h94zM804 1891h60q-5 -39 -23.5 -77.5t-49 -73.5t-78.5 -56.5t-106.5 -21.5t-106.5 21.5t-78.5 56.5t-48.5 73.5t-23 77.5h60q16 -72 64.5 -120t131.5 -48q30 0 55.5 6.5t45.5 18.5t36.5 27.5t28 34.5t19.5 39t13 42zM315 617h581l-107 308 q-125 359 -177 536h-10q-52 -177 -177 -536zM1112 0l-192 551h-628l-194 -551h-75l552 1541h65l550 -1541h-78z" />
<glyph unicode="&#x1eb1;" horiz-adv-x="1152" d="M158 274q0 184 174.5 281.5t558.5 139.5q2 60 -3.5 111t-23.5 102.5t-48 88t-81 59t-118 22.5q-107 0 -203 -41t-162 -94l-38 57q32 23 69.5 44.5t90.5 46t118 39.5t129 15q76 0 135.5 -22.5t97.5 -61t63 -93t35 -114.5t10 -130v-724h-60l-11 149h-4q-221 -177 -406 -177 q-67 0 -124 17.5t-102 53t-71 95t-26 136.5zM234 276q0 -63 20 -110t55.5 -74.5t79.5 -40.5t97 -13q98 0 193.5 46.5t211.5 144.5v406q-242 -28 -388 -76.5t-207.5 -116.5t-61.5 -166zM499 1802l178 -252h-65l-202 252h89zM606 1345q-38 0 -72.5 9.5t-60 25t-47.5 37 t-37 45.5t-26 51t-17.5 52t-9.5 50h61q5 -40 20 -76t40 -66.5t63.5 -48.5t86 -18t86 18t63.5 48.5t40.5 66.5t20.5 76h61q-5 -36 -15.5 -71t-32.5 -72t-51 -64.5t-74 -45t-99 -17.5z" />
<glyph unicode="&#x1eb2;" horiz-adv-x="1212" d="M572 1858l-24 56q127 33 127 103q0 54 -42.5 77t-130.5 26l10 61q48 -2 87.5 -10.5t73.5 -26t52.5 -47.5t18.5 -70q0 -120 -172 -169zM804 1891h60q-5 -39 -23.5 -77.5t-49 -73.5t-78.5 -56.5t-106.5 -21.5t-106.5 21.5t-78.5 56.5t-48.5 73.5t-23 77.5h60 q16 -72 64.5 -120t131.5 -48q30 0 55.5 6.5t45.5 18.5t36.5 27.5t28 34.5t19.5 39t13 42zM315 617h581l-107 308q-125 359 -177 536h-10q-52 -177 -177 -536zM1112 0l-192 551h-628l-194 -551h-75l552 1541h65l550 -1541h-78z" />
<glyph unicode="&#x1eb3;" horiz-adv-x="1152" d="M158 274q0 184 174.5 281.5t558.5 139.5q2 60 -3.5 111t-23.5 102.5t-48 88t-81 59t-118 22.5q-107 0 -203 -41t-162 -94l-38 57q32 23 69.5 44.5t90.5 46t118 39.5t129 15q76 0 135.5 -22.5t97.5 -61t63 -93t35 -114.5t10 -130v-724h-60l-11 149h-4q-221 -177 -406 -177 q-67 0 -124 17.5t-102 53t-71 95t-26 136.5zM234 276q0 -63 20 -110t55.5 -74.5t79.5 -40.5t97 -13q98 0 193.5 46.5t211.5 144.5v406q-242 -28 -388 -76.5t-207.5 -116.5t-61.5 -166zM606 1345q-38 0 -72.5 9.5t-60 25t-47.5 37t-37 45.5t-26 51t-17.5 52t-9.5 50h61 q5 -40 20 -76t40 -66.5t63.5 -48.5t86 -18t86 18t63.5 48.5t40.5 66.5t20.5 76h61q-5 -36 -15.5 -71t-32.5 -72t-51 -64.5t-74 -45t-99 -17.5zM561 1569l-19 51q121 40 121 113q0 55 -41.5 81.5t-126.5 30.5l4 55q38 -1 71 -7t63.5 -18.5t52 -30t34.5 -44t13 -58.5 q0 -37 -14.5 -66t-42.5 -49.5t-53.5 -32.5t-61.5 -25z" />
<glyph unicode="&#x1eb4;" horiz-adv-x="1212" d="M826 2143h56q-1 -30 -11 -59.5t-28 -57t-49 -44.5t-70 -17q-31 0 -59 12.5t-49.5 29.5t-41.5 34.5t-42.5 29.5t-45.5 12q-38 0 -64.5 -32.5t-33.5 -85.5h-56q2 31 11.5 60.5t27.5 56.5t49 44t70 17q31 0 59 -12t49.5 -29t41.5 -34t42.5 -29t45.5 -12q19 0 36 8.5 t29.5 23.5t21 36.5t11.5 47.5zM350 1891h60q16 -72 64.5 -120t131.5 -48q30 0 55.5 6.5t45.5 18.5t36.5 27.5t28 34.5t19.5 39t13 42h60q-5 -39 -23.5 -77.5t-49 -73.5t-78.5 -56.5t-106.5 -21.5t-106.5 21.5t-78.5 56.5t-48.5 73.5t-23 77.5zM315 617h581l-107 308 q-125 359 -177 536h-10q-52 -177 -177 -536zM1112 0l-192 551h-628l-194 -551h-75l552 1541h65l550 -1541h-78z" />
<glyph unicode="&#x1eb5;" horiz-adv-x="1152" d="M158 274q0 184 174.5 281.5t558.5 139.5q2 60 -3.5 111t-23.5 102.5t-48 88t-81 59t-118 22.5q-107 0 -203 -41t-162 -94l-38 57q32 23 69.5 44.5t90.5 46t118 39.5t129 15q76 0 135.5 -22.5t97.5 -61t63 -93t35 -114.5t10 -130v-724h-60l-11 149h-4q-221 -177 -406 -177 q-67 0 -124 17.5t-102 53t-71 95t-26 136.5zM234 276q0 -63 20 -110t55.5 -74.5t79.5 -40.5t97 -13q98 0 193.5 46.5t211.5 144.5v406q-242 -28 -388 -76.5t-207.5 -116.5t-61.5 -166zM606.5 1345q-66.5 0 -117.5 20t-81 54t-46 71t-21 79h60q12 -70 64 -116.5t141 -46.5 q46 0 83.5 13.5t62.5 36.5t40.5 51.5t20.5 61.5h60q-5 -42 -21.5 -79t-46 -71t-81 -54t-118 -20zM332 1644q2 30 11.5 58t27.5 53.5t49 40.5t70 15q31 0 59 -11t49.5 -26.5t41.5 -31.5t42.5 -27t45.5 -11q20 0 36.5 7t29 20.5t21 34t11.5 45.5h56q-1 -30 -11 -58t-28 -53 t-49 -40.5t-70 -15.5q-31 0 -59 11t-49.5 26.5t-41.5 31.5t-42.5 27t-45.5 11q-39 0 -65.5 -28t-32.5 -79h-56z" />
<glyph unicode="&#x1eb6;" horiz-adv-x="1212" d="M808 1900h61q-4 -25 -12.5 -51.5t-23 -53.5t-36 -50.5t-48.5 -42t-64 -29.5t-79 -11q-49 0 -91.5 15.5t-71 40t-50 57t-32.5 63.5t-16 62h61q5 -33 19.5 -63.5t38 -56.5t60.5 -41.5t82 -15.5q31 0 58 7t48 20t37.5 30t28.5 37t19.5 41t10.5 42zM607 -280q32 0 53.5 -22.5 t21.5 -56.5q0 -19 -6 -35t-16 -26.5t-24 -16.5t-30 -6q-32 0 -53 23t-21 61q0 35 21.5 57t53.5 22zM315 617h581l-107 308q-125 359 -177 536h-10q-52 -177 -177 -536zM1190 0h-78l-192 551h-628l-194 -551h-75l552 1541h65z" />
<glyph unicode="&#x1eb7;" horiz-adv-x="1152" d="M158 274q0 184 174.5 281.5t558.5 139.5q2 60 -3.5 111t-23.5 102.5t-48 88t-81 59t-118 22.5q-107 0 -203 -41t-162 -94l-38 57q32 23 69.5 44.5t90.5 46t118 39.5t129 15q76 0 135.5 -22.5t97.5 -61t63 -93t35 -114.5t10 -130v-724h-60l-11 149h-4q-221 -177 -406 -177 q-67 0 -124 17.5t-102 53t-71 95t-26 136.5zM234 276q0 -63 20 -110t55.5 -74.5t79.5 -40.5t97 -13q98 0 193.5 46.5t211.5 144.5v406q-242 -28 -388 -76.5t-207.5 -116.5t-61.5 -166zM606 1345q-38 0 -72.5 9.5t-60 25t-47.5 37t-37 45.5t-26 51t-17.5 52t-9.5 50h61 q5 -40 20 -76t40 -66.5t63.5 -48.5t86 -18t86 18t63.5 48.5t40.5 66.5t20.5 76h61q-5 -36 -15.5 -71t-32.5 -72t-51 -64.5t-74 -45t-99 -17.5zM570 -443q-21 0 -38 10t-27 29.5t-10 44.5q0 34 21.5 56.5t53.5 22.5q21 0 38 -10t26.5 -28t9.5 -41q0 -38 -21 -61t-53 -23z" />
<glyph unicode="&#x1eb8;" horiz-adv-x="1190" d="M234 0v1541h826v-66h-752v-620h630v-66h-630v-724h775v-65h-849zM693 -443q-32 0 -53 23t-21 61q0 35 21 57t53 22t53.5 -22.5t21.5 -56.5q0 -38 -21.5 -61t-53.5 -23z" />
<glyph unicode="&#x1eb9;" horiz-adv-x="1114" d="M127 555q0 132 40 245t107 187t153 116t179 42q196 0 308.5 -134.5t112.5 -380.5q0 -46 -4 -75h-822q0 -111 31.5 -206.5t88 -164t139 -107.5t180.5 -39q164 0 307 102l33 -60q-42 -26 -68 -40t-71 -32.5t-95.5 -27t-110.5 -8.5q-105 0 -197.5 40.5t-161.5 114 t-109 184.5t-40 244zM201 617h757q0 225 -95 343t-257 118q-75 0 -144.5 -32.5t-124.5 -91t-91.5 -146t-44.5 -191.5zM600 -443q-21 0 -38 10t-26.5 29.5t-9.5 44.5q0 35 21 57t53 22t53.5 -22.5t21.5 -56.5q0 -25 -10 -44.5t-27 -29.5t-38 -10z" />
<glyph unicode="&#x1eba;" horiz-adv-x="1190" d="M234 0v1541h826v-66h-752v-620h630v-66h-630v-724h775v-65h-849zM604 1644l-18 51q74 24 114 55.5t40 80.5q0 109 -201 116l5 61q53 -2 99 -12.5t84.5 -29.5t61 -51.5t22.5 -74.5q0 -34 -12.5 -62t-30.5 -47.5t-47 -37t-55.5 -28t-61.5 -21.5z" />
<glyph unicode="&#x1ebb;" horiz-adv-x="1114" d="M127 555q0 132 40 245t107 187t153 116t179 42q196 0 308.5 -134.5t112.5 -380.5q0 -46 -4 -75h-822q0 -111 31.5 -206.5t88 -164t139 -107.5t180.5 -39q164 0 307 102l33 -60q-42 -26 -68 -40t-71 -32.5t-95.5 -27t-110.5 -8.5q-105 0 -197.5 40.5t-161.5 114 t-109 184.5t-40 244zM201 617h757q0 225 -95 343t-257 118q-75 0 -144.5 -32.5t-124.5 -91t-91.5 -146t-44.5 -191.5zM555 1284l-18 51q74 24 114 55.5t40 80.5q0 110 -201 117l5 60q53 -1 99 -11.5t84.5 -30t61 -52t22.5 -74.5q0 -34 -12.5 -62t-30.5 -47.5t-47 -37 t-55.5 -28t-61.5 -21.5z" />
<glyph unicode="&#x1ebc;" horiz-adv-x="1190" d="M234 0v1541h826v-66h-752v-620h630v-66h-630v-724h775v-65h-849zM791 1676q-28 0 -55.5 10t-47.5 25t-42.5 32.5t-41 32.5t-42 25t-46.5 10q-38 0 -64.5 -37.5t-33.5 -97.5h-51q2 35 12 69t28 64.5t47.5 49.5t66.5 19q33 0 65 -14t56.5 -34t48.5 -40t51 -34t54 -14 q25 0 46 17t34 48t18 71h51q-2 -36 -12 -70t-28 -64.5t-47.5 -49t-66.5 -18.5z" />
<glyph unicode="&#x1ebd;" horiz-adv-x="1114" d="M127 555q0 132 40 245t107 187t153 116t179 42q196 0 308.5 -134.5t112.5 -380.5q0 -46 -4 -75h-822q0 -111 31.5 -206.5t88 -164t139 -107.5t180.5 -39q164 0 307 102l33 -60q-42 -26 -68 -40t-71 -32.5t-95.5 -27t-110.5 -8.5q-105 0 -197.5 40.5t-161.5 114 t-109 184.5t-40 244zM201 617h757q0 225 -95 343t-257 118q-75 0 -144.5 -32.5t-124.5 -91t-91.5 -146t-44.5 -191.5zM332 1359q2 34 10 65.5t24.5 61t46 47t68.5 17.5q31 0 61 -13.5t54.5 -32.5t47 -38.5t47 -33t47.5 -13.5q74 0 88 131h56q-2 -33 -10 -64.5t-24.5 -61 t-46 -47.5t-68.5 -18q-31 0 -60.5 13.5t-53.5 32.5t-46.5 38.5t-47.5 33t-48 13.5q-75 0 -89 -131h-56z" />
<glyph unicode="&#x1ebe;" horiz-adv-x="1190" d="M234 0v1541h826v-66h-752v-620h630v-66h-630v-724h775v-65h-849zM829 1798l167 243h89l-196 -243h-60zM413 1658l211 229h65l209 -229h-69l-168 158h-10l-168 -158h-70z" />
<glyph unicode="&#x1ebf;" horiz-adv-x="1114" d="M127 555q0 132 40 245t107 187t153 116t179 42q196 0 308.5 -134.5t112.5 -380.5q0 -46 -4 -75h-822q0 -111 31.5 -206.5t88 -164t139 -107.5t180.5 -39q164 0 307 102l33 -60q-42 -26 -68 -40t-71 -32.5t-95.5 -27t-110.5 -8.5q-105 0 -197.5 40.5t-161.5 114 t-109 184.5t-40 244zM201 617h757q0 225 -95 343t-257 118q-75 0 -144.5 -32.5t-124.5 -91t-91.5 -146t-44.5 -191.5zM378 1335l197 262h65l196 -262h-65l-159 187h-10l-159 -187h-65zM780 1485l182 257h89l-211 -257h-60z" />
<glyph unicode="&#x1ec0;" horiz-adv-x="1190" d="M234 0v1541h826v-66h-752v-620h630v-66h-630v-724h775v-65h-849zM815 2041l168 -243h-61l-196 243h89zM413 1658l211 229h65l209 -229h-69l-168 158h-10l-168 -158h-70z" />
<glyph unicode="&#x1ec1;" horiz-adv-x="1114" d="M127 555q0 132 40 245t107 187t153 116t179 42q196 0 308.5 -134.5t112.5 -380.5q0 -46 -4 -75h-822q0 -111 31.5 -206.5t88 -164t139 -107.5t180.5 -39q164 0 307 102l33 -60q-42 -26 -68 -40t-71 -32.5t-95.5 -27t-110.5 -8.5q-105 0 -197.5 40.5t-161.5 114 t-109 184.5t-40 244zM201 617h757q0 225 -95 343t-257 118q-75 0 -144.5 -32.5t-124.5 -91t-91.5 -146t-44.5 -191.5zM378 1335l197 262h65l196 -262h-65l-159 187h-10l-159 -187h-65zM804 1742l181 -257h-60l-210 257h89z" />
<glyph unicode="&#x1ec2;" horiz-adv-x="1190" d="M234 0v1541h826v-66h-752v-620h630v-66h-630v-724h775v-65h-849zM882 1769l-22 57q125 33 125 103q0 54 -41.5 76.5t-130.5 25.5l9 61q38 -2 71 -7.5t63.5 -17t52 -28.5t34.5 -43t13 -58q0 -119 -174 -169zM413 1658l211 229h65l209 -229h-69l-168 158h-10l-168 -158h-70 z" />
<glyph unicode="&#x1ec3;" horiz-adv-x="1114" d="M127 555q0 132 40 245t107 187t153 116t179 42q196 0 308.5 -134.5t112.5 -380.5q0 -46 -4 -75h-822q0 -111 31.5 -206.5t88 -164t139 -107.5t180.5 -39q164 0 307 102l33 -60q-42 -26 -68 -40t-71 -32.5t-95.5 -27t-110.5 -8.5q-105 0 -197.5 40.5t-161.5 114 t-109 184.5t-40 244zM201 617h757q0 225 -95 343t-257 118q-75 0 -144.5 -32.5t-124.5 -91t-91.5 -146t-44.5 -191.5zM378 1335l197 262h65l196 -262h-65l-159 187h-10l-159 -187h-65zM836 1466l-19 51q121 40 121 113q0 56 -41 82t-126 30l4 56q48 -2 88 -11.5t74 -27.5 t53 -48.5t19 -71.5q0 -29 -11 -54.5t-26.5 -42.5t-40.5 -32.5t-46 -24.5t-49 -19z" />
<glyph unicode="&#x1ec4;" horiz-adv-x="1190" d="M234 0v1541h826v-66h-752v-620h630v-66h-630v-724h775v-65h-849zM413 1658l211 229h65l209 -229h-69l-168 158h-10l-168 -158h-70zM437 1965h-56q2 31 11.5 60.5t27.5 56.5t49 44t70 17q31 0 59 -12t49.5 -29t41.5 -34t42.5 -29t45.5 -12q39 0 65.5 32t33.5 84h55 q-1 -30 -11 -59.5t-28 -57t-49 -44.5t-70 -17q-31 0 -59 12.5t-49.5 29.5t-41.5 34.5t-42.5 29.5t-45.5 12q-38 0 -64.5 -32.5t-33.5 -85.5z" />
<glyph unicode="&#x1ec5;" horiz-adv-x="1114" d="M127 555q0 132 40 245t107 187t153 116t179 42q196 0 308.5 -134.5t112.5 -380.5q0 -46 -4 -75h-822q0 -111 31.5 -206.5t88 -164t139 -107.5t180.5 -39q164 0 307 102l33 -60q-42 -26 -68 -40t-71 -32.5t-95.5 -27t-110.5 -8.5q-105 0 -197.5 40.5t-161.5 114 t-109 184.5t-40 244zM201 617h757q0 225 -95 343t-257 118q-75 0 -144.5 -32.5t-124.5 -91t-91.5 -146t-44.5 -191.5zM359 1330l216 230h65l215 -230h-66l-177 165h-10l-177 -165h-66zM388 1644h-56q2 30 11.5 58t27.5 53.5t49 40.5t70 15q31 0 59 -11t49.5 -26.5 t41.5 -31.5t42.5 -27t45.5 -11q20 0 36.5 7t29 20.5t21 34t11.5 45.5h56q-1 -30 -11 -58t-28 -53t-49 -40.5t-70 -15.5q-31 0 -59 11t-49.5 26.5t-41.5 31.5t-42.5 27t-45.5 11q-39 0 -65.5 -28t-32.5 -79z" />
<glyph unicode="&#x1ec6;" horiz-adv-x="1190" d="M234 0v1541h826v-66h-752v-620h630v-66h-630v-724h775v-65h-849zM470 1658h-71l225 242h65l224 -242h-71l-181 173h-10zM693 -443q-32 0 -53 23t-21 61q0 35 21 57t53 22t53.5 -22.5t21.5 -56.5q0 -38 -21.5 -61t-53.5 -23z" />
<glyph unicode="&#x1ec7;" horiz-adv-x="1114" d="M127 555q0 132 40 245t107 187t153 116t179 42q196 0 308.5 -134.5t112.5 -380.5q0 -46 -4 -75h-822q0 -111 31.5 -206.5t88 -164t139 -107.5t180.5 -39q164 0 307 102l33 -60q-42 -26 -68 -40t-71 -32.5t-95.5 -27t-110.5 -8.5q-105 0 -197.5 40.5t-161.5 114 t-109 184.5t-40 244zM201 617h757q0 225 -95 343t-257 118q-75 0 -144.5 -32.5t-124.5 -91t-91.5 -146t-44.5 -191.5zM355 1335l220 313h65l220 -313h-67l-181 238h-10l-181 -238h-66zM597 -443q-32 0 -53 23t-21 61q0 35 21 57t53 22t54 -22.5t22 -56.5q0 -19 -6 -35 t-16 -26.5t-24 -16.5t-30 -6z" />
<glyph unicode="&#x1ec8;" horiz-adv-x="541" d="M234 0v1541h74v-1541h-74zM220 1644l-19 51q48 16 80 33t53 43t21 60q0 109 -201 116l4 61q54 -2 100 -12.5t84.5 -29.5t60.5 -51.5t22 -74.5q0 -34 -12 -62t-30 -47.5t-47 -36.5t-55 -28t-61 -22z" />
<glyph unicode="&#x1ec9;" horiz-adv-x="517" d="M225 0v1116h69v-1116h-69zM207 1284l-18 51q74 24 114 55.5t40 80.5q0 110 -201 117l5 60q53 -1 99 -11.5t84.5 -30t60.5 -52t22 -74.5q0 -34 -12 -62t-30.5 -47.5t-47 -37t-54.5 -28t-62 -21.5z" />
<glyph unicode="&#x1eca;" horiz-adv-x="541" d="M234 0v1541h74v-1541h-74zM273.5 -443q-32.5 0 -54 23t-21.5 61q0 34 22 56.5t54 22.5t53 -22t21 -57q0 -38 -21 -61t-53.5 -23z" />
<glyph unicode="&#x1ecb;" horiz-adv-x="517" d="M261 1401q-32 0 -55.5 22t-23.5 57q0 37 23 58.5t56 21.5q16 0 30.5 -5.5t25.5 -15.5t17.5 -25.5t6.5 -33.5q0 -23 -11 -41t-29.5 -28t-39.5 -10zM225 0v1116h69v-1116h-69zM261 -443q-32 0 -53 23t-21 61q0 35 21 57t53 22t53.5 -22.5t21.5 -56.5q0 -38 -21.5 -61 t-53.5 -23z" />
<glyph unicode="&#x1ecc;" horiz-adv-x="1512" d="M757 -28q-135 0 -251 57.5t-198.5 161t-129.5 254.5t-47 330t47 328.5t129.5 251t198 158t251 56.5t251 -56.5t198 -158t129.5 -251t47 -328.5t-47 -330t-129.5 -254.5t-198 -161t-250.5 -57.5zM757 42q162 0 286 90.5t192 257t68 385.5t-68 383.5t-191.5 252.5 t-286.5 88t-286.5 -88t-192 -252.5t-68.5 -383.5t68 -385.5t192.5 -257t286.5 -90.5zM757 -443q-21 0 -38 10t-27 29.5t-10 44.5q0 34 21.5 56.5t53.5 22.5q21 0 38 -10t26.5 -28t9.5 -41q0 -38 -21 -61t-53 -23z" />
<glyph unicode="&#x1ecd;" horiz-adv-x="1241" d="M127 555q0 110 25.5 205t71.5 164.5t108 119.5t136 75.5t153 25.5q100 0 189.5 -40.5t157.5 -114t108 -186t40 -249.5q0 -108 -26 -202t-72 -163t-108 -119t-135.5 -74.5t-153.5 -24.5q-100 0 -189.5 39.5t-157.5 112.5t-107.5 184.5t-39.5 246.5zM201 555.5 q0 -113.5 32 -210.5t88.5 -164.5t134 -105t166 -37.5t166 37.5t133 105t88 164.5t32.5 210q0 91 -20.5 172.5t-58.5 145t-89.5 110t-116 71t-135.5 24.5q-88 0 -165.5 -38.5t-134 -107t-88.5 -166t-32 -211zM624 -443q-22 0 -39 10t-27 29.5t-10 44.5q0 34 21.5 56.5 t54.5 22.5q21 0 37.5 -10t26.5 -28t10 -41q0 -38 -21 -61t-53 -23z" />
<glyph unicode="&#x1ece;" horiz-adv-x="1512" d="M757 -28q-135 0 -251 57.5t-198.5 161t-129.5 254.5t-47 330t47 328.5t129.5 251t198 158t251 56.5t251 -56.5t198 -158t129.5 -251t47 -328.5t-47 -330t-129.5 -254.5t-198 -161t-250.5 -57.5zM757 42q162 0 286 90.5t192 257t68 385.5t-68 383.5t-191.5 252.5 t-286.5 88t-286.5 -88t-192 -252.5t-68.5 -383.5t68 -385.5t192.5 -257t286.5 -90.5zM705 1644l-19 51q74 24 114 55.5t40 80.5q0 109 -200 116l4 61q53 -2 99.5 -12.5t84.5 -29.5t60.5 -51.5t22.5 -74.5q0 -34 -12 -62t-30.5 -47.5t-47.5 -37t-55 -28t-61 -21.5z" />
<glyph unicode="&#x1ecf;" horiz-adv-x="1241" d="M127 555q0 110 25.5 205t71.5 164.5t108 119.5t136 75.5t153 25.5q100 0 189.5 -40.5t157.5 -114t108 -186t40 -249.5q0 -108 -26 -202t-72 -163t-108 -119t-135.5 -74.5t-153.5 -24.5q-100 0 -189.5 39.5t-157.5 112.5t-107.5 184.5t-39.5 246.5zM201 555.5 q0 -113.5 32 -210.5t88.5 -164.5t134 -105t166 -37.5t166 37.5t133 105t88 164.5t32.5 210q0 91 -20.5 172.5t-58.5 145t-89.5 110t-116 71t-135.5 24.5q-88 0 -165.5 -38.5t-134 -107t-88.5 -166t-32 -211zM570 1284l-19 51q74 24 114 55.5t40 80.5q0 110 -201 117l4 60 q54 -1 100 -11.5t84.5 -30t60.5 -52t22 -74.5q0 -34 -12 -62t-30 -47.5t-47 -37t-55 -28t-61 -21.5z" />
<glyph unicode="&#x1ed0;" horiz-adv-x="1512" d="M757 -28q-135 0 -251 57.5t-198.5 161t-129.5 254.5t-47 330t47 328.5t129.5 251t198 158t251 56.5t251 -56.5t198 -158t129.5 -251t47 -328.5t-47 -330t-129.5 -254.5t-198 -161t-250.5 -57.5zM757 42q162 0 286 90.5t192 257t68 385.5t-68 383.5t-191.5 252.5 t-286.5 88t-286.5 -88t-192 -252.5t-68.5 -383.5t68 -385.5t192.5 -257t286.5 -90.5zM929 1798l169 243h88l-196 -243h-61zM514 1658l210 229h65l211 -229h-71l-167 158h-11l-167 -158h-70z" />
<glyph unicode="&#x1ed1;" horiz-adv-x="1241" d="M127 555q0 110 25.5 205t71.5 164.5t108 119.5t136 75.5t153 25.5q100 0 189.5 -40.5t157.5 -114t108 -186t40 -249.5q0 -108 -26 -202t-72 -163t-108 -119t-135.5 -74.5t-153.5 -24.5q-100 0 -189.5 39.5t-157.5 112.5t-107.5 184.5t-39.5 246.5zM201 555.5 q0 -113.5 32 -210.5t88.5 -164.5t134 -105t166 -37.5t166 37.5t133 105t88 164.5t32.5 210q0 91 -20.5 172.5t-58.5 145t-89.5 110t-116 71t-135.5 24.5q-88 0 -165.5 -38.5t-134 -107t-88.5 -166t-32 -211zM392 1335l196 262h65l196 -262h-65l-158 187h-9l-160 -187h-65z M793 1485l183 257h89l-210 -257h-62z" />
<glyph unicode="&#x1ed2;" horiz-adv-x="1512" d="M757 -28q-135 0 -251 57.5t-198.5 161t-129.5 254.5t-47 330t47 328.5t129.5 251t198 158t251 56.5t251 -56.5t198 -158t129.5 -251t47 -328.5t-47 -330t-129.5 -254.5t-198 -161t-250.5 -57.5zM757 42q162 0 286 90.5t192 257t68 385.5t-68 383.5t-191.5 252.5 t-286.5 88t-286.5 -88t-192 -252.5t-68.5 -383.5t68 -385.5t192.5 -257t286.5 -90.5zM915 2041l168 -243h-60l-197 243h89zM514 1658l210 229h65l211 -229h-71l-167 158h-11l-167 -158h-70z" />
<glyph unicode="&#x1ed3;" horiz-adv-x="1241" d="M127 555q0 110 25.5 205t71.5 164.5t108 119.5t136 75.5t153 25.5q100 0 189.5 -40.5t157.5 -114t108 -186t40 -249.5q0 -108 -26 -202t-72 -163t-108 -119t-135.5 -74.5t-153.5 -24.5q-100 0 -189.5 39.5t-157.5 112.5t-107.5 184.5t-39.5 246.5zM201 555.5 q0 -113.5 32 -210.5t88.5 -164.5t134 -105t166 -37.5t166 37.5t133 105t88 164.5t32.5 210q0 91 -20.5 172.5t-58.5 145t-89.5 110t-116 71t-135.5 24.5q-88 0 -165.5 -38.5t-134 -107t-88.5 -166t-32 -211zM392 1335l196 262h65l196 -262h-65l-158 187h-9l-160 -187h-65z M817 1742l183 -257h-62l-210 257h89z" />
<glyph unicode="&#x1ed4;" horiz-adv-x="1512" d="M757 -28q-135 0 -251 57.5t-198.5 161t-129.5 254.5t-47 330t47 328.5t129.5 251t198 158t251 56.5t251 -56.5t198 -158t129.5 -251t47 -328.5t-47 -330t-129.5 -254.5t-198 -161t-250.5 -57.5zM757 42q162 0 286 90.5t192 257t68 385.5t-68 383.5t-191.5 252.5 t-286.5 88t-286.5 -88t-192 -252.5t-68.5 -383.5t68 -385.5t192.5 -257t286.5 -90.5zM983 1769l-23 57q125 33 125 103q0 54 -41.5 76.5t-130.5 25.5l9 61q48 -2 88 -10.5t74 -26t53 -47.5t19 -70q0 -119 -173 -169zM514 1658l210 229h65l211 -229h-71l-167 158h-11 l-167 -158h-70z" />
<glyph unicode="&#x1ed5;" horiz-adv-x="1241" d="M127 555q0 110 25.5 205t71.5 164.5t108 119.5t136 75.5t153 25.5q100 0 189.5 -40.5t157.5 -114t108 -186t40 -249.5q0 -108 -26 -202t-72 -163t-108 -119t-135.5 -74.5t-153.5 -24.5q-100 0 -189.5 39.5t-157.5 112.5t-107.5 184.5t-39.5 246.5zM201 555.5 q0 -113.5 32 -210.5t88.5 -164.5t134 -105t166 -37.5t166 37.5t133 105t88 164.5t32.5 210q0 91 -20.5 172.5t-58.5 145t-89.5 110t-116 71t-135.5 24.5q-88 0 -165.5 -38.5t-134 -107t-88.5 -166t-32 -211zM392 1335l196 262h65l196 -262h-65l-158 187h-9l-160 -187h-65z M849 1466l-18 51q122 40 122 113q0 56 -41.5 82t-127.5 30l5 56q47 -2 87.5 -11.5t74 -27.5t53 -48.5t19.5 -71.5q0 -29 -11 -54.5t-27 -42.5t-41 -32.5t-45.5 -24.5t-49.5 -19z" />
<glyph unicode="&#x1ed6;" horiz-adv-x="1512" d="M757 -28q-135 0 -251 57.5t-198.5 161t-129.5 254.5t-47 330t47 328.5t129.5 251t198 158t251 56.5t251 -56.5t198 -158t129.5 -251t47 -328.5t-47 -330t-129.5 -254.5t-198 -161t-250.5 -57.5zM757 42q162 0 286 90.5t192 257t68 385.5t-68 383.5t-191.5 252.5 t-286.5 88t-286.5 -88t-192 -252.5t-68.5 -383.5t68 -385.5t192.5 -257t286.5 -90.5zM514 1658l210 229h65l211 -229h-71l-167 158h-11l-167 -158h-70zM537 1965h-56q2 31 12 60.5t28 56.5t49 44t70 17q30 0 58.5 -12t49.5 -29t41 -34t43 -29t46 -12q38 0 64.5 32t33.5 84 h56q-2 -30 -12 -59.5t-28 -57t-49 -44.5t-70 -17q-31 0 -59 12.5t-49 29.5t-41 34.5t-43 29.5t-46 12q-25 0 -46 -15t-34.5 -41.5t-17.5 -61.5z" />
<glyph unicode="&#x1ed7;" horiz-adv-x="1241" d="M127 555q0 110 25.5 205t71.5 164.5t108 119.5t136 75.5t153 25.5q100 0 189.5 -40.5t157.5 -114t108 -186t40 -249.5q0 -108 -26 -202t-72 -163t-108 -119t-135.5 -74.5t-153.5 -24.5q-100 0 -189.5 39.5t-157.5 112.5t-107.5 184.5t-39.5 246.5zM201 555.5 q0 -113.5 32 -210.5t88.5 -164.5t134 -105t166 -37.5t166 37.5t133 105t88 164.5t32.5 210q0 91 -20.5 172.5t-58.5 145t-89.5 110t-116 71t-135.5 24.5q-88 0 -165.5 -38.5t-134 -107t-88.5 -166t-32 -211zM374 1330l214 230h65l216 -230h-65l-178 165h-9l-178 -165h-65z M401 1644h-56q2 30 12 58t28 53.5t49 40.5t70 15q26 0 50.5 -7.5t42 -19.5t36.5 -26t34.5 -26t35.5 -20t39 -8q39 0 65 28t33 79h56q-1 -23 -7.5 -46t-19 -45t-30 -39t-44 -27t-57.5 -10q-27 0 -51 8t-42 20t-37 25.5t-34.5 25.5t-35 20t-39.5 8q-39 0 -65 -28t-33 -79z" />
<glyph unicode="&#x1ed8;" horiz-adv-x="1512" d="M757 -28q-135 0 -251 57.5t-198.5 161t-129.5 254.5t-47 330t47 328.5t129.5 251t198 158t251 56.5t251 -56.5t198 -158t129.5 -251t47 -328.5t-47 -330t-129.5 -254.5t-198 -161t-250.5 -57.5zM757 42q162 0 286 90.5t192 257t68 385.5t-68 383.5t-191.5 252.5 t-286.5 88t-286.5 -88t-192 -252.5t-68.5 -383.5t68 -385.5t192.5 -257t286.5 -90.5zM570 1658h-71l225 242h65l224 -242h-70l-181 173h-11zM757 -443q-21 0 -38 10t-27 29.5t-10 44.5q0 34 21.5 56.5t53.5 22.5q21 0 38 -10t26.5 -28t9.5 -41q0 -38 -21 -61t-53 -23z" />
<glyph unicode="&#x1ed9;" horiz-adv-x="1241" d="M127 555q0 110 25.5 205t71.5 164.5t108 119.5t136 75.5t153 25.5q100 0 189.5 -40.5t157.5 -114t108 -186t40 -249.5q0 -108 -26 -202t-72 -163t-108 -119t-135.5 -74.5t-153.5 -24.5q-100 0 -189.5 39.5t-157.5 112.5t-107.5 184.5t-39.5 246.5zM201 555.5 q0 -113.5 32 -210.5t88.5 -164.5t134 -105t166 -37.5t166 37.5t133 105t88 164.5t32.5 210q0 91 -20.5 172.5t-58.5 145t-89.5 110t-116 71t-135.5 24.5q-88 0 -165.5 -38.5t-134 -107t-88.5 -166t-32 -211zM369 1335l219 313h65l220 -313h-65l-182 238h-9l-183 -238h-65z M624 -443q-22 0 -39 10t-27 29.5t-10 44.5q0 34 21.5 56.5t54.5 22.5q21 0 37.5 -10t26.5 -28t10 -41q0 -38 -21 -61t-53 -23z" />
<glyph unicode="&#x1eda;" horiz-adv-x="1512" d="M1004 1900l-253 -242h-69l220 242h102zM766 42q162 0 286 90.5t192 257t68 385.5t-68 383.5t-191.5 252.5t-286.5 88t-286.5 -88t-191.5 -252.5t-68 -383.5t68 -385.5t192 -257t286 -90.5zM1252 1746l60 38q42 -62 42 -122q0 -165 -227 -219q125 -102 195 -274t70 -394 q0 -179 -47 -330t-129.5 -254.5t-198.5 -161t-251 -57.5t-251 57.5t-198.5 161t-129.5 254.5t-47 330t47 328.5t129.5 251t198.5 158t251 56.5q156 0 287 -74q118 15 174.5 55t56.5 108q0 42 -32 88z" />
<glyph unicode="&#x1edb;" horiz-adv-x="1241" d="M808 1648l-243 -313h-66l216 313h93zM621.5 38q88.5 0 166 37.5t133 105t88 164.5t32.5 210q0 91 -20.5 172.5t-58.5 145t-89.5 110t-116 71t-135.5 24.5q-88 0 -165.5 -38.5t-134 -107t-88.5 -166t-32 -211t32 -210.5t88.5 -164.5t134 -105t166 -37.5zM1013 1345l61 37 q42 -63 42 -121q0 -48 -17 -85.5t-49 -62t-65 -39.5t-76 -27q64 -50 110 -121t71.5 -166t25.5 -205q0 -108 -26 -202t-72 -163t-108 -119t-135.5 -74.5t-153.5 -24.5q-100 0 -189.5 39.5t-157.5 112.5t-107.5 184.5t-39.5 246.5q0 110 25.5 205t71.5 164.5t108 119.5 t136 75.5t153 25.5q112 0 215 -53q211 31 211 164q0 41 -34 89z" />
<glyph unicode="&#x1edc;" horiz-adv-x="1512" d="M831 1658h-69l-254 242h104zM766 42q162 0 286 90.5t192 257t68 385.5t-68 383.5t-191.5 252.5t-286.5 88t-286.5 -88t-191.5 -252.5t-68 -383.5t68 -385.5t192 -257t286 -90.5zM1252 1746l60 38q42 -62 42 -122q0 -165 -227 -219q125 -102 195 -274t70 -394 q0 -179 -47 -330t-129.5 -254.5t-198.5 -161t-251 -57.5t-251 57.5t-198.5 161t-129.5 254.5t-47 330t47 328.5t129.5 251t198.5 158t251 56.5q156 0 287 -74q118 15 174.5 55t56.5 108q0 42 -32 88z" />
<glyph unicode="&#x1edd;" horiz-adv-x="1241" d="M742 1335h-65l-243 313h94zM621.5 38q88.5 0 166 37.5t133 105t88 164.5t32.5 210q0 91 -20.5 172.5t-58.5 145t-89.5 110t-116 71t-135.5 24.5q-88 0 -165.5 -38.5t-134 -107t-88.5 -166t-32 -211t32 -210.5t88.5 -164.5t134 -105t166 -37.5zM1013 1345l61 37 q42 -63 42 -121q0 -48 -17 -85.5t-49 -62t-65 -39.5t-76 -27q64 -50 110 -121t71.5 -166t25.5 -205q0 -108 -26 -202t-72 -163t-108 -119t-135.5 -74.5t-153.5 -24.5q-100 0 -189.5 39.5t-157.5 112.5t-107.5 184.5t-39.5 246.5q0 110 25.5 205t71.5 164.5t108 119.5 t136 75.5t153 25.5q112 0 215 -53q211 31 211 164q0 41 -34 89z" />
<glyph unicode="&#x1ede;" horiz-adv-x="1512" d="M705 1644l-19 51q74 24 114 55.5t40 80.5q0 109 -200 116l4 61q53 -2 99.5 -12.5t84.5 -29.5t60.5 -51.5t22.5 -74.5q0 -34 -12 -62t-30.5 -47.5t-47.5 -37t-55 -28t-61 -21.5zM766 42q162 0 286 90.5t192 257t68 385.5t-68 383.5t-191.5 252.5t-286.5 88t-286.5 -88 t-191.5 -252.5t-68 -383.5t68 -385.5t192 -257t286 -90.5zM1252 1746l60 38q42 -62 42 -122q0 -165 -227 -219q125 -102 195 -274t70 -394q0 -179 -47 -330t-129.5 -254.5t-198.5 -161t-251 -57.5t-251 57.5t-198.5 161t-129.5 254.5t-47 330t47 328.5t129.5 251t198.5 158 t251 56.5q156 0 287 -74q118 15 174.5 55t56.5 108q0 42 -32 88z" />
<glyph unicode="&#x1edf;" horiz-adv-x="1241" d="M570 1284l-19 51q74 24 114 55.5t40 80.5q0 110 -201 117l4 60q54 -1 100 -11.5t84.5 -30t60.5 -52t22 -74.5q0 -34 -12 -62t-30 -47.5t-47 -37t-55 -28t-61 -21.5zM621.5 38q88.5 0 166 37.5t133 105t88 164.5t32.5 210q0 91 -20.5 172.5t-58.5 145t-89.5 110t-116 71 t-135.5 24.5q-88 0 -165.5 -38.5t-134 -107t-88.5 -166t-32 -211t32 -210.5t88.5 -164.5t134 -105t166 -37.5zM1013 1345l61 37q42 -63 42 -121q0 -48 -17 -85.5t-49 -62t-65 -39.5t-76 -27q64 -50 110 -121t71.5 -166t25.5 -205q0 -108 -26 -202t-72 -163t-108 -119 t-135.5 -74.5t-153.5 -24.5q-100 0 -189.5 39.5t-157.5 112.5t-107.5 184.5t-39.5 246.5q0 110 25.5 205t71.5 164.5t108 119.5t136 75.5t153 25.5q112 0 215 -53q211 31 211 164q0 41 -34 89z" />
<glyph unicode="&#x1ee0;" horiz-adv-x="1512" d="M994 1878h53q-3 -48 -19.5 -92.5t-52 -77t-84.5 -32.5q-33 0 -64.5 14t-56.5 34t-48.5 40t-50.5 33.5t-54 13.5q-38 0 -64.5 -37.5t-33.5 -97.5h-52q2 35 12 69t28 64.5t48 49.5t66 19q34 0 65.5 -14t56 -34t48.5 -40t51 -34t54 -14q38 0 64.5 37.5t33.5 98.5zM766 42 q162 0 286 90.5t192 257t68 385.5t-68 383.5t-191.5 252.5t-286.5 88t-286.5 -88t-191.5 -252.5t-68 -383.5t68 -385.5t192 -257t286 -90.5zM1252 1746l60 38q42 -62 42 -122q0 -165 -227 -219q125 -102 195 -274t70 -394q0 -179 -47 -330t-129.5 -254.5t-198.5 -161 t-251 -57.5t-251 57.5t-198.5 161t-129.5 254.5t-47 330t47 328.5t129.5 251t198.5 158t251 56.5q156 0 287 -74q118 15 174.5 55t56.5 108q0 42 -32 88z" />
<glyph unicode="&#x1ee1;" horiz-adv-x="1241" d="M840 1550h56q-2 -33 -10.5 -64.5t-24.5 -61t-45.5 -47.5t-68.5 -18q-31 0 -61 13.5t-53.5 32.5t-46 38.5t-47.5 33t-49 13.5q-74 0 -89 -131h-56q2 34 10.5 65.5t25 61t46 47t68.5 17.5q31 0 61 -13.5t54 -32.5t47 -38.5t47.5 -33t46.5 -13.5q74 0 89 131zM621.5 38 q88.5 0 166 37.5t133 105t88 164.5t32.5 210q0 91 -20.5 172.5t-58.5 145t-89.5 110t-116 71t-135.5 24.5q-88 0 -165.5 -38.5t-134 -107t-88.5 -166t-32 -211t32 -210.5t88.5 -164.5t134 -105t166 -37.5zM1013 1345l61 37q42 -63 42 -121q0 -48 -17 -85.5t-49 -62 t-65 -39.5t-76 -27q64 -50 110 -121t71.5 -166t25.5 -205q0 -108 -26 -202t-72 -163t-108 -119t-135.5 -74.5t-153.5 -24.5q-100 0 -189.5 39.5t-157.5 112.5t-107.5 184.5t-39.5 246.5q0 110 25.5 205t71.5 164.5t108 119.5t136 75.5t153 25.5q112 0 215 -53 q211 31 211 164q0 41 -34 89z" />
<glyph unicode="&#x1ee2;" horiz-adv-x="1512" d="M757 -280q21 0 38 -10t26.5 -28t9.5 -41q0 -38 -21 -61t-53 -23q-21 0 -38 10t-27 29.5t-10 44.5q0 34 21.5 56.5t53.5 22.5zM766 42q162 0 286 90.5t192 257t68 385.5t-68 383.5t-191.5 252.5t-286.5 88t-286.5 -88t-191.5 -252.5t-68 -383.5t68 -385.5t192 -257 t286 -90.5zM1252 1746l60 38q42 -62 42 -122q0 -165 -227 -219q125 -102 195 -274t70 -394q0 -179 -47 -330t-129.5 -254.5t-198.5 -161t-251 -57.5t-251 57.5t-198.5 161t-129.5 254.5t-47 330t47 328.5t129.5 251t198.5 158t251 56.5q156 0 287 -74q118 15 174.5 55 t56.5 108q0 42 -32 88z" />
<glyph unicode="&#x1ee3;" horiz-adv-x="1241" d="M624 -280q21 0 37.5 -10t26.5 -28t10 -41q0 -38 -21 -61t-53 -23q-22 0 -39 10t-27 29.5t-10 44.5q0 34 21.5 56.5t54.5 22.5zM621.5 38q88.5 0 166 37.5t133 105t88 164.5t32.5 210q0 91 -20.5 172.5t-58.5 145t-89.5 110t-116 71t-135.5 24.5q-88 0 -165.5 -38.5 t-134 -107t-88.5 -166t-32 -211t32 -210.5t88.5 -164.5t134 -105t166 -37.5zM1013 1345l61 37q42 -63 42 -121q0 -48 -17 -85.5t-49 -62t-65 -39.5t-76 -27q64 -50 110 -121t71.5 -166t25.5 -205q0 -108 -26 -202t-72 -163t-108 -119t-135.5 -74.5t-153.5 -24.5 q-100 0 -189.5 39.5t-157.5 112.5t-107.5 184.5t-39.5 246.5q0 110 25.5 205t71.5 164.5t108 119.5t136 75.5t153 25.5q112 0 215 -53q211 31 211 164q0 41 -34 89z" />
<glyph unicode="&#x1ee4;" horiz-adv-x="1470" d="M229 575v966h74v-948q0 -124 23.5 -220.5t63 -157.5t95.5 -101t116.5 -56t131.5 -16q72 0 134 16t119.5 56t97.5 101t64 157.5t24 220.5v948h71v-966q0 -88 -12 -163t-33.5 -132.5t-50.5 -105t-66.5 -80.5t-77.5 -57t-86 -38t-91 -20.5t-93 -6.5q-55 0 -106 8t-102 28 t-94 50.5t-81 78.5t-64.5 109.5t-41.5 145t-15 183.5zM735.5 -443q-32.5 0 -53.5 23t-21 61q0 35 21 57t53 22t54 -22.5t22 -56.5q0 -38 -21.5 -61t-54 -23z" />
<glyph unicode="&#x1ee5;" horiz-adv-x="1223" d="M205 397v719h71v-710q0 -188 64 -278t206 -90q102 0 188 56t195 186v836h71v-1116h-62l-9 192h-4q-92 -107 -183.5 -163.5t-199.5 -56.5q-172 0 -254.5 104t-82.5 321zM653 -443q-32 0 -53 23t-21 61q0 35 21 57t53 22t53.5 -22.5t21.5 -56.5q0 -38 -21.5 -61t-53.5 -23z " />
<glyph unicode="&#x1ee6;" horiz-adv-x="1470" d="M229 575v966h74v-948q0 -124 23.5 -220.5t63 -157.5t95.5 -101t116.5 -56t131.5 -16q72 0 134 16t119.5 56t97.5 101t64 157.5t24 220.5v948h71v-966q0 -88 -12 -163t-33.5 -132.5t-50.5 -105t-66.5 -80.5t-77.5 -57t-86 -38t-91 -20.5t-93 -6.5q-55 0 -106 8t-102 28 t-94 50.5t-81 78.5t-64.5 109.5t-41.5 145t-15 183.5zM684 1644l-18 51q74 24 114 55.5t40 80.5q0 109 -201 116l5 61q42 -2 79.5 -8.5t72 -19.5t59.5 -32t39.5 -46.5t14.5 -61.5q0 -24 -6 -45.5t-16.5 -38.5t-26 -32t-32.5 -26t-39 -21.5t-41.5 -17.5t-43.5 -15z" />
<glyph unicode="&#x1ee7;" horiz-adv-x="1223" d="M205 397v719h71v-710q0 -188 64 -278t206 -90q102 0 188 56t195 186v836h71v-1116h-62l-9 192h-4q-92 -107 -183.5 -163.5t-199.5 -56.5q-172 0 -254.5 104t-82.5 321zM561 1284l-19 51q74 24 113.5 55.5t39.5 80.5q0 110 -200 117l4 60q53 -1 99.5 -11.5t85 -30 t60.5 -52t22 -74.5q0 -34 -12 -62t-30 -47.5t-47 -37t-55 -28t-61 -21.5z" />
<glyph unicode="&#x1ee8;" horiz-adv-x="1493" d="M980 1900l-252 -242h-69l219 242h102zM1368 1793l60 38q43 -63 43 -122q0 -41 -13 -74t-33.5 -55.5t-51.5 -40.5t-61.5 -29t-68.5 -20v-915q0 -88 -12 -163t-33.5 -132.5t-50.5 -105t-66.5 -80.5t-77.5 -57t-86 -38t-91 -20.5t-93 -6.5q-55 0 -106 8t-102 28t-94 50.5 t-81 78.5t-64.5 109.5t-41.5 145t-15 183.5v966h74v-948q0 -124 23.5 -220.5t63 -157.5t95.5 -101t116.5 -56t131.5 -16q72 0 134 16t119.5 56t97.5 101t64 157.5t24 220.5v948h4q80 9 129.5 30t72.5 53.5t23 79.5q0 41 -33 89z" />
<glyph unicode="&#x1ee9;" horiz-adv-x="1223" d="M791 1648l-243 -313h-65l215 313h93zM1102 1368l61 38q42 -63 42 -122q0 -162 -205 -215v-1069h-62l-9 192h-4q-92 -107 -183.5 -163.5t-199.5 -56.5q-172 0 -254.5 104t-82.5 321v719h71v-710q0 -188 64 -278t206 -90q102 0 188 56t195 186v836h5q200 29 200 163 q0 43 -32 89z" />
<glyph unicode="&#x1eea;" horiz-adv-x="1493" d="M808 1658h-70l-252 242h102zM1368 1793l60 38q43 -63 43 -122q0 -41 -13 -74t-33.5 -55.5t-51.5 -40.5t-61.5 -29t-68.5 -20v-915q0 -88 -12 -163t-33.5 -132.5t-50.5 -105t-66.5 -80.5t-77.5 -57t-86 -38t-91 -20.5t-93 -6.5q-55 0 -106 8t-102 28t-94 50.5t-81 78.5 t-64.5 109.5t-41.5 145t-15 183.5v966h74v-948q0 -124 23.5 -220.5t63 -157.5t95.5 -101t116.5 -56t131.5 -16q72 0 134 16t119.5 56t97.5 101t64 157.5t24 220.5v948h4q80 9 129.5 30t72.5 53.5t23 79.5q0 41 -33 89z" />
<glyph unicode="&#x1eeb;" horiz-adv-x="1223" d="M726 1335h-65l-243 313h94zM1102 1368l61 38q42 -63 42 -122q0 -162 -205 -215v-1069h-62l-9 192h-4q-92 -107 -183.5 -163.5t-199.5 -56.5q-172 0 -254.5 104t-82.5 321v719h71v-710q0 -188 64 -278t206 -90q102 0 188 56t195 186v836h5q200 29 200 163q0 43 -32 89z " />
<glyph unicode="&#x1eec;" horiz-adv-x="1493" d="M682 1644l-19 51q75 24 114.5 55.5t39.5 80.5q0 109 -200 116l4 61q42 -2 80 -8.5t72.5 -19.5t59 -32t39.5 -46.5t15 -61.5t-12 -62t-30.5 -47.5t-47 -36.5t-54.5 -28t-61 -22zM1368 1793l60 38q43 -63 43 -122q0 -41 -13 -74t-33.5 -55.5t-51.5 -40.5t-61.5 -29 t-68.5 -20v-915q0 -88 -12 -163t-33.5 -132.5t-50.5 -105t-66.5 -80.5t-77.5 -57t-86 -38t-91 -20.5t-93 -6.5q-55 0 -106 8t-102 28t-94 50.5t-81 78.5t-64.5 109.5t-41.5 145t-15 183.5v966h74v-948q0 -124 23.5 -220.5t63 -157.5t95.5 -101t116.5 -56t131.5 -16 q72 0 134 16t119.5 56t97.5 101t64 157.5t24 220.5v948h4q80 9 129.5 30t72.5 53.5t23 79.5q0 41 -33 89z" />
<glyph unicode="&#x1eed;" horiz-adv-x="1223" d="M553 1284l-18 51q28 9 50 18.5t42 21.5t33 26t21 31.5t8 38.5q0 110 -201 117l4 60q54 -1 100 -11.5t84.5 -30t60.5 -52t22 -74.5q0 -34 -12 -62t-30.5 -47.5t-47.5 -37t-55 -28t-61 -21.5zM1102 1368l61 38q42 -63 42 -122q0 -162 -205 -215v-1069h-62l-9 192h-4 q-92 -107 -183.5 -163.5t-199.5 -56.5q-172 0 -254.5 104t-82.5 321v719h71v-710q0 -188 64 -278t206 -90q102 0 188 56t195 186v836h5q200 29 200 163q0 43 -32 89z" />
<glyph unicode="&#x1eee;" horiz-adv-x="1493" d="M971 1878h52q-2 -36 -12 -70t-28 -64.5t-48 -49t-66 -18.5q-34 0 -65.5 14t-56.5 34t-49 40t-51 33.5t-54 13.5q-38 0 -64.5 -37.5t-33.5 -97.5h-52q2 27 8.5 55t19 54.5t29.5 47t42.5 33t54.5 12.5q34 0 65.5 -14t56.5 -34t49 -40t51 -34t54 -14q25 0 46 17t34.5 48 t17.5 71zM1368 1793l60 38q43 -63 43 -122q0 -41 -13 -74t-33.5 -55.5t-51.5 -40.5t-61.5 -29t-68.5 -20v-915q0 -88 -12 -163t-33.5 -132.5t-50.5 -105t-66.5 -80.5t-77.5 -57t-86 -38t-91 -20.5t-93 -6.5q-55 0 -106 8t-102 28t-94 50.5t-81 78.5t-64.5 109.5t-41.5 145 t-15 183.5v966h74v-948q0 -124 23.5 -220.5t63 -157.5t95.5 -101t116.5 -56t131.5 -16q72 0 134 16t119.5 56t97.5 101t64 157.5t24 220.5v948h4q80 9 129.5 30t72.5 53.5t23 79.5q0 41 -33 89z" />
</font>
</defs>
</svg>
